<svg width="98" height="27" viewBox="0 0 98 27" fill="none" xmlns="http://www.w3.org/2000/svg">
<g opacity="0.7">
<path d="M26.284 21V5.796H23.491V21H26.284ZM28.5392 21.567C28.8332 23.541 30.7232 25.305 33.5582 25.305C37.4432 25.305 38.9762 22.722 38.9762 19.887V10.668H36.2882V11.886C35.9312 11.193 34.9862 10.479 33.3482 10.479C30.5132 10.479 28.5392 12.789 28.5392 15.519C28.5392 18.417 30.5972 20.538 33.3482 20.538C34.8392 20.538 35.8052 19.887 36.2252 19.215V19.971C36.2252 21.966 35.2382 22.848 33.4742 22.848C32.1512 22.848 31.2482 22.029 31.0592 20.895L28.5392 21.567ZM33.8312 18.144C32.3822 18.144 31.3532 17.136 31.3532 15.519C31.3532 13.923 32.4452 12.915 33.8312 12.915C35.1752 12.915 36.2672 13.923 36.2672 15.519C36.2672 17.115 35.2592 18.144 33.8312 18.144ZM46.4455 18.774C45.0805 18.774 43.8205 17.766 43.8205 15.834C43.8205 13.881 45.0805 12.894 46.4455 12.894C47.8105 12.894 49.0705 13.881 49.0705 15.834C49.0705 17.787 47.8105 18.774 46.4455 18.774ZM46.4455 10.353C43.3585 10.353 41.0275 12.642 41.0275 15.834C41.0275 19.005 43.3585 21.315 46.4455 21.315C49.5325 21.315 51.8635 19.005 51.8635 15.834C51.8635 12.642 49.5325 10.353 46.4455 10.353ZM60.3681 10.626C60.1581 10.605 59.9481 10.584 59.7171 10.584C58.8351 10.584 57.4071 10.836 56.7771 12.201V10.668H54.0681V21H56.8611V16.275C56.8611 14.049 58.1001 13.356 59.5281 13.356C59.7801 13.356 60.0531 13.377 60.3681 13.44V10.626ZM61.7643 18.186C61.7643 19.803 63.1083 21.294 65.3133 21.294C66.8463 21.294 67.8333 20.58 68.3583 19.761C68.3583 20.16 68.4003 20.727 68.4633 21H71.0253C70.9623 20.643 70.8993 19.908 70.8993 19.362V14.28C70.8993 12.201 69.6813 10.353 66.4053 10.353C63.6333 10.353 62.1423 12.138 61.9743 13.755L64.4523 14.28C64.5363 13.377 65.2083 12.6 66.4263 12.6C67.6023 12.6 68.1693 13.209 68.1693 13.944C68.1693 14.301 67.9803 14.595 67.3923 14.679L64.8513 15.057C63.1293 15.309 61.7643 16.338 61.7643 18.186ZM65.9013 19.215C64.9983 19.215 64.5573 18.627 64.5573 18.018C64.5573 17.22 65.1243 16.821 65.8383 16.716L68.1693 16.359V16.821C68.1693 18.648 67.0773 19.215 65.9013 19.215ZM76.5076 15.057C76.5076 13.86 77.2216 12.915 78.4396 12.915C79.7836 12.915 80.3506 13.818 80.3506 14.973V21H83.1436V14.49C83.1436 12.222 81.9676 10.395 79.4056 10.395C78.2926 10.395 77.0536 10.878 76.4236 11.949V10.668H73.7146V21H76.5076V15.057ZM95.8273 5.796H93.0763V11.697C92.7823 11.151 91.9423 10.416 90.1573 10.416C87.2383 10.416 85.2013 12.789 85.2013 15.813C85.2013 18.942 87.3013 21.252 90.2413 21.252C91.6273 21.252 92.6773 20.622 93.1393 19.803C93.1393 20.286 93.2023 20.79 93.2443 21H95.9113C95.8693 20.58 95.8273 19.824 95.8273 19.131V5.796ZM88.0153 15.813C88.0153 13.965 89.1493 12.915 90.5773 12.915C92.0053 12.915 93.1183 13.944 93.1183 15.792C93.1183 17.661 92.0053 18.753 90.5773 18.753C89.1073 18.753 88.0153 17.661 88.0153 15.813Z" fill="white"/>
<path d="M3.46821 20.99L6.36923 15.9835L9.27024 10.995L12.153 5.98851L12.6315 5.19509L12.8334 5.98851L13.7176 9.2851L12.7263 10.995L9.84355 15.9835L6.96076 20.99H10.427L13.33 15.9835L14.832 13.3914L15.5406 15.9835L16.885 20.99H19.998L18.6535 15.9835L17.309 10.995L16.9557 9.70906L19.1138 5.98851H15.9645L15.8595 5.61905L14.7613 1.52894L14.62 1H11.5918L11.5212 1.10498L8.69487 5.98851L5.78577 10.991L2.90092 15.9794L0 20.986L3.46821 20.99Z" fill="white"/>
</g>
</svg>
