<svg width="126" height="25" viewBox="0 0 126 34" fill="none" xmlns="http://www.w3.org/2000/svg">
<path d="M34.9805 4.09639H40.7469C42.2122 4.09639 43.2835 4.49027 43.9768 5.16775C44.6542 5.7507 44.9536 6.53847 44.9536 7.31048C44.9536 7.60983 44.9536 7.98796 44.8591 8.28731C44.67 8.77573 44.3706 9.26414 43.9768 9.65802C43.7877 9.84709 43.5829 9.95737 43.3938 10.0519C44.0713 10.241 44.67 10.6349 45.1584 11.1233C45.5523 11.6117 45.7414 12.1946 45.7414 13.0769C45.7414 13.5653 45.6468 14.1483 45.442 14.5422C45.2529 14.9361 44.8591 15.3299 44.4652 15.6135C43.9768 15.9129 43.4883 16.102 42.9999 16.291C42.417 16.4801 41.7237 16.4801 41.0463 16.4801H35.075V4.06488H34.9805V4.09639ZM40.2585 9.16961C40.7469 9.16961 41.2353 9.07507 41.7238 8.87026C42.1176 8.68119 42.3067 8.28731 42.3067 7.89343C42.3067 7.49954 42.1176 7.10566 41.8183 6.9166C41.4244 6.61724 40.936 6.52271 40.4476 6.61725H37.7061V9.24838H40.2427V9.16961H40.2585ZM40.936 14.164C41.4244 14.164 41.9128 14.0695 42.4012 13.8647C42.7951 13.6756 42.9842 13.2817 42.8896 12.7933C42.8896 12.3994 42.7006 12.0056 42.4012 11.8165C42.1019 11.6274 41.5189 11.4226 40.8415 11.4226H37.6116V14.164H40.936Z" fill="#B8B9BB"/>
<path d="M49.1406 4.09637H51.8821V16.6061H49.1406V4.09637Z" fill="#B8B9BB"/>
<path d="M56.0879 4.09637H58.6245L64.4855 11.8165V4.09637H67.2111V16.6061H64.8794L58.719 8.68118V16.6061H56.0879V4.09637Z" fill="#B8B9BB"/>
<path d="M75.5327 4.00189H78.0693L83.4419 16.6062H80.6059L79.44 13.7702H74.162L72.9961 16.6062H70.1602L75.5327 4.00189ZM78.4632 11.4227L76.8089 7.32627L75.1546 11.4227H78.4632Z" fill="#B8B9BB"/>
<path d="M86.3691 4.09637H88.9058L94.7667 11.8165V4.09637H97.5082V16.6061H95.1606L89.0948 8.68118V16.6061H86.3691V4.09637Z" fill="#B8B9BB"/>
<path d="M107.465 16.7951C106.583 16.7951 105.701 16.6061 104.929 16.3067C103.369 15.6293 102.187 14.4476 101.51 12.8878C101.211 12.1001 101.021 11.2335 101.021 10.3512C101.021 8.69691 101.699 7.02685 102.881 5.76642C103.464 5.18347 104.157 4.69505 104.929 4.3957C105.811 4.00182 106.693 3.90729 107.56 3.90729C108.048 3.90729 108.631 3.90729 109.12 4.00182C109.608 4.09635 110.002 4.19088 110.396 4.3957C110.79 4.58477 111.184 4.78959 111.467 4.97865C111.767 5.16772 112.145 5.46707 112.444 5.76642L110.79 7.81461C110.301 7.42073 109.813 7.02684 109.325 6.74325C108.836 6.45965 108.253 6.34936 107.67 6.34936C107.182 6.34936 106.693 6.44389 106.205 6.64871C105.717 6.83778 105.323 7.13713 105.039 7.53101C104.755 7.9249 104.456 8.31878 104.251 8.8072C104.062 9.29561 103.952 9.78402 103.952 10.2724C103.952 10.7609 104.047 11.3438 104.251 11.8322C104.456 12.3206 104.645 12.7145 105.039 13.1084C105.717 13.8962 106.693 14.2743 107.67 14.2743C108.253 14.2743 108.946 14.1798 109.529 13.8804C110.018 13.5811 110.601 13.2029 110.995 12.809L112.743 14.5579C112.444 14.8572 112.066 15.2354 111.767 15.5347C111.373 15.8341 110.979 16.0231 110.601 16.2122C110.207 16.4013 109.718 16.6061 109.23 16.7006C108.537 16.7951 107.954 16.7951 107.465 16.7951Z" fill="#B8B9BB"/>
<path d="M115.879 4.09637H125.253V6.53845H118.51V9.07506H124.466V11.5171H118.51V14.164H125.348V16.6061H115.879V4.09637Z" fill="#B8B9BB"/>
<path d="M38.4917 28.911C37.8142 28.911 37.121 28.8164 36.538 28.5171C35.9551 28.328 35.3721 27.9341 34.7734 27.4457L35.7503 26.3744C36.1441 26.7682 36.538 26.9573 37.0264 27.2567C37.5149 27.4457 38.0033 27.556 38.4917 27.556C38.8856 27.556 39.2795 27.4615 39.6576 27.2567C39.9569 27.0676 40.0515 26.7682 40.0515 26.4689C40.0515 26.3744 40.0515 26.1695 39.9569 26.075C39.8624 25.9805 39.7679 25.7757 39.6576 25.6811C39.4685 25.5866 39.2637 25.4921 39.0746 25.3818C38.7753 25.2872 38.3972 25.1927 38.0978 25.0824C37.7039 24.9879 37.2155 24.8934 36.8216 24.6885C36.5223 24.594 36.1442 24.3892 35.9393 24.2001C35.7503 24.0111 35.5454 23.8062 35.3564 23.5226C35.1673 23.1288 35.1673 22.7349 35.1673 22.4513C35.1673 22.0574 35.2618 21.7738 35.3564 21.3799C35.4509 21.0806 35.7503 20.797 35.9393 20.5921C36.2387 20.4031 36.5223 20.1983 36.9162 20.1037C37.31 20.0092 37.7039 19.9147 38.0821 19.9147C38.665 19.9147 39.2479 20.0092 39.8467 20.214C40.3351 20.4031 40.8235 20.7024 41.3119 21.0018L40.5241 22.1677C40.1302 21.8683 39.7364 21.6793 39.3582 21.4902C38.9644 21.3011 38.5705 21.3011 38.1923 21.3011C37.7985 21.3011 37.4046 21.3957 37.121 21.6005C36.9319 21.7896 36.7271 22.0889 36.7271 22.3883C36.7271 22.5773 36.7271 22.6876 36.8216 22.8767C36.9162 22.9712 37.0107 23.176 37.121 23.2706C37.31 23.3651 37.5149 23.4596 37.7985 23.5699C38.0978 23.6644 38.3814 23.759 38.8698 23.8693C39.2637 23.9638 39.6576 24.0583 40.146 24.2631C40.4454 24.3577 40.7289 24.5625 41.0283 24.7516C41.2174 24.9406 41.4222 25.24 41.5167 25.429C41.6112 25.7284 41.7058 26.012 41.7058 26.4059C41.7058 26.7998 41.6112 27.1936 41.5167 27.4772C41.3277 27.7766 41.1228 28.0602 40.8392 28.3595C40.5399 28.5486 40.2563 28.7534 39.8624 28.8479C39.374 28.8164 38.8856 28.911 38.4917 28.911Z" fill="#B8B9BB"/>
<path d="M43.3789 20.025H45.049L47.6801 24.1213L50.4215 20.025H52.0758V28.8164H50.5161V22.467L47.7746 26.5634H47.6801L44.9544 22.467V28.8164H43.3789V20.025Z" fill="#B8B9BB"/>
<path d="M57.3478 19.9304H58.8131L62.6259 28.7219H60.9715L60.0892 26.5792H55.9929L55.1106 28.7219H53.5508L57.3478 19.9304ZM59.6008 25.303L58.041 21.7895L56.5758 25.303H59.6008Z" fill="#B8B9BB"/>
<path d="M64.1883 20.025H68.0956C68.584 20.025 69.0724 20.1195 69.5609 20.214C69.9547 20.3086 70.3486 20.6079 70.6322 20.8915C70.8213 21.0806 71.0261 21.3799 71.2152 21.7738C71.3097 22.0732 71.4042 22.4513 71.4042 22.8452C71.4042 23.1445 71.3097 23.5226 71.2152 23.822C71.1206 24.1213 70.9158 24.3104 70.8213 24.6098C70.6322 24.7988 70.4274 25.0036 70.1438 25.1927C69.8444 25.3818 69.5608 25.4921 69.2615 25.5866L71.609 28.911H69.7499L67.6072 25.8859H65.6535V28.911H64.0938L64.1883 20.025ZM68.0011 24.3262C68.4895 24.3262 68.9779 24.2316 69.2772 23.9323C69.5766 23.6329 69.7657 23.2548 69.7657 22.8609C69.7657 22.467 69.5766 22.0732 69.2772 21.7896C68.8834 21.4902 68.395 21.3957 67.9065 21.3957H65.6535V24.3262H68.0011Z" fill="#B8B9BB"/>
<path d="M75.4219 21.3957H72.5859V20.025H79.7231V21.3957H76.8871V28.8164H75.3274L75.4219 21.3957Z" fill="#B8B9BB"/>
<path d="M89.2068 28.911C88.6238 28.911 88.0409 28.8164 87.4422 28.5171C86.3708 28.0287 85.4885 27.2409 85.0947 26.1695C84.9056 25.5866 84.7008 25.0036 84.7953 24.4049C84.7953 23.822 84.8898 23.239 85.0947 22.6403C85.4885 21.569 86.3708 20.6867 87.4422 20.1983C88.0252 20.0092 88.6081 19.8044 89.3013 19.8044C89.6952 19.8044 90.0891 19.8044 90.3727 19.8989C90.672 19.9934 90.9556 20.088 91.255 20.1983C91.5543 20.2928 91.7434 20.4976 92.0428 20.5921C92.2318 20.7812 92.5312 20.986 92.7202 21.1751L91.7434 22.341C91.4441 22.0416 91.0659 21.758 90.672 21.5532C90.2782 21.3642 89.7897 21.2539 89.3013 21.2539C88.9074 21.2539 88.5136 21.3484 88.1354 21.4429C87.7415 21.632 87.458 21.8368 87.1586 22.1204C86.8592 22.4198 86.6702 22.7034 86.5757 23.0972C86.4811 23.4911 86.3866 23.885 86.3866 24.2631C86.3866 24.657 86.4811 25.0509 86.5757 25.429C86.6702 25.8072 86.875 26.1065 87.1586 26.4059C87.458 26.7052 87.7415 26.8943 88.1354 27.0833C88.5293 27.2724 88.9232 27.3827 89.3013 27.2724C89.7897 27.2724 90.2782 27.1779 90.672 26.9731C91.0659 26.784 91.4598 26.4846 91.8379 26.0908L92.8148 27.0676C92.6257 27.2567 92.3264 27.556 92.1373 27.7451C91.8379 27.9341 91.6489 28.139 91.3495 28.2335C91.0502 28.328 90.7666 28.5328 90.3727 28.5328C89.9788 28.911 89.5849 28.911 89.2068 28.911Z" fill="#B8B9BB"/>
<path d="M94.375 20.025H95.8402V23.6329H100.047V20.025H101.607V28.8164H100.047V25.0982H95.8402V28.8164H94.375V20.025Z" fill="#B8B9BB"/>
<path d="M106.981 19.9304H108.446L112.259 28.7219H110.604L109.722 26.5792H105.626L104.743 28.7219H103.184L106.981 19.9304ZM109.139 25.303L107.674 21.7895L106.209 25.303H109.139Z" fill="#B8B9BB"/>
<path d="M113.814 20.025H115.39V28.8164H113.814V20.025Z" fill="#B8B9BB"/>
<path d="M117.725 20.025H119.095L123.79 26.075V20.025H125.35V28.8164H124.074L119.3 22.5616V28.8164H117.725V20.025Z" fill="#B8B9BB"/>
<path d="M17.7878 28.2335V32.0463L14.4634 34L11.2335 32.0463V28.2335L14.4634 30.1872L17.7878 28.2335ZM0 15.0463L3.22984 17V23.5385L8.79147 26.8628V30.6756L0 25.4921V15.0463V15.0463ZM28.9268 15.0463V25.5079L20.0408 30.6914V26.8786L25.6024 23.5542V17.0158L28.9268 15.0463ZM20.025 9.86284L23.3494 11.8165V15.6293L17.7878 18.9537V25.5867L14.5579 27.5403L11.3438 25.5867V18.9379L5.57739 15.6135V11.8007L8.90176 9.84708L14.4634 13.1715L20.025 9.86284ZM5.57739 18.355L8.80723 20.3086V24.1214L5.57739 22.1677V18.355ZM23.3494 18.355V22.1677L20.1196 24.1214V20.3086L23.3494 18.355ZM3.22984 6.53846L6.55422 8.49212L3.22984 10.4458V14.2586L0 12.3049V8.49212L3.22984 6.53846ZM25.6969 6.53846L29.0213 8.49212V12.3049L25.6969 14.2586V10.4458L22.4671 8.49212L25.6969 6.53846ZM14.4634 6.53846L17.7878 8.49212L14.4634 10.4458L11.2335 8.49212L14.4634 6.53846ZM14.4634 0L23.3494 5.1835L20.1196 7.13716L14.5579 3.81279L8.88601 7.13716L5.65616 5.1835L14.4634 0Z" fill="#B8B9BB"/>
</svg>
