<svg width="68" height="68" viewBox="0 0 68 68" fill="none" xmlns="http://www.w3.org/2000/svg">
<g clip-path="url(#clip0_2048_1180)">
<path d="M58.16 57.0207C45.3097 70.5294 23.9437 71.0392 10.4306 58.1931C-3.03157 45.3471 -3.5415 23.988 9.35971 10.4793C22.2099 -3.0294 43.576 -3.53916 57.0891 9.30686C70.5512 22.2039 71.0102 43.5629 58.16 57.0207Z" fill="white"/>
<path d="M30.4478 40.1147L31.0737 37.6909C31.0737 37.6173 31.037 37.5436 30.9635 37.5436H19.1102C19.0352 37.5436 19 37.4699 19 37.3963L25.1103 15.0737C25.1103 15.0376 25.1853 15 25.2205 15H31.8091C36.2627 15 39.0604 16.1935 40.7905 17.8938C41.6409 18.7667 42.3014 19.8007 42.7317 20.9326C43.1621 22.0646 43.3532 23.2709 43.2936 24.4779C43.298 25.8309 43.0741 27.1752 42.6309 28.4562C42.2681 29.5553 41.7343 30.5927 41.0484 31.5312C41.0117 31.6049 41.0484 31.7125 41.1234 31.7125H49.8852C49.9076 31.71 49.9302 31.7149 49.9495 31.7262C49.9688 31.7375 49.9839 31.7547 49.9924 31.7752C50.0009 31.7957 50.0023 31.8184 49.9965 31.8398C49.9907 31.8612 49.9779 31.8801 49.9602 31.8937L27.0212 53.9702C27.0035 53.9866 26.9808 53.9968 26.9567 53.9994C26.9325 54.0019 26.9082 53.9967 26.8874 53.9845C26.8665 53.9722 26.8503 53.9536 26.8412 53.9315C26.832 53.9094 26.8305 53.885 26.8367 53.8619L30.4478 40.1147Z" fill="url(#paint0_radial_2048_1180)"/>
</g>
<defs>
<radialGradient id="paint0_radial_2048_1180" cx="0" cy="0" r="1" gradientUnits="userSpaceOnUse" gradientTransform="translate(30.2093 40.467) scale(31.9424 31.395)">
<stop stop-color="#41BEF0"/>
<stop offset="0.469" stop-color="#828CBE"/>
<stop offset="0.54" stop-color="#8F80AE"/>
<stop offset="0.794" stop-color="#BC5A79"/>
<stop offset="0.917" stop-color="#CD4B64"/>
</radialGradient>
<clipPath id="clip0_2048_1180">
<rect width="67.5" height="67.5" fill="white"/>
</clipPath>
</defs>
</svg>
