<svg width="68" height="68" viewBox="0 0 68 68" fill="none" xmlns="http://www.w3.org/2000/svg">
<g clip-path="url(#clip0_2045_765)">
<path d="M33.7483 0C52.3875 0 67.4966 15.1091 67.4966 33.7483C67.4966 52.3875 52.3875 67.4966 33.7483 67.4966C15.1091 67.4966 0 52.3875 0 33.7483C0 15.1091 15.1091 0 33.7483 0Z" fill="#23292F"/>
<path d="M45.1163 40.4224C44.4413 40.4004 43.601 40.2047 41.0918 39.2699L44.6151 17.9038L49.6605 18.0219L45.1163 40.4224Z" fill="#00F3AB"/>
<path d="M34.3128 37.4677L33.5467 34.9804L32.8212 37.5824C31.7226 37.7731 30.668 38.1832 29.3535 38.7265L32.3149 28.5514L35.0317 28.4839L38.1213 38.2C36.5723 37.709 35.3742 37.4862 34.3128 37.4677Z" fill="#00F3AB"/>
<path d="M22.2914 40.8288L17.8535 17.583L22.2745 17.7011L26.6787 39.7945C24.6167 40.5268 23.1621 40.763 22.2914 40.8288Z" fill="#00F3AB"/>
<path d="M27.3447 43.1371L27.64 44.6153L28.1699 42.7962C28.1901 42.8317 28.2104 42.8688 28.2306 42.911C29.7831 43.0966 30.7719 42.9548 31.3777 42.7642L29.3949 49.88L24.029 49.9306L23.0098 44.5967C25.5881 44.3267 26.8604 43.5319 27.3447 43.1371Z" fill="#00F3AB"/>
<path d="M39.6375 42.9636L40.1944 44.7168L40.4559 43.1273C42.1079 43.4884 43.6013 43.9963 44.337 44.2646L43.2317 49.7115L38.0683 49.6608L35.959 42.8134C37.0457 42.6295 38.3585 42.7358 39.6375 42.9636Z" fill="#00F3AB"/>
</g>
<defs>
<clipPath id="clip0_2045_765">
<rect width="67.5" height="67.4983" fill="white"/>
</clipPath>
</defs>
</svg>
