<svg width="68" height="68" viewBox="0 0 68 68" fill="none" xmlns="http://www.w3.org/2000/svg">
<g clip-path="url(#clip0_2047_995)">
<path d="M33.75 67.5C52.3896 67.5 67.5 52.3896 67.5 33.75C67.5 15.1104 52.3896 0 33.75 0C15.1104 0 0 15.1104 0 33.75C0 52.3896 15.1104 67.5 33.75 67.5Z" fill="white"/>
<path fill-rule="evenodd" clip-rule="evenodd" d="M17.34 32.944C14.0369 29.4198 12.5329 26.1905 13.6715 24.2442C14.9074 22.1378 18.9585 22.0014 24.2142 23.5055C24.5109 21.8015 24.9105 20.1172 25.4108 18.4616C18.9648 16.8791 13.8283 17.4484 12.0623 20.4581C10.2728 23.5086 12.3603 28.358 17.0184 33.2781C17.1219 33.1651 17.2317 33.0538 17.34 32.944Z" fill="url(#paint0_linear_2047_995)"/>
<path opacity="0.3" fill-rule="evenodd" clip-rule="evenodd" d="M24.2174 23.502C24.5141 21.7981 24.9138 20.1137 25.4141 18.4581C24.7146 18.2877 24.0318 18.1418 23.3658 18.0205C22.8312 19.6402 22.3985 21.2918 22.0703 22.9656C22.7594 23.112 23.4751 23.2908 24.2174 23.502Z" fill="#231F20"/>
<path opacity="0.3" fill-rule="evenodd" clip-rule="evenodd" d="M17.0219 33.2747C17.127 33.1649 17.2321 33.0535 17.3356 32.9437C17.1975 32.7948 17.0627 32.6489 16.9309 32.5015C16.8196 32.6097 16.7098 32.7195 16.6016 32.8277C16.7427 32.9767 16.8807 33.1257 17.0219 33.2747Z" fill="#231F20"/>
<path fill-rule="evenodd" clip-rule="evenodd" d="M46.9415 36.915C50.6837 40.6933 52.4591 44.208 51.2451 46.2783C50.1473 48.1399 46.8631 48.463 42.4889 47.4749C42.4387 47.6537 42.3885 47.831 42.332 48.0066C48.7357 49.5625 53.833 48.9837 55.5895 45.9881C57.3461 42.9925 55.3339 38.187 50.7778 33.3203C49.5722 34.5943 48.2911 35.7948 46.9415 36.915V36.915Z" fill="url(#paint1_linear_2047_995)"/>
<path opacity="0.3" fill-rule="evenodd" clip-rule="evenodd" d="M42.4889 47.4751C42.4387 47.6539 42.3885 47.8311 42.332 48.0068L42.5297 48.0523C42.5845 47.8766 42.6363 47.6994 42.6865 47.5206L42.4889 47.4751Z" fill="#231F20"/>
<path opacity="0.3" fill-rule="evenodd" clip-rule="evenodd" d="M50.7824 33.3203C49.5753 34.5945 48.2926 35.7949 46.9414 36.915C47.3941 37.373 47.8171 37.8252 48.2102 38.2717C49.5512 37.1634 50.821 35.9717 52.012 34.7036C51.6262 34.2436 51.2163 33.7825 50.7824 33.3203Z" fill="#231F20"/>
<path fill-rule="evenodd" clip-rule="evenodd" d="M24.9905 46.9227C24.9898 46.9117 24.9898 46.9007 24.9905 46.8897C24.9403 46.7015 24.8932 46.5117 24.8446 46.3204C24.8446 46.2969 24.8336 46.2749 24.8289 46.2514C24.7819 46.06 24.7364 45.8687 24.6925 45.6742L24.6831 45.6397C24.4886 44.7876 24.314 43.9072 24.1592 42.9986C19.0463 44.3991 15.1269 44.2172 13.9193 42.1469C12.2286 39.2486 16.3895 33.5365 23.6056 28.2448C23.626 28.0111 23.6479 27.7743 23.6715 27.5469C14.6188 34.087 9.55604 41.8191 12.0404 46.082C13.7938 49.0902 18.9067 49.6783 25.334 48.1209C25.2085 47.7319 25.0971 47.3304 24.9905 46.9227Z" fill="url(#paint2_linear_2047_995)"/>
<path opacity="0.3" fill-rule="evenodd" clip-rule="evenodd" d="M24.9909 46.9226C24.9902 46.9117 24.9902 46.9007 24.9909 46.8897C24.9407 46.7015 24.8937 46.5117 24.845 46.3204C24.845 46.2968 24.8341 46.2749 24.8294 46.2514C24.7823 46.06 24.7368 45.8687 24.6929 45.6742L24.6835 45.6397C24.489 44.7875 24.3144 43.9072 24.1597 42.9985C23.4131 43.2024 22.6917 43.3718 22 43.5083C22.3171 45.2148 22.7403 46.8999 23.2672 48.5537C23.9364 48.4366 24.6229 48.2929 25.3265 48.1224C25.2089 47.7319 25.0976 47.3304 24.9909 46.9226Z" fill="#231F20"/>
<path opacity="0.3" fill-rule="evenodd" clip-rule="evenodd" d="M23.5982 28.2448C23.6185 28.0111 23.6405 27.7743 23.664 27.5469C22.8108 28.1617 21.9953 28.7864 21.2174 29.4211C21.2001 29.6579 21.1844 29.8916 21.1719 30.1363C21.9362 29.5037 22.745 28.8732 23.5982 28.2448Z" fill="#231F20"/>
<path fill-rule="evenodd" clip-rule="evenodd" d="M55.6286 20.6635C53.8689 17.6459 48.7278 17.064 42.2676 18.6371C42.3115 18.783 42.3538 18.9304 42.3962 19.0794C46.968 17.9957 50.4216 18.2952 51.5399 20.2086C53.0345 22.7729 49.9574 27.5314 44.2406 32.2569C44.2406 32.649 44.2516 33.0411 44.2516 33.4379C44.2516 33.6732 44.2516 33.9085 44.2516 34.1406C44.2516 34.2127 44.2516 34.2849 44.2516 34.357C44.2516 34.5139 44.2516 34.6817 44.2437 34.8416C44.2437 34.9232 44.2437 34.9985 44.2437 35.0847C44.2437 35.2405 44.239 35.3942 44.2296 35.5458L44.2202 35.7842L44.2014 36.2547C44.2014 36.3285 44.1936 36.4006 44.1904 36.4743C44.1826 36.6421 44.1732 36.81 44.1638 36.9778C44.1638 37.0358 44.1559 37.0938 44.1528 37.1519C44.1402 37.3542 44.1277 37.5565 44.1136 37.7573V37.8231C44.0791 38.2926 44.0399 38.7574 43.9959 39.2174C53.0377 32.671 58.1145 24.9279 55.6286 20.6635Z" fill="url(#paint3_linear_2047_995)"/>
<path opacity="0.3" fill-rule="evenodd" clip-rule="evenodd" d="M42.3962 19.0796L42.5969 19.0325C42.553 18.8851 42.5075 18.7377 42.4605 18.5918C42.3962 18.6059 42.3319 18.62 42.2676 18.6373C42.3115 18.7831 42.3538 18.9306 42.3962 19.0796V19.0796Z" fill="#231F20"/>
<path opacity="0.3" fill-rule="evenodd" clip-rule="evenodd" d="M44.5486 31.9995L44.2349 32.2567C44.2349 32.6488 44.2459 33.0409 44.2459 33.4377C44.2459 33.673 44.2459 33.9082 44.2459 34.1404C44.2459 34.2125 44.2459 34.2846 44.2459 34.3568C44.2459 34.5136 44.2459 34.6814 44.238 34.8414C44.238 34.923 44.238 34.9983 44.238 35.0845C44.238 35.2403 44.2333 35.394 44.2239 35.5456L44.2145 35.784L44.1957 36.2545C44.1957 36.3282 44.1878 36.4004 44.1847 36.4741C44.1769 36.6419 44.1675 36.8097 44.1581 36.9776C44.1581 37.0356 44.1502 37.0936 44.1471 37.1516C44.1345 37.354 44.122 37.5563 44.1079 37.757V37.8229C44.0734 38.2924 44.0341 38.7571 43.9902 39.2172L44.3039 38.9835C44.4796 37.1971 44.5721 35.3433 44.5721 33.4393C44.569 32.9547 44.5596 32.4763 44.5486 31.9995Z" fill="#231F20"/>
<path fill-rule="evenodd" clip-rule="evenodd" d="M33.8145 8.20557C28.0492 8.20557 23.377 19.4979 23.377 33.4377C23.377 47.3775 28.0492 58.6714 33.8145 58.6714C39.5799 58.6714 44.2553 47.3743 44.2553 33.4377C44.2553 19.501 39.5783 8.20557 33.8145 8.20557ZM36.2659 55.3668C32.1442 55.3668 28.8051 45.6162 28.8051 33.5882C28.8051 21.5603 32.1442 11.8113 36.2659 11.8113C40.3876 11.8113 43.7267 21.5619 43.7267 33.5882C43.7267 45.6146 40.3861 55.3668 36.2659 55.3668Z" fill="url(#paint4_linear_2047_995)"/>
</g>
<defs>
<linearGradient id="paint0_linear_2047_995" x1="8.68876" y1="13.6905" x2="43.3751" y2="47.3997" gradientUnits="userSpaceOnUse">
<stop stop-color="#70A1D4"/>
<stop offset="0.31" stop-color="#447FC2"/>
<stop offset="0.66" stop-color="#3E74AF"/>
<stop offset="1" stop-color="#265281"/>
</linearGradient>
<linearGradient id="paint1_linear_2047_995" x1="4.47291" y1="6.07598" x2="58.3719" y2="50.3686" gradientUnits="userSpaceOnUse">
<stop stop-color="#70A1D4"/>
<stop offset="0.31" stop-color="#447FC2"/>
<stop offset="0.83" stop-color="#3E74AF"/>
<stop offset="1" stop-color="#265281"/>
</linearGradient>
<linearGradient id="paint2_linear_2047_995" x1="62.078" y1="16.5949" x2="7.77906" y2="47.2803" gradientUnits="userSpaceOnUse">
<stop offset="0.07" stop-color="#FDE976"/>
<stop offset="0.58" stop-color="#FFE73F"/>
<stop offset="1" stop-color="#BBA312"/>
</linearGradient>
<linearGradient id="paint3_linear_2047_995" x1="63.7795" y1="10.6854" x2="27.8918" y2="42.7056" gradientUnits="userSpaceOnUse">
<stop offset="0.31" stop-color="#FDE976"/>
<stop offset="0.58" stop-color="#FFE73F"/>
<stop offset="1" stop-color="#BBA312"/>
</linearGradient>
<linearGradient id="paint4_linear_2047_995" x1="34.1517" y1="57.2002" x2="33.5542" y2="15.199" gradientUnits="userSpaceOnUse">
<stop offset="0.09" stop-color="#CC296B"/>
<stop offset="0.57" stop-color="#FF3387"/>
<stop offset="1" stop-color="#FF87B9"/>
</linearGradient>
<clipPath id="clip0_2047_995">
<rect width="67.5" height="67.5" fill="white"/>
</clipPath>
</defs>
</svg>
