<svg width="68" height="68" viewBox="0 0 68 68" fill="none" xmlns="http://www.w3.org/2000/svg">
<g clip-path="url(#clip0_2047_1068)">
<path d="M58.16 57.0207C45.3097 70.5294 23.9437 71.0392 10.4306 58.1931C-3.03157 45.3471 -3.5415 23.988 9.35971 10.4793C22.2099 -3.0294 43.576 -3.53916 57.0891 9.30686C70.5512 22.2039 71.0102 43.5629 58.16 57.0207Z" fill="black"/>
<path fill-rule="evenodd" clip-rule="evenodd" d="M49.8043 17.9882C47.1728 15.3294 43.8221 14 39.7798 14H23.1895V24.4452V30.0185C26.8078 31.1676 29.4294 34.5542 29.4294 38.553C29.4294 42.5519 26.8078 45.9384 23.1895 47.0877V53H32.2103V42.1885H39.7933C43.8358 42.1885 47.1863 40.8592 49.818 38.2003C52.4496 35.5416 53.7791 32.1774 53.7791 28.0943C53.7791 24.0111 52.4496 20.647 49.8043 17.9882ZM42.8726 32.9506C41.706 34.2122 40.2138 34.8497 38.3825 34.8497H32.1968V21.3659H38.3825C40.2003 21.3659 41.6923 22.0035 42.8726 23.265C44.0393 24.5266 44.6225 26.1409 44.6225 28.1078C44.6361 30.0748 44.0393 31.689 42.8726 32.9506Z" fill="white"/>
<path d="M19.5363 45.1561C23.1462 45.1561 26.0726 42.2298 26.0726 38.6198C26.0726 35.0099 23.1462 32.0835 19.5363 32.0835C15.9264 32.0835 13 35.0099 13 38.6198C13 42.2298 15.9264 45.1561 19.5363 45.1561Z" fill="#FF3465"/>
</g>
<defs>
<clipPath id="clip0_2047_1068">
<rect width="67.5" height="67.5" fill="white"/>
</clipPath>
</defs>
</svg>
