<svg width="68" height="68" viewBox="0 0 68 68" fill="none" xmlns="http://www.w3.org/2000/svg">
<path d="M34 67.75C52.6396 67.75 67.75 52.6396 67.75 34C67.75 15.3604 52.6396 0.25 34 0.25C15.3604 0.25 0.25 15.3604 0.25 34C0.25 52.6396 15.3604 67.75 34 67.75Z" fill="#0F1319"/>
<path d="M31.19 15.4424V26.6879L25.5605 32.3174V21.0719L31.19 15.4424Z" fill="white"/>
<path d="M48.0651 37.9439C48.0651 40.9282 46.8796 43.7902 44.7694 45.9004C42.6592 48.0106 39.797 49.1961 36.8127 49.1961C33.8285 49.1961 30.9665 48.0106 28.8563 45.9004C26.7461 43.7902 25.5605 40.9282 25.5605 37.9439V32.3076H31.1901V37.9372C31.1901 39.4302 31.7831 40.8621 32.8389 41.9178C33.8946 42.9735 35.3265 43.5666 36.8195 43.5666C38.3125 43.5666 39.7445 42.9735 40.8003 41.9178C41.856 40.8621 42.4491 39.4302 42.4491 37.9372L48.0651 37.9439Z" fill="white"/>
<path d="M48.065 26.6895L42.4355 32.319H25.5605L31.19 26.6895H48.065Z" fill="#00E8B5"/>
</svg>
