<svg width="68" height="68" viewBox="0 0 68 68" fill="none" xmlns="http://www.w3.org/2000/svg">
<g clip-path="url(#clip0_2047_1021)">
<path d="M58.16 57.0207C45.3097 70.5294 23.9437 71.0392 10.4306 58.1931C-3.03157 45.3471 -3.5415 23.988 9.35971 10.4793C22.2099 -3.0294 43.576 -3.53916 57.0891 9.30686C70.5512 22.2039 71.0102 43.5629 58.16 57.0207Z" fill="white"/>
<g clip-path="url(#clip1_2047_1021)">
<path fill-rule="evenodd" clip-rule="evenodd" d="M35.7347 27.9714L19.9433 43.4273C19.9026 43.4675 19.8731 43.5173 19.8578 43.5718C19.8424 43.6264 19.8417 43.6838 19.8556 43.7387C19.8696 43.7937 19.8977 43.8441 19.9374 43.8853C19.9771 43.9264 20.0269 43.9569 20.0821 43.9738C22.9484 44.8379 28.5632 44.101 34.9962 42.8957C39.2375 42.1011 43.2356 40.6468 45.9026 38.0357C49.0577 34.9484 50.325 31.0564 47.1707 27.9659C45.6543 26.4832 43.5986 25.6504 41.4551 25.6504C39.3117 25.6504 37.2559 26.4832 35.7395 27.9659L35.7347 27.9714Z" fill="#FE0000"/>
<path fill-rule="evenodd" clip-rule="evenodd" d="M28.3105 35.2342C32.1611 31.4647 41.104 19.388 47.0648 21.6291C52.3286 23.6064 48.6655 33.897 48.6655 33.897C48.6655 33.897 34.1215 35.2342 28.3105 35.2342Z" fill="#FE0000"/>
<path fill-rule="evenodd" clip-rule="evenodd" d="M33.1634 30.4668L14 49.2239L14.835 49.686C15.3205 49.9542 15.884 50.0549 16.4351 49.9721C16.9861 49.8893 17.4927 49.6277 17.8737 49.2293L34.5264 31.8024L33.1634 30.4676V30.4668Z" fill="#810604"/>
<path fill-rule="evenodd" clip-rule="evenodd" d="M49.5714 23.8904C48.6941 22.4346 45.622 18.1085 39.2552 18C39.2323 17.9998 39.2099 18.0059 39.1903 18.0174C39.1707 18.029 39.1548 18.0457 39.1443 18.0656C39.1342 18.0857 39.13 18.1081 39.1321 18.1305C39.1342 18.1528 39.1426 18.1741 39.1563 18.192C39.7034 18.9609 41.4628 21.9007 38.6953 24.6086L48.1191 34.2365L50.3148 27.2962L49.5714 23.8904Z" fill="#FE0000"/>
<path fill-rule="evenodd" clip-rule="evenodd" d="M49.4913 30.762C49.4913 30.762 48.4322 30.9299 48.3205 30.1032C47.6873 25.4048 45.3505 27.0901 44.2578 23.39C43.9268 22.2706 48.9633 22.9787 48.9633 22.9787C48.9633 22.9787 50.308 24.5734 50.3112 26.4742C50.3112 28.4062 49.4913 30.7628 49.4913 30.7628V30.762Z" fill="black"/>
<path fill-rule="evenodd" clip-rule="evenodd" d="M49.5316 23.8327C50.9018 24.33 51.6052 24.7249 52.9268 25.5438C52.9476 25.5568 52.9651 25.5743 52.9778 25.595C52.9906 25.6158 52.9982 25.6391 53.0001 25.6632C53.0016 25.6873 52.9973 25.7114 52.9876 25.7337C52.9779 25.7559 52.9631 25.7756 52.9443 25.7912C52.0192 26.557 51.1977 27.201 50.2885 27.5234C49.2038 27.3282 48.167 26.6647 48.0498 25.9208C47.9357 25.1956 48.963 24.4744 49.5324 23.8296L49.5316 23.8327Z" fill="#B90404"/>
<path fill-rule="evenodd" clip-rule="evenodd" d="M33.8585 37.4512L20.7269 24.5986C20.6927 24.5652 20.6679 24.5238 20.6549 24.4783C20.6419 24.4327 20.6411 24.3847 20.6527 24.3388C20.6642 24.293 20.6877 24.2508 20.7208 24.2164C20.754 24.182 20.7956 24.1566 20.8418 24.1427C23.2256 23.4237 28.8714 23.0631 34.2174 24.0646C37.7441 24.7258 41.1457 25.9771 43.3637 28.148C43.9878 28.7588 44.4829 29.484 44.8206 30.2821C45.1584 31.0803 45.3322 31.9357 45.3322 32.7996C45.3322 33.6634 45.1584 34.5189 44.8206 35.317C44.4829 36.1151 43.9878 36.8403 43.3637 37.4512C42.7395 38.062 41.9986 38.5466 41.1832 38.8772C40.3677 39.2078 39.4937 39.3779 38.6111 39.3779C37.7284 39.3779 36.8545 39.2078 36.039 38.8772C35.2236 38.5466 34.4826 38.062 33.8585 37.4512V37.4512Z" fill="#AE0707"/>
<path fill-rule="evenodd" clip-rule="evenodd" d="M36.5441 30.7744C36.9533 30.374 37.4746 30.1014 38.042 29.991C38.6095 29.8806 39.1976 29.9373 39.7321 30.1541C40.2666 30.3708 40.7235 30.7378 41.0449 31.2086C41.3663 31.6795 41.5378 32.233 41.5378 32.7993C41.5378 33.3656 41.3663 33.9191 41.0449 34.3899C40.7235 34.8608 40.2666 35.2278 39.7321 35.4445C39.1976 35.6612 38.6095 35.718 38.042 35.6076C37.4746 35.4972 36.9533 35.2245 36.5441 34.8242C36.1119 34.4011 35.2178 33.4683 34.7895 33.0218C34.7258 32.9549 34.6907 32.8666 34.6914 32.7751C34.6922 32.6836 34.7287 32.5959 34.7935 32.53C35.225 32.0928 36.1238 31.1842 36.5425 30.7744H36.5441Z" fill="#FE0000"/>
</g>
</g>
<defs>
<clipPath id="clip0_2047_1021">
<rect width="67.5" height="67.5" fill="white"/>
</clipPath>
<clipPath id="clip1_2047_1021">
<rect width="39" height="32" fill="white" transform="translate(14 18)"/>
</clipPath>
</defs>
</svg>
