<svg width="68" height="68" viewBox="0 0 68 68" fill="none" xmlns="http://www.w3.org/2000/svg">
<g clip-path="url(#clip0_2047_1074)">
<path d="M58.16 57.0207C45.3097 70.5294 23.9437 71.0392 10.4306 58.1931C-3.03157 45.3471 -3.5415 23.988 9.35971 10.4793C22.2099 -3.0294 43.576 -3.53916 57.0891 9.30686C70.5512 22.2039 71.0102 43.5629 58.16 57.0207Z" fill="#D85111"/>
<path d="M43.6707 29.5256C44.7203 27.898 45.2776 25.989 45.2728 24.0379C45.2717 21.3789 44.2409 18.8292 42.407 16.9489C40.5732 15.0687 38.0862 14.0119 35.4927 14.0107H26.4409C25.0481 14.0123 23.7128 14.5803 22.7279 15.5901C21.743 16.5998 21.189 17.9689 21.1875 19.3969V52.6245H37.7561C40.4173 52.6249 43.0037 51.7216 45.1112 50.0555C47.2187 48.3894 48.7285 46.0545 49.4047 43.4156C50.0809 40.7766 49.8854 37.9824 48.8488 35.4694C47.8122 32.9564 45.9929 30.8663 43.6751 29.5256H43.6707ZM30.0646 15.504H35.4884C37.6767 15.5337 39.7655 16.4458 41.3028 18.0428C42.84 19.6399 43.7019 21.7934 43.7019 24.0372C43.7019 26.2809 42.84 28.4344 41.3028 30.0315C39.7655 31.6285 37.6767 32.5406 35.4884 32.5703H31.6914V19.3969C31.6914 19.3028 31.6914 19.2087 31.6914 19.1161C31.6914 19.0848 31.6914 19.0549 31.6914 19.0236C31.6914 18.9623 31.6914 18.8996 31.6768 18.8399C31.6623 18.7802 31.6681 18.7653 31.6638 18.7279C31.6594 18.6906 31.6506 18.6189 31.6434 18.5666C31.6361 18.5144 31.6288 18.4875 31.6215 18.4472C31.6142 18.4069 31.6055 18.3471 31.5953 18.2979C31.5851 18.2486 31.5764 18.2172 31.5676 18.1769C31.5589 18.1366 31.5472 18.0813 31.5341 18.0276C31.521 17.9738 31.5123 17.9454 31.5006 17.9051C31.489 17.8648 31.4759 17.814 31.4613 17.7692C31.4467 17.7244 31.4351 17.6886 31.422 17.6468C31.4089 17.605 31.3928 17.5602 31.3768 17.5169C31.3608 17.4736 31.3462 17.4362 31.3302 17.3959C31.3142 17.3556 31.2967 17.3108 31.2792 17.269C31.2618 17.2272 31.2458 17.1899 31.2268 17.151C31.2079 17.1122 31.1904 17.0689 31.1715 17.0271L31.1132 16.9121C31.0928 16.8718 31.0739 16.833 31.052 16.7927L30.988 16.6792L30.9224 16.5657L30.8525 16.4552L30.7812 16.3447C30.7578 16.3088 30.7316 16.273 30.7068 16.2372C30.6821 16.2013 30.6573 16.167 30.6311 16.1326C30.6049 16.0983 30.5787 16.0625 30.551 16.0281C30.5234 15.9938 30.4986 15.9609 30.4709 15.9281C30.4432 15.8952 30.4141 15.8609 30.385 15.8265L30.302 15.731L30.2117 15.6339L30.1243 15.5443L30.0646 15.504ZM39.8665 50.9133C39.1695 51.0584 38.46 51.1315 37.7488 51.1314H22.6396V19.3969C22.6591 18.3774 23.0677 17.4065 23.7778 16.6926C24.4879 15.9787 25.4427 15.5787 26.4373 15.5787C27.4318 15.5787 28.3867 15.9787 29.0967 16.6926C29.8068 17.4065 30.2155 18.3774 30.235 19.3969V34.0636H35.4884C37.2054 34.0635 38.8922 33.6 40.3791 32.7196C40.5029 32.645 40.6253 32.5703 40.7462 32.4882C40.7855 32.4643 40.8219 32.4374 40.8597 32.412C40.9433 32.3573 41.0248 32.3005 41.1044 32.2418L41.2326 32.1477C41.3083 32.093 41.3826 32.0362 41.4554 31.9775L41.5807 31.8774C41.6565 31.8162 41.7264 31.752 41.8036 31.6878L41.9113 31.5952C42.006 31.5101 42.0992 31.4235 42.1895 31.3354C42.2028 31.3242 42.2154 31.3122 42.2274 31.2995C42.3322 31.1995 42.4327 31.095 42.5332 30.989L42.6162 30.8979C42.6687 30.8397 42.7226 30.7814 42.7735 30.7232C44.6881 31.7812 46.2383 33.4181 47.2135 35.4113C48.1886 37.4044 48.5414 39.6572 48.2238 41.8631C47.9061 44.0691 46.9335 46.1213 45.4382 47.7406C43.943 49.3598 41.9975 50.4676 39.8665 50.9133Z" fill="white"/>
</g>
<defs>
<clipPath id="clip0_2047_1074">
<rect width="67.5" height="67.5" fill="white"/>
</clipPath>
</defs>
</svg>
