<svg width="68" height="68" viewBox="0 0 68 68" fill="none" xmlns="http://www.w3.org/2000/svg">
<g clip-path="url(#clip0_2046_789)">
<path d="M33.7483 0C52.3875 0 67.4966 15.1091 67.4966 33.7483C67.4966 52.3875 52.3875 67.4966 33.7483 67.4966C15.1091 67.4966 0 52.3875 0 33.7483C0 15.1091 15.1091 0 33.7483 0Z" fill="#F1F3F4"/>
<path d="M33.8265 44.9355C32.1718 44.9343 30.5328 44.613 28.9999 43.9891L20.9358 40.7192L16.9071 42.5132C15.8161 43.0001 15.3265 44.279 15.8133 45.3697C16.0403 45.8783 16.4546 46.2799 16.9701 46.4904L29.5786 51.9934C32.3163 53.1086 35.3808 53.1123 38.121 52.0036L50.786 46.5143C52.0829 45.989 52.7084 44.5116 52.183 43.2147C51.9256 42.579 51.4214 42.0751 50.786 41.8177L47.4219 40.4507L38.6249 43.9906C37.1013 44.6102 35.472 44.9312 33.8265 44.9355Z" fill="#0A2336"/>
<path d="M50.7929 31.4045L46.5096 29.6719L38.6299 32.8428C37.106 33.4583 35.4779 33.7756 33.834 33.7775C32.1793 33.7762 30.5403 33.4549 29.0074 32.831L21.8147 29.9147L16.9149 32.0963C15.8239 32.5832 15.3343 33.8621 15.8211 34.9528C16.0481 35.4614 16.4625 35.863 16.9779 36.0735L24.4953 39.1368L30.0494 41.445C32.468 42.4318 35.1762 42.4352 37.5976 41.4552L43.7226 38.9591L50.7941 36.0993C52.0904 35.5746 52.7156 34.0984 52.1908 32.8022C51.9338 32.1658 51.4292 31.6616 50.7929 31.4045Z" fill="#0A2336"/>
<path d="M50.7925 20.2323L36.682 14.5243C34.875 13.7928 32.8484 13.8281 31.0677 14.6217L16.913 20.9157C15.822 21.4026 15.3323 22.6815 15.8192 23.7725C16.0462 24.2811 16.4605 24.6824 16.9759 24.8932L25.3852 28.3188L30.0459 30.2836C32.4648 31.2701 35.1727 31.2738 37.5941 30.2939L42.7776 28.1581L50.7887 24.9119C52.0813 24.376 52.6947 22.8936 52.1588 21.6011C51.9027 20.9821 51.4111 20.49 50.7925 20.2323Z" fill="#0A2336"/>
</g>
<defs>
<clipPath id="clip0_2046_789">
<rect width="67.5" height="67.4983" fill="white"/>
</clipPath>
</defs>
</svg>
