<svg width="68" height="68" viewBox="0 0 68 68" fill="none" xmlns="http://www.w3.org/2000/svg">
<g clip-path="url(#clip0_2046_901)">
<path d="M58.16 57.0207C45.3097 70.5294 23.9437 71.0392 10.4306 58.1931C-3.03157 45.3471 -3.5415 23.988 9.35971 10.4793C22.2099 -3.0294 43.576 -3.53916 57.0891 9.30686C70.5512 22.2039 71.0102 43.5629 58.16 57.0207Z" fill="black"/>
<path d="M33.8 54.6C31.0984 54.6 28.4645 54.0883 25.9737 53.0761C23.3925 52.0301 21.0784 50.4912 19.0917 48.5082C17.1088 46.5215 15.5699 44.2075 14.5239 41.6263C13.5117 39.1354 13 36.5016 13 33.8C13 31.0984 13.5117 28.4645 14.5239 25.9737C15.5699 23.3925 17.1088 21.0784 19.0917 19.0917C21.0784 17.1051 23.3925 15.5699 25.9737 14.5239C28.4645 13.5117 31.0984 13 33.8 13C36.5016 13 39.1354 13.5117 41.6263 14.5239C44.2075 15.5699 46.5215 17.1088 48.5082 19.0917C50.4949 21.0784 52.0301 23.3925 53.0761 25.9737C54.0883 28.4645 54.6 31.0984 54.6 33.8C54.6 36.5016 54.0883 39.1354 53.0761 41.6263C52.0301 44.2075 50.4912 46.5215 48.5082 48.5082C46.5215 50.4949 44.2075 52.0301 41.6263 53.0761C39.1354 54.0883 36.5016 54.6 33.8 54.6ZM33.8 15.5097C28.9123 15.5097 24.3218 17.4136 20.864 20.8677C17.4061 24.3218 15.5097 28.9161 15.5097 33.8C15.5097 38.6839 17.4136 43.2781 20.8677 46.736C24.3218 50.1901 28.9161 52.094 33.8038 52.094C38.6914 52.094 43.2819 50.1901 46.7398 46.736C50.1939 43.2819 52.0978 38.6877 52.0978 33.8C52.0978 28.9123 50.1901 24.3218 46.736 20.8677C43.2819 17.4136 38.6877 15.5097 33.8 15.5097Z" fill="white"/>
<path d="M33.8003 43.9405C29.6689 43.9405 25.7859 42.3301 22.8623 39.4103C19.9387 36.4904 18.332 32.6036 18.332 28.4722C18.332 24.3408 19.9424 20.4577 22.8623 17.5342C25.7859 14.6106 29.6689 13.0039 33.8003 13.0039C37.9317 13.0039 41.8148 14.6143 44.7384 17.5342C47.662 20.454 49.2686 24.337 49.2686 28.4722C49.2686 32.6036 47.6582 36.4867 44.7384 39.4103C41.8186 42.3301 37.9317 43.9405 33.8003 43.9405ZM33.8003 15.5098C30.3387 15.5098 27.084 16.8569 24.6345 19.3064C22.185 21.7559 20.8417 25.0068 20.8417 28.4722C20.8417 31.9339 22.1888 35.1886 24.6383 37.638C27.0877 40.0875 30.3424 41.4346 33.8041 41.4346C37.2657 41.4346 40.5204 40.0875 42.9699 37.638C45.4194 35.1886 46.7665 31.9339 46.7665 28.4722C46.7665 25.0106 45.4194 21.7559 42.9699 19.3064C40.5204 16.8569 37.262 15.5098 33.8003 15.5098Z" fill="white"/>
<path d="M33.8018 43.9402C31.0926 43.9402 28.5491 42.8867 26.6339 40.9715C22.6793 37.0169 22.6793 30.5865 26.6339 26.6357C28.5491 24.7205 31.0964 23.667 33.8018 23.667C36.5109 23.667 39.0544 24.7205 40.9696 26.6357C44.9242 30.5903 44.9242 37.0207 40.9696 40.9715C39.0582 42.8829 36.5109 43.9402 33.8018 43.9402ZM33.8018 26.1692C31.7624 26.1692 29.8472 26.9631 28.4061 28.4042C25.4298 31.3804 25.4298 36.2192 28.4061 39.1955C29.8472 40.6366 31.7624 41.4305 33.8018 41.4305C35.8411 41.4305 37.7563 40.6366 39.1974 39.1955C42.1737 36.2192 42.1737 31.3804 39.1974 28.4042C37.7563 26.9631 35.8411 26.1692 33.8018 26.1692Z" fill="white"/>
<path d="M33.801 33.2768C32.5179 33.2768 31.3101 32.7764 30.4033 31.8696C29.4965 30.9628 28.9961 29.755 28.9961 28.4719C28.9961 27.1888 29.4965 25.981 30.4033 25.0742C31.3101 24.1674 32.5179 23.667 33.801 23.667C35.0841 23.667 36.2919 24.1674 37.1987 25.0742C38.1055 25.981 38.6059 27.1888 38.6059 28.4719C38.6059 29.755 38.1055 30.9628 37.1987 31.8696C36.2919 32.7764 35.0878 33.2768 33.801 33.2768ZM33.801 26.1692C33.1877 26.1692 32.6082 26.41 32.1755 26.8427C31.7428 27.2754 31.502 27.8548 31.502 28.4681C31.502 29.0815 31.7428 29.6609 32.1755 30.0936C32.6082 30.5263 33.1877 30.7671 33.801 30.7671C34.4143 30.7671 34.9938 30.5263 35.4265 30.0936C35.8592 29.6609 36.1 29.0815 36.1 28.4681C36.1 27.8548 35.8592 27.2754 35.4265 26.8427C34.9938 26.41 34.4181 26.1692 33.801 26.1692Z" fill="white"/>
</g>
<defs>
<clipPath id="clip0_2046_901">
<rect width="67.5" height="67.5" fill="white"/>
</clipPath>
</defs>
</svg>
