<svg width="68" height="68" viewBox="0 0 68 68" fill="none" xmlns="http://www.w3.org/2000/svg">
<g clip-path="url(#clip0_2046_802)">
<path d="M33.7483 0C52.3875 0 67.4966 15.1091 67.4966 33.7483C67.4966 52.3875 52.3875 67.4966 33.7483 67.4966C15.1091 67.4966 0 52.3875 0 33.7483C0 15.1091 15.1091 0 33.7483 0Z" fill="#F1F3F4"/>
<g clip-path="url(#clip1_2046_802)">
<path d="M43 49.8182V47.5455C43 47.247 42.9419 46.9515 42.8289 46.6756C42.7156 46.4 42.55 46.1496 42.3412 45.9384C42.1319 45.7273 41.884 45.56 41.6111 45.4458C41.338 45.3316 41.0454 45.2727 40.75 45.2727H31.7494C28.7657 45.2727 25.9042 44.0756 23.7944 41.9444C21.6846 39.8133 20.4993 36.923 20.4992 33.9091C20.4992 32.4168 20.7902 30.9392 21.3556 29.5604C21.921 28.1817 22.7497 26.929 23.7943 25.8738C24.839 24.8186 26.0792 23.9816 27.4441 23.4105C28.8091 22.8394 30.272 22.5455 31.7494 22.5455H40.7493C41.0447 22.5456 41.3375 22.4869 41.6106 22.3727C41.8835 22.2585 42.1319 22.0911 42.3407 21.8801C42.5498 21.669 42.7156 21.4184 42.8289 21.1427C42.9419 20.8669 43 20.5713 43 20.2728V18H31.7499C29.6816 18 27.6335 18.4115 25.7226 19.211C23.8117 20.0105 22.0755 21.1824 20.613 22.6597C19.1505 24.137 17.9903 25.8908 17.1988 27.821C16.4073 29.7512 16 31.82 16 33.9091C16 38.1284 17.6594 42.1751 20.613 45.1585C23.5667 48.1421 27.5728 49.8182 31.7499 49.8182H43Z" fill="#F54A48"/>
<path d="M25 33.9091C25 35.7174 25.7111 37.4516 26.977 38.7301C28.2428 40.0088 29.9596 40.7271 31.7498 40.7271H43.0007C44.1942 40.7271 45.3388 41.206 46.1826 42.0584C47.0265 42.9108 47.5007 44.0669 47.5007 45.2725V49.8182H52.0007V45.2727C52.0007 42.8618 51.0525 40.5495 49.3648 38.8445C47.6769 37.1397 45.3878 36.1819 43.0007 36.1819H31.7501C31.1534 36.1819 30.5811 35.9424 30.1591 35.5163C29.7371 35.09 29.5001 34.5119 29.5001 33.9091C29.5001 33.3064 29.7371 32.7283 30.1591 32.3021C30.5811 31.8758 31.1534 31.6364 31.7501 31.6364H43.0007C45.3878 31.6364 47.6769 30.6786 49.3648 28.9737C51.0525 27.2689 52.0007 24.9566 52.0007 22.5455V18H47.5V22.5455C47.5 23.7509 47.026 24.9069 46.1822 25.7593C45.3386 26.6117 44.194 27.0907 43.0007 27.0909H31.7501C30.8637 27.0908 29.9859 27.2672 29.1669 27.6098C28.3479 27.9524 27.6038 28.4547 26.977 29.0878C26.3501 29.7209 25.853 30.4726 25.5137 31.2999C25.1745 32.1271 25 33.0137 25 33.9091Z" fill="#F54A48"/>
</g>
</g>
<defs>
<clipPath id="clip0_2046_802">
<rect width="67.5" height="67.4983" fill="white"/>
</clipPath>
<clipPath id="clip1_2046_802">
<rect width="36" height="32" fill="white" transform="translate(16 18)"/>
</clipPath>
</defs>
</svg>
