<svg width="68" height="68" viewBox="0 0 68 68" fill="none" xmlns="http://www.w3.org/2000/svg">
<g clip-path="url(#clip0_2048_1156)">
<path d="M58.16 57.0207C45.3097 70.5294 23.9437 71.0392 10.4306 58.1931C-3.03157 45.3471 -3.5415 23.988 9.35971 10.4793C22.2099 -3.0294 43.576 -3.53916 57.0891 9.30686C70.5512 22.2039 71.0102 43.5629 58.16 57.0207Z" fill="white"/>
<path d="M53.5819 25.0463C51.3514 22.8626 48.3541 21.6396 45.2326 21.6396C42.1111 21.6396 39.1138 22.8626 36.8833 25.0463L35.1133 26.8121L36.7584 28.453L38.5299 26.6872C40.3183 24.9282 42.7263 23.9424 45.2347 23.9424C47.7432 23.9424 50.1512 24.9282 51.9396 26.6872C52.8177 27.5677 53.5138 28.6125 53.9882 29.762C54.4626 30.9116 54.7059 32.1433 54.7042 33.3868C54.7026 34.6304 54.456 35.8614 53.9786 37.0097C53.5012 38.1579 52.8023 39.2009 51.9218 40.0791C51.0413 40.9572 49.9965 41.6534 48.847 42.1277C47.6974 42.6021 46.4657 42.8454 45.2222 42.8438C42.7107 42.8404 40.3034 41.8396 38.5299 40.0613L36.7584 38.2955L35.1133 39.935L36.8848 41.7008C39.1153 43.8845 42.1125 45.1075 45.234 45.1075C48.3555 45.1075 51.3528 43.8845 53.5833 41.7008C54.6826 40.6131 55.5515 39.3151 56.1382 37.8843C56.725 36.4535 57.0176 34.9192 56.9985 33.3728C57.0172 31.8267 56.7243 30.2925 56.1373 28.862C55.5503 27.4314 54.6812 26.1337 53.5819 25.0463V25.0463Z" fill="#22ACE6"/>
<path d="M36.7512 35.0141L41.8115 29.9665C42.4839 29.3005 43.3384 28.8484 44.2672 28.6671C45.1961 28.4858 46.1579 28.5834 47.0314 28.9477C47.9048 29.3119 48.651 29.9265 49.1758 30.714C49.7007 31.5016 49.9808 32.4268 49.9808 33.3732C49.9808 34.3196 49.7007 35.2448 49.1758 36.0324C48.651 36.8199 47.9048 37.4345 47.0314 37.7987C46.1579 38.163 45.1961 38.2606 44.2672 38.0793C43.3384 37.898 42.4839 37.4459 41.8115 36.7799L40.0401 35.0141L38.3949 36.655L40.1664 38.4208C41.1678 39.4376 42.4492 40.1335 43.8473 40.42C45.2455 40.7064 46.6972 40.5704 48.0179 40.0293C49.3385 39.4881 50.4683 38.5663 51.2634 37.3812C52.0586 36.196 52.4832 34.8011 52.4832 33.3739C52.4832 31.9467 52.0586 30.5518 51.2634 29.3666C50.4683 28.1815 49.3385 27.2597 48.0179 26.7186C46.6972 26.1774 45.2455 26.0414 43.8473 26.3278C42.4492 26.6143 41.1678 27.3102 40.1664 28.327L39.407 29.0836L35.2323 33.3732L30.2983 38.2945L29.793 38.7998L28.7809 39.809L28.5282 40.0617C26.7399 41.8207 24.3319 42.8065 21.8234 42.8065C19.315 42.8065 16.907 41.8207 15.1186 40.0617C14.2366 39.1857 13.5367 38.1438 13.0591 36.9962C12.5814 35.8485 12.3355 34.6177 12.3355 33.3746C12.3355 32.1315 12.5814 30.9007 13.0591 29.7531C13.5367 28.6054 14.2366 27.5636 15.1186 26.6875C15.9681 25.7988 16.991 25.0939 18.1238 24.6163C19.2567 24.1388 20.4755 23.8987 21.7049 23.9111C24.2192 23.912 26.6303 24.9106 28.409 26.6875L31.8242 30.0942L25.3728 36.5287L25.1201 36.7813C24.2059 37.671 22.9805 38.1686 21.7049 38.1681C20.9045 38.1696 20.119 37.9517 19.4338 37.5379L26.3891 30.5982L27.7802 29.2099L26.7681 28.327C26.5005 28.0442 26.2036 27.7906 25.8824 27.5704C24.669 26.6829 23.2082 26.1975 21.7049 26.1822C20.7609 26.1851 19.8271 26.3763 18.9579 26.7446C18.0887 27.1129 17.3018 27.6509 16.6431 28.327C15.9632 28.9801 15.4223 29.7637 15.0528 30.631C14.6833 31.4982 14.4929 32.4312 14.4929 33.3739C14.4929 34.3166 14.6833 35.2496 15.0528 36.1168C15.4223 36.9841 15.9632 37.7678 16.6431 38.4208C17.2996 39.0995 18.0859 39.6392 18.9553 40.0077C19.8246 40.3763 20.7592 40.5663 21.7035 40.5663C22.6477 40.5663 23.5823 40.3763 24.4517 40.0077C25.321 39.6392 26.1073 39.0995 26.7639 38.4208L30.0527 35.1404L31.9506 33.2483L33.5957 31.6074L35.1131 30.0928L35.2394 29.9665L30.1791 24.9203C27.9486 22.7366 24.9513 21.5137 21.8298 21.5137C18.7083 21.5137 15.7111 22.7366 13.4805 24.9203C12.3813 26.008 11.5124 27.306 10.9256 28.7368C10.3388 30.1676 10.0463 31.702 10.0653 33.2483C10.0854 36.3612 11.3093 39.3456 13.4805 41.5763C15.7111 43.76 18.7083 44.9829 21.8298 44.9829C24.9513 44.9829 27.9486 43.76 30.1791 41.5763L31.9506 39.8104L36.7512 35.0141ZM16.8958 33.3746C16.8891 32.7419 17.009 32.1142 17.2485 31.5285C17.488 30.9428 17.8422 30.4109 18.2903 29.9641C18.7384 29.5174 19.2713 29.1647 19.8577 28.927C20.4442 28.6892 21.0722 28.5711 21.7049 28.5797C22.6041 28.5775 23.484 28.8407 24.2344 29.3363L17.6552 35.897C17.1584 35.1497 16.8942 34.272 16.8958 33.3746V33.3746Z" fill="#22ACE6"/>
</g>
<defs>
<clipPath id="clip0_2048_1156">
<rect width="67.5" height="67.5" fill="white"/>
</clipPath>
</defs>
</svg>
