<svg width="68" height="68" viewBox="0 0 68 68" fill="none" xmlns="http://www.w3.org/2000/svg">
<path d="M34 67.75C52.6396 67.75 67.75 52.6396 67.75 34C67.75 15.3604 52.6396 0.25 34 0.25C15.3604 0.25 0.25 15.3604 0.25 34C0.25 52.6396 15.3604 67.75 34 67.75Z" fill="black"/>
<path d="M21.1282 49.681L25.9781 41.311L30.8281 32.9714L35.6475 24.6015L36.4474 23.2751L36.7849 24.6015L38.2631 30.1127L36.6059 32.9714L31.7865 41.311L26.9671 49.681H32.7619L37.6151 41.311L40.1261 36.9776L41.3108 41.311L43.5585 49.681H48.7627L46.515 41.311L44.2672 32.9714L43.6766 30.8215L47.2845 24.6015H42.0194L41.8439 23.9838L40.008 17.146L39.7718 16.2617H34.7093L34.5911 16.4372L29.8661 24.6015L25.0027 32.9647L20.1798 41.3043L15.3301 49.6742L21.1282 49.681Z" fill="white"/>
</svg>
