<svg width="68" height="68" viewBox="0 0 68 68" fill="none" xmlns="http://www.w3.org/2000/svg">
<g clip-path="url(#clip0_2046_843)">
<path d="M58.16 57.0207C45.3097 70.5294 23.9437 71.0392 10.4306 58.1931C-3.03157 45.3471 -3.5415 23.988 9.35971 10.4793C22.2099 -3.0294 43.576 -3.53916 57.0891 9.30686C70.5512 22.2039 71.0102 43.5629 58.16 57.0207Z" fill="#F1F3F4"/>
<path opacity="0.6" fill-rule="evenodd" clip-rule="evenodd" d="M16.474 25.872C15.6879 26.3125 15 25.9699 15 25.04V21.2224L29.2983 13V16.8176C29.2983 17.7475 28.6595 18.8732 27.8242 19.3136L16.474 25.872Z" fill="#298DFF"/>
<path opacity="0.6" fill-rule="evenodd" clip-rule="evenodd" d="M37.4028 52.252C38.189 51.8116 38.189 51.0285 37.4028 50.588L26.0035 44.0296C25.2174 43.5891 23.8907 43.5891 23.1046 44.0296L19.8125 45.9384L34.1108 54.1608L37.4028 52.252Z" fill="#344AE6"/>
<path opacity="0.6" fill-rule="evenodd" clip-rule="evenodd" d="M49.8374 19.3135C49.0512 18.873 48.3633 19.2156 48.3633 20.1455V33.2623C48.3633 34.1921 49.0021 35.3179 49.8374 35.7583L53.1293 37.6671V21.2223L49.8374 19.3135Z" fill="#4264F2"/>
<path fill-rule="evenodd" clip-rule="evenodd" d="M15 21.2224L29.2983 13L42.1717 20.3904C42.9579 20.8309 42.9579 21.614 42.1717 22.0545L30.7724 28.6128C29.9862 29.0534 28.6595 29.0534 27.8734 28.6128L15 21.2224Z" fill="#298DFF"/>
<path fill-rule="evenodd" clip-rule="evenodd" d="M19.7637 31.1083C19.7637 30.1785 20.4024 29.8359 21.2377 30.2763L32.637 36.8347C33.4232 37.2752 34.1111 38.4009 34.1111 39.3308V54.1116L19.7637 45.8892V31.1083Z" fill="#344AE6"/>
<path fill-rule="evenodd" clip-rule="evenodd" d="M40.3021 45.0579C39.5161 45.4984 38.8281 45.1558 38.8281 44.2259V31.1092C38.8281 30.1792 39.4668 29.0536 40.3021 28.6131L53.1755 21.2227V37.6675L40.3021 45.0579Z" fill="#4264F2"/>
</g>
<defs>
<clipPath id="clip0_2046_843">
<rect width="67.5" height="67.5" fill="white"/>
</clipPath>
</defs>
</svg>
