<svg width="68" height="68" viewBox="0 0 68 68" fill="none" xmlns="http://www.w3.org/2000/svg">
<g clip-path="url(#clip0_2047_991)">
<path d="M58.16 57.0207C45.3097 70.5294 23.9437 71.0392 10.4306 58.1931C-3.03157 45.3471 -3.5415 23.988 9.35971 10.4793C22.2099 -3.0294 43.576 -3.53916 57.0891 9.30686C70.5512 22.2039 71.0102 43.5629 58.16 57.0207Z" fill="#F1F3F4"/>
<path d="M33.5832 55.4802C45.5032 55.4802 55.1663 45.7468 55.1663 33.7401C55.1663 21.7334 45.5032 12 33.5832 12C21.6631 12 12 21.7334 12 33.7401C12 45.7468 21.6631 55.4802 33.5832 55.4802Z" fill="#3C1A67"/>
<path d="M54.7227 37.4738C54.5078 37.4602 53.7692 37.5008 53.3932 37.5144C52.547 37.5414 51.7948 37.2979 51.0427 37.0409C50.304 36.7974 49.9548 36.6891 49.3773 36.4862C49.055 36.6485 49.1355 36.635 48.9475 36.6485C48.3969 36.6756 47.5777 36.608 47.1748 36.5403C46.3824 36.3645 45.7913 36.2021 44.9989 35.891C43.5887 35.5527 43.7901 35.4851 42.6351 35.4986C41.4263 35.5257 41.2787 35.5527 39.8953 35.0657C39.479 34.9169 39.0358 34.8222 38.6194 34.6869C37.8942 34.4705 37.639 34.5111 36.9809 34.5381C36.5377 34.5516 36.1078 34.5652 35.678 34.5111C35.1005 34.3487 34.4424 34.0646 33.9723 33.6858C33.1127 32.8335 32.7099 32.1707 32.0384 31.9948C31.6892 31.9136 31.34 31.8866 30.9908 31.8324C30.7893 31.8054 30.5743 31.7919 30.3594 31.7783C30.2923 31.616 30.1715 31.4672 29.9969 31.3454C29.3791 30.899 29.191 30.7637 28.9089 30.3443C28.6403 29.952 28.8822 30.3443 27.8211 28.8562C27.4854 28.6668 26.7332 28.1662 26.2094 27.9227C25.699 27.6928 25.135 27.314 24.7052 27.111C24.4366 26.9893 24.2216 26.9081 23.9396 26.7728C22.4622 26.0964 22.328 25.5959 21.2938 25.0141C21.361 25.1359 21.4953 25.3659 21.4953 25.3659C22.0191 26.2317 22.1937 26.2587 22.6503 26.8675C23.0667 27.4898 23.1337 27.5845 23.9799 28.518C24.2753 28.8427 24.6381 29.1132 24.9873 29.3838C25.135 29.5056 25.6051 29.8573 25.6991 29.9249C25.9274 30.1684 25.9139 30.209 26.3302 30.6555C26.3034 30.6419 26.2766 30.6419 26.2497 30.6284C25.6185 30.4661 25.3633 30.3984 25.0141 30.1684C24.9067 30.0738 24.7992 29.979 24.6918 29.8573C24.1277 29.3432 24.074 29.4109 22.8115 28.9103C22.1802 28.6127 22.0191 28.4639 21.8444 28.3015C20.9043 27.4898 20.8775 27.6386 20.5417 27.2328C20.2462 26.7864 20.0851 26.5293 19.2926 26.1235C18.5002 25.7041 18.3256 25.6906 17.8824 25.1359C16.9423 23.8507 17.2243 24.216 16.5662 23.4043C16.2976 23.039 16.2439 22.9172 16.1767 22.7819C16.1096 22.6467 16.0558 22.5114 15.9484 22.3896C15.8007 22.2273 15.6125 22.1055 15.3976 22.0244C13.8397 24.473 12.7519 27.2734 12.2684 30.3173C12.2684 30.3173 12.2683 30.3173 12.2817 30.3173C12.4429 30.4255 12.8862 30.5743 13.0742 30.6284C13.9741 30.9125 14.5247 31.0072 15.0083 31.0613C14.9008 31.0478 14.8202 31.0478 14.7799 31.0478C13.3293 31.0884 13.5174 31.129 12.6042 30.8855C12.4833 30.8584 12.349 30.8313 12.2147 30.8178C12.1609 31.1831 12.1207 31.5483 12.0938 31.9271C12.7653 32.0624 12.8727 32.2383 14.0949 32.2518C14.9544 32.2518 14.968 32.2383 15.9753 32.3736C16.3379 32.4277 16.6871 32.4818 17.0363 32.6036C17.09 32.6306 17.1303 32.6577 17.184 32.6847C17.7615 33.1718 17.7884 33.2394 18.0436 33.4694C18.9032 34.2811 20.085 34.2405 21.2803 34.6869C22.6771 35.201 22.328 35.0657 23.2681 35.5933C25.4305 36.8109 25.8065 36.7297 26.6392 37.0544C28.2778 37.6902 29.6343 37.8255 30.9371 38.2314C31.3265 38.3531 31.7295 38.4478 32.119 38.5831C32.401 38.7049 32.6696 38.8401 32.9517 38.9484C33.8784 39.3136 34.6976 39.246 35.4228 39.3272C35.8123 39.4083 36.5914 39.6383 36.8466 39.733C37.1152 39.8683 38.203 40.5041 38.4984 40.6665C40.3787 41.6946 40.4862 41.7082 41.386 41.857C41.9367 41.9381 42.0845 42.0193 42.3666 42.1275C43.4545 42.5334 44.1126 42.5469 45.0124 43.1692C45.3751 43.5074 45.3482 43.5616 45.6571 43.9809C46.3689 44.9685 46.8793 45.3879 47.4165 45.9155C47.6717 46.159 47.9671 46.3755 48.276 46.5649C48.5849 46.7678 48.9208 46.9166 49.27 47.0519C49.4714 47.133 49.6729 47.1736 49.8743 47.2277C49.9683 47.2548 50.0624 47.2954 50.1698 47.3224C50.2638 47.3495 50.331 47.3766 50.3847 47.4036C50.7608 46.9436 51.1099 46.4702 51.4456 45.9696C51.4053 45.9155 51.3516 45.8614 51.3113 45.8073C51.0158 45.4149 50.801 45.1579 50.3577 44.9279C50.2369 44.8603 50.2773 44.8738 50.2101 44.8603C50.8816 45.0226 51.6741 45.0361 51.6338 45.0226C51.8084 45.0226 51.9427 45.0361 52.0367 45.0361C53.0977 43.291 53.89 41.4511 54.4138 39.5571C54.1183 39.3542 53.8901 39.2325 53.4603 39.1107C53.232 39.0431 52.95 39.0295 52.7485 39.0025C52.1173 38.9078 51.6471 38.8807 51.6202 38.8807C50.398 38.7996 50.7608 38.7184 49.3371 38.1367C49.2431 38.0961 49.1624 38.069 49.0818 38.0284C49.6191 38.0014 49.646 37.9202 50.1027 37.7308C50.6533 37.582 50.3713 37.6902 52.2381 38.0555C52.6814 38.1502 53.1111 38.2855 53.5543 38.3396C54.0916 38.4072 54.1452 38.3802 54.3198 38.3937C54.4004 38.4072 54.4675 38.4343 54.5481 38.4343C54.6018 38.4343 54.6422 38.4343 54.696 38.4208C54.7631 38.0961 54.8302 37.7849 54.8839 37.4602C54.7764 37.5008 54.7227 37.4738 54.7227 37.4738ZM28.9089 32.1571C28.4791 31.8054 28.0628 31.4807 27.7405 31.2642C27.9956 31.4266 28.3448 31.6836 28.9089 32.1571ZM32.2666 34.4299C32.1457 34.3893 32.0383 34.3352 31.9308 34.2946C31.7965 34.2405 31.6623 34.1729 31.528 34.1052C31.4474 34.0646 31.3533 34.0105 31.2727 33.9699C31.1921 33.9158 31.0981 33.8752 31.0175 33.8076C30.9235 33.7399 30.8162 33.6858 30.7087 33.6047C30.655 33.5641 30.6013 33.5235 30.5476 33.4829C30.3864 33.3747 30.2252 33.2394 30.0641 33.0906C30.0506 33.0771 30.0372 33.0635 30.0103 33.05C30.7087 33.2259 30.6818 33.2529 31.0847 33.3611C31.0981 33.3611 31.5145 33.4694 31.5413 33.4964C31.7025 33.6723 32.3069 34.4164 32.3203 34.4299C32.2935 34.4434 32.28 34.4434 32.2666 34.4299ZM38.015 35.7557C37.8539 35.7151 37.733 35.688 37.6255 35.661C37.9344 35.7286 38.1896 35.7963 38.3911 35.8639C38.2836 35.8233 38.1628 35.7963 38.015 35.7557ZM42.7022 41.8299C42.8366 41.8705 42.971 41.9111 43.1321 41.9652C42.971 41.9111 42.8366 41.8705 42.7022 41.8299ZM44.9989 37.9067C44.2468 37.9473 43.3469 37.7038 42.4336 37.4738C42.353 37.4467 42.259 37.4332 42.1785 37.4061C43.6021 37.2438 43.1321 37.0815 44.2737 37.2709C44.6229 37.352 45.2005 37.5685 45.8854 37.7173C45.9123 37.7173 45.9257 37.7038 45.9526 37.7038C45.6705 37.7579 45.3884 37.8255 44.9989 37.9067ZM47.0807 37.6496C47.1075 37.6496 47.1479 37.6496 47.1748 37.6632C47.1882 37.6632 47.2015 37.6632 47.2284 37.6632C47.1747 37.6632 47.1209 37.6632 47.0807 37.6496Z" fill="#AC7BC8"/>
<path d="M48.1554 48.5399C47.927 48.4723 47.5778 48.4046 47.5778 48.4046C46.4765 48.1746 46.678 48.0935 44.9051 47.85C44.2873 47.7553 43.8307 47.6876 43.468 47.6335C43.186 47.2682 42.9442 47.0924 42.5682 46.8083C42.4339 46.7136 42.2861 46.6324 42.1384 46.5512C41.8698 46.3889 41.6012 46.186 41.3057 46.0642C40.9968 45.9154 40.661 45.8342 40.3387 45.7125C39.882 45.4825 39.6806 45.3066 39.4791 45.0766C38.633 43.8997 39.0225 44.1838 38.2569 43.2503C37.5182 42.3574 36.4841 41.7892 35.4633 41.3158C34.4829 40.8423 33.8248 40.5311 31.9042 40.3417C31.0043 40.247 30.7223 40.4364 29.903 40.5852C29.7016 40.5987 29.6881 40.5852 29.5941 40.5582C29.0703 40.2876 28.9629 40.0982 28.0362 39.7735C27.2169 39.4894 26.9483 39.4624 26.2499 39.3677C25.4172 39.2594 24.4905 39.1106 23.7249 39.1918C23.4429 39.2189 23.1205 39.273 22.8116 39.2594C22.4624 39.1918 21.6566 38.9618 21.1059 38.7589C20.6224 38.5424 20.4075 38.3936 20.018 38.2854C19.8031 38.2313 19.5748 38.2178 19.3599 38.2042C18.3661 38.1366 16.8484 38.6642 16.1231 38.8671C15.6933 38.5289 15.6396 38.5019 15.0218 37.9607C14.7935 37.7713 14.6592 37.636 14.2831 37.4061C13.9742 37.2167 13.4236 36.9461 12.9803 36.8784C12.752 36.8379 12.4834 36.8379 12.2148 36.8379C12.5237 39.0836 13.1952 41.3022 14.2563 43.4532C14.2831 43.4938 14.2965 43.5344 14.3234 43.5885H14.3368C14.7263 43.6562 14.9009 43.6967 15.1293 43.805C15.1964 43.8456 15.2501 43.8997 15.2904 43.9403C15.3576 44.0079 15.4113 44.0891 15.4784 44.1838C15.3979 44.2108 15.2367 44.2649 15.2367 44.2649C15.0755 44.319 14.9009 44.3596 14.7398 44.3867C14.8203 44.522 14.9009 44.6573 14.9815 44.7925C15.2636 44.752 15.5053 44.7249 15.7874 44.7249C15.8411 44.8061 15.8948 44.8737 16.0291 44.9955C16.2843 45.2255 16.7141 45.4554 17.023 45.5907C17.2782 45.7125 17.2916 45.7395 17.8691 45.9289C18.5809 46.1724 18.8361 46.3348 19.3465 46.4565C19.7763 46.5648 20.112 46.673 21.4954 46.6595C24.9605 46.6053 24.8665 46.4971 25.8067 47.0653C27.5392 48.107 27.2169 47.8229 29.6076 48.4858C29.9165 48.567 30.4268 48.7293 30.8969 48.824C31.4476 48.9458 31.9042 48.9728 32.3474 49.0269C32.4011 49.054 32.5086 49.1216 32.5086 49.1216C33.2204 49.4869 33.6099 49.5681 34.2814 49.5275C34.3755 49.5681 34.456 49.6086 34.55 49.6628C34.7112 49.7575 35.0336 49.9874 35.047 49.9874C35.8797 50.5421 36.2423 50.515 37.0079 50.8397C37.7466 51.1509 38.1092 51.6244 39.8552 51.8814C39.4523 51.8273 39.0493 51.7597 38.5255 51.5703C38.5524 51.665 38.5927 51.8814 38.5927 51.8814C38.6598 52.1249 38.8747 52.6931 39.0359 52.9772C39.4254 53.5995 40.0298 54.0189 40.473 54.1271C40.7013 54.1812 40.8088 54.1677 40.9296 54.1677C40.9296 54.1812 40.9431 54.1812 40.9431 54.1948C41.3863 54.0324 41.8161 53.8566 42.2458 53.6672C42.2056 53.586 42.1518 53.5048 42.0847 53.4372C42.0712 53.4101 42.0444 53.3831 42.031 53.356C41.9907 53.3019 41.9504 53.2613 41.9101 53.2072C41.9101 53.2072 41.9101 53.2072 41.9101 53.1937C41.9101 53.1666 41.8966 53.1396 41.8966 53.1125C41.8564 52.8149 41.8295 52.5849 41.6549 52.3414C41.8295 52.4225 42.0175 52.5172 42.2324 52.639C42.2458 52.639 42.8368 52.9907 43.2263 53.2072C45.3886 52.1249 47.3898 50.6503 49.1492 48.7969C49.0284 48.7158 48.7732 48.6887 48.1554 48.5399ZM14.7129 38.5289C14.686 38.4883 14.6726 38.4477 14.6457 38.4072C14.8069 38.5695 14.9412 38.6912 15.0218 38.7724C14.9681 38.7183 14.8606 38.6371 14.7129 38.5289ZM16.6603 40.0035L16.6469 39.99C16.6604 39.99 16.6738 40.0035 16.7141 40.017C16.6738 40.017 16.6872 40.017 16.6603 40.0035ZM18.7152 39.7194C18.9436 39.7465 19.2122 39.787 19.5211 39.8276C19.2122 39.8006 19.0107 39.7735 18.7152 39.7194ZM22.7713 40.6123C22.8788 40.6664 22.9996 40.734 23.1205 40.8152C22.9996 40.7476 22.8788 40.6799 22.7713 40.6123ZM36.0946 45.0631C35.2216 44.3596 34.5098 44.0079 33.5965 43.6562C33.113 43.4668 32.6295 43.345 32.1862 43.3044C29.6344 43.0744 28.56 43.4803 26.7737 43.0609C25.4843 42.6415 24.9471 42.0463 24.4905 41.6945C24.4233 41.6404 24.3427 41.5863 24.2487 41.5187C24.2756 41.5322 24.289 41.5457 24.3159 41.5593C24.8665 41.5728 25.4172 41.6675 26.129 41.7622C26.5991 41.8434 27.0691 41.9786 27.5258 42.1545C28.0765 42.4386 28.6808 43.0203 29.7956 43.0339C30.0508 43.0339 30.6954 42.9256 30.8297 42.885C31.0446 42.8309 31.2595 42.7633 31.4744 42.7092C31.8102 42.6956 32.1594 42.7227 32.4952 42.7633C33.4622 42.9256 33.8651 43.0744 34.3352 43.2774C36.981 44.4137 36.6318 44.8331 37.5048 45.9695C36.9944 45.726 36.6184 45.496 36.0946 45.0631ZM40.8222 52.0302C40.7013 52.0032 40.5939 51.9761 40.4864 51.9626C40.6073 51.9761 40.7013 52.0032 40.8222 52.0302C40.8491 52.0302 40.8893 52.0438 40.9162 52.0573C40.9296 52.0573 40.9431 52.0708 40.9565 52.0708C40.9162 52.0573 40.8625 52.0438 40.8222 52.0302ZM41.8698 47.3224C41.9504 47.3359 42.031 47.3629 42.1115 47.3765C42.031 47.3629 41.9504 47.3359 41.8698 47.3224Z" fill="#AC7BC8"/>
<path d="M36.2697 55.3179C35.8533 55.372 35.4236 55.4126 35.0072 55.4396C34.846 55.3179 34.7252 55.1555 34.4163 54.912C34.4163 54.912 34.4028 54.8985 34.3894 54.8985C34.3894 54.8985 34.3894 54.8985 34.376 54.8985C34.2954 54.8308 34.1342 54.7226 33.9999 54.655C33.6507 54.4656 33.3687 54.3438 33.0866 54.1679C32.9254 54.0597 32.7911 53.938 32.6165 53.8568C31.3675 53.3292 31.757 53.4509 30.6288 53.018C29.8901 52.7339 30.0513 52.8286 29.4603 52.8286C28.9634 52.8151 28.4665 52.7069 28.0367 52.4634C27.7949 52.3281 27.58 52.1522 27.3383 52.0169C26.6936 51.6787 25.1088 51.2593 24.5581 51.1646C23.5643 51.0429 22.9867 51.0158 22.2615 50.3123C22.1943 50.2988 21.5765 50.2718 21.2676 50.2312C20.8513 50.1906 20.4349 50.1094 20.0185 50.0147C19.3336 49.8794 19.0112 49.7171 18.7561 49.5412C18.7561 49.5412 18.7426 49.5412 18.7426 49.5277C18.3397 49.1489 17.9502 48.7566 17.5742 48.3372C17.7219 48.2831 17.8831 48.2425 18.0442 48.2154C18.0308 48.2154 18.2188 48.1748 18.5009 48.229C18.7964 48.2966 19.0918 48.3913 19.3873 48.4589C19.6022 48.4725 19.8171 48.4589 20.0454 48.4454C20.5289 48.3778 20.5423 48.3642 21.1602 48.3237C22.248 48.256 22.0734 48.229 22.5167 48.1884C22.9061 48.1478 23.3494 48.2831 23.6314 48.486C23.712 48.5536 23.7926 48.6078 23.8866 48.6483C23.9806 48.6754 24.0746 48.6889 24.1686 48.716C24.5984 48.7566 25.0282 48.7836 25.458 48.8648C25.9012 48.946 26.331 49.0813 26.7608 49.1895C27.3114 49.3383 27.4726 49.4059 28.0232 49.6359C28.2784 49.7441 28.547 49.8524 28.7888 50.0012C29.3797 50.38 29.1783 50.3394 29.8095 50.3259C30.5482 50.3123 30.9646 50.4882 31.7167 50.7858C32.1599 50.9617 32.6031 51.124 33.006 51.3946C34.0939 52.0981 33.8656 52.2875 34.5237 52.8422C34.9938 53.1668 35.2758 53.3157 35.6384 53.7621C35.7996 53.965 35.9608 54.1409 36.0682 54.5603C36.1085 54.7226 36.1488 54.9391 36.1354 55.1014C36.1622 55.1826 36.216 55.2502 36.2697 55.3179Z" fill="#AC7BC8"/>
<path d="M53.6353 25.6907C53.595 25.6637 53.5815 25.6502 53.5815 25.6502C53.098 25.3525 52.722 25.2578 51.9967 25.082C51.4864 24.9602 51.0297 24.8655 50.3716 24.879C49.7001 24.8926 49.418 25.0008 48.9883 25.0684C48.6928 25.082 48.075 25.0414 47.7795 25.0008C47.4706 24.9196 47.1885 24.8114 46.4096 24.4867C45.6172 24.1079 44.5561 23.445 44.0055 23.0392C43.71 22.8227 43.6966 22.7957 43.3339 22.6469C43.0922 22.5522 43.1728 22.5657 42.7027 22.4033C42.9445 22.471 43.2131 22.5116 43.522 22.5657C43.6428 22.5927 44.1801 22.7821 44.7845 22.8633C45.1739 22.9174 44.9859 22.8633 45.7246 22.9986C45.7649 23.0121 45.7918 23.0121 45.832 23.0256C46.4096 23.3639 46.4096 23.6615 47.2826 23.7021C47.7526 23.7291 48.3302 23.4856 49.0151 23.5668C49.1494 23.6074 49.2703 23.648 49.4046 23.7021C50.3448 24.1756 50.9223 24.1891 51.6744 23.905C52.1445 23.7427 52.037 23.7562 52.2519 23.675C52.3862 23.6344 52.534 23.6074 52.6548 23.5533C52.5608 23.3639 52.4534 23.1745 52.3459 22.9851C52.2653 23.0256 52.1579 23.0392 52.0639 23.0256C52.0236 23.0256 51.943 22.9986 51.8624 22.9986C51.3923 23.0933 51.4326 23.1745 50.976 23.1745C50.4253 23.1745 50.3313 23.1609 49.7001 23.0392C49.0823 22.9715 48.6122 23.188 47.1483 22.7416C46.4096 22.5116 45.362 21.9704 44.677 21.6052C44.2607 21.3887 44.1801 21.3752 43.1593 20.7529C42.6087 20.4147 42.7967 20.4688 41.6148 19.8194C40.8493 19.4136 40.8493 19.4136 40.0569 18.8319C39.2107 18.2095 39.1973 18.1554 38.6735 17.3843C38.4049 17.0461 38.0691 16.7755 37.7468 16.4914C35.6247 14.5704 36.1888 15.0845 35.5576 14.381C35.477 14.2998 35.4098 14.2187 35.3427 14.1375C34.8323 13.434 35.2621 13.8264 34.5503 13.1229C34.2682 12.8388 33.9593 12.5276 33.3818 12.2435C33.0998 12.1218 32.9252 12.0406 32.8043 12C32.5222 12.0136 32.2402 12.0271 31.9582 12.0406C32.1865 12.2706 32.4282 12.4194 32.576 12.5276C33.0192 12.9335 33.046 12.8658 33.449 13.0417C33.4893 13.0688 33.5295 13.0958 33.5564 13.1229C33.7176 13.2717 34.0668 13.637 34.1877 13.7722C34.2682 14.1104 34.1877 14.1916 34.416 14.7192C34.5637 15.0439 34.6577 15.1657 34.9263 15.4633C35.3964 15.9638 35.6516 16.045 36.0679 16.2344C36.162 16.6403 36.1888 17.3302 36.7395 18.0878C36.9007 18.3178 37.1021 18.4801 37.3036 18.656C37.8139 19.1159 38.1363 19.4542 38.969 19.7518C39.4793 19.9277 39.9628 19.9412 40.2717 19.9818C40.5269 20.7799 40.809 20.9288 41.682 21.8081C41.9237 22.0516 42.1655 22.2004 42.4341 22.3086C41.8431 22.1057 42.0043 22.1328 40.8896 21.6187C40.0434 21.2264 39.7882 20.9964 39.3853 20.577C38.8347 19.9953 38.4317 19.8194 37.3976 19.143C36.6589 18.656 36.3634 18.4936 35.9874 18.2095C35.5844 17.8443 35.5173 17.6278 34.9263 16.992C34.3891 16.4103 34.3622 16.3697 34.2011 16.1126C33.6773 15.3415 33.5295 15.2062 33.1669 14.9086C32.1731 14.0834 31.9447 13.894 31.7298 13.664C31.5687 13.5017 31.4478 13.3123 31.2866 13.1499C31.0986 12.9741 30.8971 12.8253 30.736 12.6223C30.6285 12.46 30.5479 12.3518 30.4271 12.2165C28.2244 12.5412 26.1292 13.204 24.1684 14.1646C24.1684 14.1646 24.1684 14.1646 24.1684 14.1781C24.1012 14.3945 24.0878 14.5975 24.1281 14.8139C24.1818 15.098 24.3967 15.2874 24.5847 15.5039C24.4907 16.762 24.2758 16.6944 24.4101 17.6684C24.5579 18.683 24.6922 18.8183 24.9339 19.1701C25.0414 19.3189 25.2025 19.4406 25.3368 19.5489C25.5249 19.7112 26.0084 19.9277 26.183 20.0088C26.4113 20.1035 26.653 20.1847 26.8814 20.2794C26.9754 20.3335 27.3917 20.5635 27.5126 20.6311C27.5663 20.7529 27.6201 20.8746 27.6738 20.9964C27.7544 21.2534 27.9558 22.3222 27.9692 22.4439C28.0095 22.7416 28.0901 23.4721 28.4662 24.1891C28.7214 24.6626 29.1109 25.0143 29.5541 25.2849C29.9301 25.5149 30.3465 25.6637 30.736 25.8396C30.9374 25.9478 31.7164 26.4483 31.9044 26.5701C32.079 26.9083 32.3476 27.72 32.5357 28.1258C32.6431 28.3558 32.8043 28.5588 32.9386 28.7617C33.0729 28.9511 33.2609 29.0999 33.449 29.2622C33.5698 29.3569 33.6907 29.4516 33.825 29.5193C34.416 29.8304 34.4697 29.7898 35.1144 29.9657C35.3964 30.0469 35.6785 30.128 35.9605 30.2092C36.2291 30.2769 36.5112 30.331 36.7798 30.4392C37.1558 30.588 37.5319 30.7774 37.5856 30.7909C38.3243 30.9397 38.378 31.1291 39.6539 31.5891C40.2046 31.6838 40.3523 31.6432 40.7284 31.6162C41.0239 31.5891 41.3865 31.4538 41.6954 31.3862C41.8028 31.3997 42.058 31.4944 42.1655 31.5485C42.2595 31.6026 42.3401 31.6703 42.4207 31.7379C43.1459 32.4008 43.1996 32.3467 43.6697 32.7661C44.6233 32.8743 45.1202 32.7661 45.6977 32.8608C46.1678 32.9284 46.9468 33.1178 48.5988 33.3072C49.0688 33.3613 48.8137 33.3478 49.2569 33.2802C49.3375 33.2802 49.418 33.2802 49.5121 33.2937C49.6464 33.3343 49.7807 33.3749 49.9015 33.429C50.2507 33.4425 50.3582 33.456 50.8686 33.4154C51.9161 33.3343 51.7953 33.429 52.6951 33.226C53.1921 33.1043 53.6218 33.0096 54.1322 33.0772C54.3337 33.1043 54.5217 33.1584 54.7097 33.199C54.7366 33.199 54.75 33.199 54.7634 33.199C54.8843 33.199 55.0186 33.199 55.1529 33.1855C55.1529 33.1855 55.1664 33.1855 55.1798 33.1855C55.0992 30.6286 54.5888 28.0988 53.6353 25.6907ZM25.2294 14.611C25.216 14.611 25.2025 14.5975 25.2025 14.5839C25.1891 14.5704 25.1891 14.5704 25.1757 14.5569C25.1622 14.5569 25.1622 14.5434 25.1488 14.5298C25.1622 14.5434 25.1622 14.5434 25.1757 14.5569C25.1891 14.5704 25.2025 14.5839 25.2294 14.611C25.2428 14.6245 25.2563 14.6245 25.2697 14.6381C25.2831 14.6516 25.2965 14.6651 25.31 14.6651C25.2831 14.6516 25.2563 14.6381 25.2294 14.611ZM25.686 15.0574C25.7129 15.1115 25.7398 15.1657 25.7532 15.2333C25.7398 15.1657 25.7129 15.1115 25.686 15.0574ZM26.5322 17.8713C26.4919 17.8443 26.4516 17.8172 26.4113 17.7902C26.465 17.8308 26.5322 17.8713 26.5993 17.8984C26.5725 17.8849 26.559 17.8849 26.5322 17.8713ZM30.9374 23.2556C30.9106 23.2421 30.8837 23.2286 30.8434 23.2015C30.924 23.2421 31.0046 23.2827 31.112 23.3233C31.0449 23.3097 30.9912 23.2827 30.9374 23.2556ZM32.8177 24.2567C32.9655 24.3379 33.0729 24.4055 33.1938 24.4867C33.2072 24.5002 33.2341 24.5138 33.2475 24.5273C33.1132 24.4326 32.9655 24.3379 32.8177 24.2567ZM34.2011 25.7584C34.2548 25.8801 34.3085 26.0154 34.3623 26.1642C34.3085 26.0289 34.2548 25.8801 34.2011 25.7584ZM35.1009 27.4088C35.195 27.4359 35.3024 27.4765 35.3964 27.5035C35.2621 27.4765 35.1681 27.4494 35.1009 27.4088ZM37.2364 27.9906C37.3304 28.0041 37.4244 28.0447 37.5453 28.0853C37.4647 28.0582 37.3573 28.0176 37.2364 27.9906ZM41.3865 28.9511C41.3865 28.9511 41.3999 28.9511 41.3865 28.9511H41.4268C41.4134 28.9511 41.3999 28.9511 41.3865 28.9511ZM44.2069 30.0604C44.2069 30.0604 44.1935 30.0469 44.1801 30.0333C44.2338 30.0739 44.301 30.128 44.3681 30.1822C44.3144 30.1416 44.2472 30.101 44.2069 30.0604ZM46.4767 31.0886C46.4364 31.0886 46.2081 31.075 46.2081 31.075C45.7112 31.0615 45.5366 31.0344 45.4828 31.0344C45.7515 31.0615 46.5573 31.1021 47.1751 31.1021C46.9871 31.1021 46.7588 31.1021 46.4767 31.0886ZM49.0957 30.818C49.2434 30.8045 49.3777 30.8045 49.4852 30.8045C49.3643 30.8045 49.2166 30.818 49.0957 30.818ZM51.7147 31.4944C51.7147 31.4944 51.7281 31.4944 51.7147 31.4944C51.7281 31.4944 51.7281 31.4944 51.7147 31.4944ZM52.2385 31.2644C52.2653 31.2509 52.2788 31.2509 52.3056 31.2374C52.3325 31.2238 52.3594 31.2238 52.3862 31.2103C52.3325 31.2374 52.2788 31.2509 52.2385 31.2644Z" fill="#AC7BC8"/>
<path d="M49.8067 19.4133C49.7127 19.3998 49.6054 19.3862 49.4711 19.3592C48.4235 19.1157 48.195 18.6016 47.6041 18.2769C46.6908 17.7628 46.3953 17.7087 45.4283 17.2758C45.0657 17.0729 45.0523 16.9647 44.5956 16.5588C44.2867 16.2747 43.9509 16.0312 43.6286 15.7606C43.5077 15.6524 43.3734 15.5577 43.2257 15.4765C43.078 15.3818 42.9302 15.2736 42.7825 15.1924C41.6946 14.6378 41.8826 14.9625 41.1574 14.6242C40.7276 14.3943 40.7679 14.3266 40.4321 14.0696C40.3247 13.9884 40.2575 13.9749 40.0829 13.8396C39.774 13.542 39.7338 13.4879 39.2906 13.1902C38.8608 12.8791 38.7533 12.8926 38.6055 12.8656C37.4774 12.6356 37.2088 12.5003 36.873 12.2568C41.7886 13.0008 46.4088 15.5036 49.8067 19.4133Z" fill="#AC7BC8"/>
<g style="mix-blend-mode:multiply" opacity="0.49">
<g style="mix-blend-mode:multiply" opacity="0.49">
<path d="M52.9232 24.0671C50.7877 19.7921 47.4569 16.5182 43.5486 14.4619C44.9722 15.9771 46.2079 17.7358 47.1883 19.6974C50.5997 26.651 50.1565 34.9168 45.7378 41.5593C39.3045 51.0562 27.2437 53.5995 17.8691 48.6752C27.3512 58.7538 43.6023 57.5498 51.4593 45.9425C55.9048 39.3 56.3346 31.0206 52.9232 24.0671Z" fill="#3C1A67"/>
</g>
</g>
</g>
<defs>
<clipPath id="clip0_2047_991">
<rect width="67.5" height="67.5" fill="white"/>
</clipPath>
</defs>
</svg>
