<svg width="68" height="68" viewBox="0 0 68 68" fill="none" xmlns="http://www.w3.org/2000/svg">
<g clip-path="url(#clip0_2046_825)">
<path d="M33.7483 0C52.3875 0 67.4966 15.1091 67.4966 33.7483C67.4966 52.3875 52.3875 67.4966 33.7483 67.4966C15.1091 67.4966 0 52.3875 0 33.7483C0 15.1091 15.1091 0 33.7483 0Z" fill="#CC703C"/>
<path d="M50 16L49.8047 16.5135L49.1648 18.1553L48.7397 19.2136C45.5109 27.1492 43 30.9151 40.3297 30.9151C39.655 30.9328 38.9839 30.8108 38.3593 30.5569C37.7346 30.3029 37.1701 29.9226 36.7017 29.4402L36.3611 29.1334C35.513 28.3561 35.1562 28.1644 34.3395 28.1644C33.9143 28.1644 33.1529 28.7027 32.1909 29.9678C30.902 31.7806 29.8062 33.7214 28.9208 35.7587L28.8123 35.9977H40.2658L38.8395 38.9422H28.1453V51H25V16H50ZM45.5433 18.9391H28.1453V30.6019C30.2299 27.0114 32.2115 25.2092 34.3427 25.2092C35.0595 25.1864 35.7731 25.3117 36.4386 25.5771C37.104 25.8425 37.7066 26.2422 38.2082 26.7509L38.5596 27.0674C39.3514 27.793 39.6561 27.9599 40.3329 27.9599C41.077 27.961 43.0564 24.8388 45.5433 18.9391Z" fill="white"/>
</g>
<defs>
<clipPath id="clip0_2046_825">
<rect width="67.5" height="67.4983" fill="white"/>
</clipPath>
</defs>
</svg>
