<svg width="68" height="68" viewBox="0 0 68 68" fill="none" xmlns="http://www.w3.org/2000/svg">
<g clip-path="url(#clip0_2047_1039)">
<path d="M58.16 57.0207C45.3097 70.5294 23.9437 71.0392 10.4306 58.1931C-3.03157 45.3471 -3.5415 23.988 9.35971 10.4793C22.2099 -3.0294 43.576 -3.53916 57.0891 9.30686C70.5512 22.2039 71.0102 43.5629 58.16 57.0207Z" fill="#5BA2FF"/>
<path d="M50.4435 20.8044C49.4118 20.9169 48.3801 21.0289 47.3482 21.1404C47.0203 21.1761 46.6524 21.2026 46.4148 21.4546C46.0731 21.8182 46.3991 22.2857 46.6771 22.5718L47.5081 23.4291C47.6031 23.5269 47.6974 23.6247 47.7932 23.7225C47.8156 23.7459 47.5682 23.9829 47.5391 24.0136L46.0833 25.5601L46.0127 25.6352C45.5349 24.9822 45.0163 24.3585 44.4599 23.7677C44.212 23.5064 43.9592 23.2495 43.7016 22.9972C43.6804 22.9769 43.5634 22.8338 43.5378 22.8572L43.3313 23.0447L43.1451 23.2143C43.1192 23.2381 43.2877 23.3965 43.3089 23.4202C43.5481 23.6999 43.7915 23.9752 44.026 24.2595C44.2879 24.5766 44.5345 24.9077 44.7717 25.2425C44.9514 25.4981 45.1259 25.7572 45.2952 26.0196C45.3242 26.0648 45.3525 26.1101 45.3804 26.1561C45.4342 26.2439 45.4405 26.2428 45.3698 26.3176C45.0686 26.6375 44.7686 26.9585 44.4662 27.278C43.0756 24.7266 40.9142 22.563 38.2407 21.2935C35.0845 19.7942 31.4029 19.6028 28.0822 20.6959C24.7631 21.789 21.9498 24.1221 20.2521 27.1062C18.5572 30.0833 18.0333 33.6698 18.7508 36.9987C18.845 37.4359 18.9607 37.8684 19.0976 38.2947C19.1196 38.3645 19.1467 38.381 19.0921 38.4374L18.9762 38.5567L18.75 38.7899L18.278 39.2766L16.7221 40.8802L15.0622 42.5916C15.0539 42.6 14.9919 42.6537 15.0009 42.6626L15.4054 43.043C15.4501 43.0852 15.4843 43.165 15.5346 43.1151L15.7066 42.9441L17.8327 40.828L19.4329 39.2352C20.2996 41.4107 21.7036 43.3261 23.5151 44.8419C26.2401 47.1217 29.9083 48.2589 33.4815 47.9502C35.2461 47.7957 36.9637 47.31 38.5399 46.5199C39.8606 45.8587 41.021 44.9892 42.0872 43.987C43.0254 43.1044 43.8167 42.0347 44.4446 40.9255C45.2897 39.4314 45.8448 37.7977 46.0818 36.1065C46.2836 34.6438 46.2585 33.1596 46.0076 31.7042C45.8596 30.852 45.635 30.0143 45.3364 29.2007C45.3089 29.1248 45.2453 29.0435 45.3078 28.9829L45.5363 28.76C45.812 28.4919 46.0888 28.225 46.3653 27.958C47.1264 29.5037 47.5819 31.2293 47.7425 32.933C47.9098 34.6985 47.7457 36.4924 47.2638 38.2019C46.9732 39.2325 46.588 40.2427 46.0987 41.1997C45.662 42.0546 45.164 42.8651 44.6272 43.6632L46.4564 44.7936C47.2285 43.4588 47.9043 42.0907 48.3917 40.6305C48.9391 38.9901 49.269 37.2557 49.278 35.527C49.287 33.7538 49.0259 32.0033 48.46 30.3172C48.189 29.5046 47.8521 28.7143 47.4527 27.9538C47.3608 27.7793 47.2709 27.604 47.1715 27.4329L47.1004 27.3114C47.0635 27.2485 47.1071 27.2416 47.1546 27.1959L47.4166 26.9432L48.31 26.0805L49.223 25.1988L50.5704 26.5876C50.8633 26.8898 51.4108 27.2136 51.6774 26.7004C51.8082 26.4488 51.8031 26.1553 51.8168 25.8796C51.8584 25.0695 51.9005 24.2591 51.9413 23.449L51.9935 22.4376C52.01 22.1181 52.0053 21.807 51.8529 21.5125C51.5886 20.9993 51.0157 20.7427 50.4435 20.8044V20.8044ZM20.2525 36.1085C19.4679 32.9319 20.0463 29.47 21.8324 26.7073C23.594 23.981 26.438 22.028 29.7123 21.5017C33.0802 20.9602 36.5788 22.008 39.1494 24.1778C40.2058 25.0691 41.1149 26.1461 41.7899 27.3401C42.0834 27.8602 42.3361 28.4013 42.5459 28.9587C42.5773 29.0419 42.6653 29.1781 42.6005 29.2464L42.3456 29.5156C41.7628 30.1305 41.1785 30.7445 40.5949 31.359C39.376 32.6419 38.1527 33.9226 36.9302 35.2029L35.0519 37.1694C34.83 37.401 34.6086 37.6335 34.3867 37.8647C34.2316 38.0254 33.8993 38.3695 33.6382 38.2548C33.3009 38.1064 33.2577 37.5111 33.196 37.1951C33.0291 36.347 32.8673 35.4982 32.7055 34.6491C32.3776 32.9261 32.0847 31.194 31.7238 29.4776C31.5683 28.7374 31.1347 27.9534 30.2814 27.8656C29.7068 27.8065 29.1673 28.095 28.7667 28.475C28.3563 28.864 27.9738 29.2824 27.5807 29.6875L25.682 31.6447L20.5011 36.9856C20.4073 36.6963 20.3244 36.4037 20.2525 36.1085C19.6968 33.857 20.3244 36.4034 20.2525 36.1085V36.1085ZM33.2679 37.5648C33.2714 37.5809 33.2694 37.5717 33.2679 37.5648V37.5648ZM43.0026 35.7345C42.3664 38.8639 40.3573 41.7612 37.5982 43.4707C34.7177 45.2557 31.0424 45.6665 27.8289 44.5308C26.899 44.1999 26.0145 43.7578 25.1959 43.2145C24.8011 42.9579 24.4263 42.673 24.0747 42.3622C24.0071 42.3016 23.9392 42.2407 23.8705 42.1801L23.7645 42.0865C23.7566 42.0796 23.7001 42.0262 23.7319 42.0608C23.014 41.3512 22.3609 40.6117 21.8119 39.7652C21.4687 39.2316 21.1698 38.672 20.9181 38.0918C20.8844 38.0139 20.7905 37.8831 20.8545 37.8195L21.1082 37.5671L22.7858 35.8971L26.4282 32.273L28.3614 30.3487C28.7471 29.9651 29.1205 29.5636 29.5266 29.2003C29.699 29.0508 29.9884 28.8379 30.2307 28.9315C30.559 29.0554 30.6226 29.5536 30.6749 29.8424C30.8319 30.7134 30.9855 31.5856 31.1414 32.4567C31.4414 34.1378 31.7422 35.8185 32.032 37.5011C32.0964 37.8759 32.1553 38.2774 32.356 38.6104C32.7122 39.2022 33.2934 39.5919 34.0246 39.4699C34.6494 39.3659 35.1042 38.9475 35.5342 38.5264L37.4784 36.6213C39.3571 34.7798 41.2386 32.9407 43.1235 31.1047C43.3713 32.6435 43.3376 34.2107 43.0026 35.7345C42.8365 36.5499 43.3603 34.1075 43.0026 35.7345V35.7345Z" fill="white"/>
</g>
<defs>
<clipPath id="clip0_2047_1039">
<rect width="67.5" height="67.5" fill="white"/>
</clipPath>
</defs>
</svg>
