<svg width="68" height="68" viewBox="0 0 68 68" fill="none" xmlns="http://www.w3.org/2000/svg">
<g clip-path="url(#clip0_2046_921)">
<path d="M58.16 57.0207C45.3097 70.5294 23.9437 71.0392 10.4306 58.1931C-3.03157 45.3471 -3.5415 23.988 9.35971 10.4793C22.2099 -3.0294 43.576 -3.53916 57.0891 9.30686C70.5512 22.2039 71.0102 43.5629 58.16 57.0207Z" fill="#F1F3F4"/>
<path d="M34.0873 28.2198C36.4166 28.2108 38.5214 29.6071 39.4184 31.7559C40.3164 33.9056 39.8288 36.3839 38.1856 38.0335C36.5423 39.683 34.0649 40.1795 31.9125 39.2906C29.7601 38.4016 28.3557 36.3022 28.3557 33.9729C28.3504 30.8023 30.9158 28.227 34.0873 28.2198ZM34.0873 12.0002C25.1815 11.9652 17.1332 17.3034 13.7003 25.5206C10.2675 33.7377 12.1289 43.2146 18.4137 49.5245C24.6984 55.8344 34.1673 57.7326 42.3987 54.3321C50.6302 50.9325 55.9999 42.9057 55.9999 33.9999C56.0143 28.1758 53.7129 22.5852 49.603 18.4591C45.4931 14.333 39.9105 12.0092 34.0873 12.0002Z" fill="#00E8C1"/>
</g>
<defs>
<clipPath id="clip0_2046_921">
<rect width="67.5" height="67.5" fill="white"/>
</clipPath>
</defs>
</svg>
