<svg width="68" height="68" viewBox="0 0 68 68" fill="none" xmlns="http://www.w3.org/2000/svg">
<g clip-path="url(#clip0_2046_881)">
<path d="M58.16 57.0207C45.3097 70.5294 23.9437 71.0392 10.4306 58.1931C-3.03157 45.3471 -3.5415 23.988 9.35971 10.4793C22.2099 -3.0294 43.576 -3.53916 57.0891 9.30686C70.5512 22.2039 71.0102 43.5629 58.16 57.0207Z" fill="#F1F3F4"/>
<path fill-rule="evenodd" clip-rule="evenodd" d="M24.3457 26.8757C24.3892 27.1789 24.4378 27.477 24.5082 27.9427C26.4067 25.7564 28.6019 25.0962 31.0979 26.5738C32.6509 27.4937 33.3878 29.4254 33.0296 31.1614C32.5588 33.4296 31.2386 34.4786 28.1683 34.9993C29.3427 39.2632 26.9235 42.4333 22.4114 42.5472C17.7663 42.6649 14 39.2402 14 34.8842C14 33.2121 14.6397 31.952 15.704 31.7729C17.1714 31.535 17.8149 32.6173 18.4149 33.6612C18.9023 34.5106 19.3782 35.3498 20.2123 35.9127C20.4681 36.0854 20.7534 36.3298 21.0502 36.1507C21.4455 35.9178 21.2562 35.511 21.1641 35.1925C20.8289 34.0833 20.1957 33.1264 19.611 32.1414C18.8268 30.8096 18.0848 29.4625 17.6358 27.9747C16.9539 25.7129 17.2417 23.5969 18.6912 21.7253C20.5526 19.3125 22.863 17.4447 25.7094 16.2793C22.9551 19.5172 23.3773 23.1645 24.3457 26.8757Z" fill="#276AB4"/>
<path fill-rule="evenodd" clip-rule="evenodd" d="M32.333 45.6035C32.9548 45.1276 33.6482 44.722 34.0371 43.9916C30.4448 42.6163 29.3139 41.3933 29.406 38.9754C29.4764 37.0974 30.8132 35.3448 32.5659 34.8305C34.8686 34.1601 36.5202 34.8791 38.2959 37.3891C39.886 35.7247 41.7615 35.529 43.8084 36.4207C46.216 37.471 47.6284 39.3861 48.1964 41.8705C48.9102 45.0035 48.0684 47.7079 45.5994 49.8354C45.3012 50.095 44.9785 50.3251 44.6361 50.5224C43.3696 51.2414 41.773 51.2964 41.182 50.5441C40.3005 49.4184 40.7662 48.2823 41.3994 47.232C41.9291 46.3557 42.4229 45.4845 42.4433 44.424C42.4433 44.1681 42.4971 43.8508 42.2489 43.6986C41.9073 43.499 41.6591 43.7856 41.4583 43.9967C40.6907 44.8026 40.2033 45.8043 39.6353 46.7395C38.9956 47.7949 38.3854 48.8721 37.6549 49.8623C35.8908 52.2482 33.5688 53.4226 30.5446 52.8814C27.9207 52.4106 25.4363 51.5714 23.2832 49.939C27.1224 50.2141 29.9842 48.4499 32.333 45.6035Z" fill="#0D9648"/>
<path fill-rule="evenodd" clip-rule="evenodd" d="M44.5437 28.9701C43.8183 28.6566 43.8835 28.9163 44.0678 29.5112C44.765 31.8063 43.8516 33.9542 41.8546 35.0199C40.0802 35.9666 38.435 35.712 36.9254 34.5274C35.3608 33.3043 34.7608 31.3943 35.508 29.5547C35.9672 28.4187 35.7075 28.1475 34.5933 27.9095C32.1204 27.385 30.6965 24.4797 31.3464 21.5361C32.3698 16.9203 37.6226 13.4035 42.4929 15.7459C42.9696 15.972 43.4212 16.2477 43.84 16.5685C44.6358 17.1851 44.9761 18.0346 44.7816 19.0312C44.5923 19.9727 43.7582 20.1288 42.9906 20.3834C42.4661 20.5561 41.9467 20.4973 41.4158 20.519C40.8426 20.5408 40.2478 20.4806 39.7117 20.6329C39.2141 20.7736 38.403 20.8324 38.4951 21.5795C38.5757 22.2665 39.3062 22.1143 39.809 22.1258C42.2716 22.1693 44.7381 22.0823 47.1688 22.6375C49.5496 23.1838 51.1346 24.6281 52.0762 26.8413C53.1636 29.4114 53.4617 32.1005 53.2506 34.86C51.567 31.2562 48.4238 29.7684 44.7714 29.011L44.7931 29.0276C44.733 28.8997 44.6678 28.8166 44.5437 28.9701Z" fill="#62A5CA"/>
<path fill-rule="evenodd" clip-rule="evenodd" d="M44.7617 29.0137C48.409 29.771 51.5574 31.2537 53.2409 34.8626C53.2627 37.9099 51.3309 39.7061 48.8913 38.8937C47.5071 38.4344 46.641 37.2869 46.6244 35.8234C46.6141 34.9842 46.6461 34.1462 46.6679 33.307C46.7101 31.5787 46.1421 30.1177 44.7617 29.0137Z" fill="#91D0EC"/>
<path fill-rule="evenodd" clip-rule="evenodd" d="M24.3467 26.8757C23.3731 23.1657 22.9394 19.5172 25.7053 16.2767C27.0895 15.765 28.4801 15.3236 29.8336 16.3356C30.9427 17.1633 31.2408 18.3159 31.0348 19.6259C30.8186 20.9999 29.8835 21.6869 28.6809 22.2178C26.8899 23.0071 25.1475 23.8898 24.5142 25.9725C24.4272 26.2655 24.4055 26.5789 24.3467 26.8757Z" fill="#1A4F87"/>
<path fill-rule="evenodd" clip-rule="evenodd" d="M32.3321 45.6037C29.9833 48.4501 27.1215 50.2092 23.2798 49.9533C22.154 49.3699 21.1536 48.6395 20.931 47.2911C20.6981 45.8838 21.0883 44.6672 22.3382 43.837C23.5113 43.0528 24.9403 43.1065 26.185 43.9342C26.8771 44.3947 27.559 44.8924 28.2895 45.2877C29.5662 45.9657 30.9197 46.2472 32.3321 45.6037Z" fill="#2EB572"/>
</g>
<defs>
<clipPath id="clip0_2046_881">
<rect width="67.5" height="67.5" fill="white"/>
</clipPath>
</defs>
</svg>
