<svg width="68" height="68" viewBox="0 0 68 68" fill="none" xmlns="http://www.w3.org/2000/svg">
<path d="M34 0.25C79.0034 1.00938 78.9966 67.0007 34 67.75C-11.0034 66.994 -10.9966 1.00263 34 0.25Z" fill="black"/>
<path fill-rule="evenodd" clip-rule="evenodd" d="M40.6507 44.6554L44.8754 48.8269C38.5486 53.778 29.4315 53.8421 23.1217 48.8269L27.3397 44.6622C29.3003 45.9846 31.6206 46.6915 33.9962 46.6903C36.3718 46.6891 38.6915 45.9798 40.6507 44.6554ZM18.8628 45.9411C22.6493 45.8838 22.6493 51.8441 18.8628 51.7868C15.0763 51.8441 15.0763 45.8838 18.8628 45.9311V45.9411ZM49.2268 45.9411C53.0749 45.8871 53.0749 51.8441 49.2268 51.7868C45.3787 51.8441 45.3787 45.8838 49.2268 45.9311V45.9411ZM22.7006 45.1244C23.3854 45.7522 22.3584 46.7511 21.7045 46.1099C21.0506 45.4686 22.0775 44.4764 22.7006 45.1244ZM46.4195 45.1244C47.1248 45.7994 46.0053 46.7444 45.3548 46.1099C44.6359 45.4518 45.7759 44.4865 46.4195 45.1244ZM18.8902 23.2613L23.108 27.4327C21.8036 29.3667 21.1079 31.6374 21.1079 33.9599C21.1079 36.2824 21.8036 38.5533 23.108 40.4873L18.8902 44.6554C16.4729 41.5988 15.1602 37.834 15.1602 33.9583C15.1602 30.0825 16.4729 26.3178 18.8902 23.2613ZM49.0419 23.2613C51.4964 26.3017 52.8328 30.0726 52.8328 33.9583C52.8328 37.844 51.4964 41.615 49.0419 44.6554L44.7967 40.4873C46.1042 38.5551 46.8022 36.2844 46.8022 33.9617C46.8022 31.639 46.1042 29.3684 44.7967 27.4362L49.0419 23.2613ZM24.6692 43.1737C25.3779 43.8487 24.2585 44.797 23.608 44.1625C22.8856 43.5044 24.0187 42.556 24.6692 43.1703V43.1737ZM44.4474 43.1737C45.115 43.8082 44.1052 44.8071 43.4513 44.1625C42.7974 43.5179 43.8004 42.529 44.4474 43.1703V43.1737ZM26.6619 41.2229C27.3089 41.8608 26.3194 42.8633 25.6655 42.2153C25.0116 41.5673 26.0182 40.5783 26.6619 41.2061V41.2229ZM42.3762 41.2229C43.0438 41.8574 42.0338 42.8633 41.3799 42.2153C40.726 41.5673 41.7292 40.5817 42.3762 41.2061V41.2229ZM28.6373 39.279C29.2912 39.9135 28.2778 40.9158 27.6341 40.2645C26.9905 39.6131 27.9971 38.6275 28.6373 39.2755V39.279ZM40.5001 39.279C41.154 39.9135 40.1406 40.9158 39.4969 40.2645C38.8533 39.6131 39.8804 38.6275 40.5001 39.2755V39.279ZM30.6024 37.3316C31.3076 38.0066 30.171 38.9549 29.5308 38.3103C28.8255 37.6421 29.9519 36.6936 30.6024 37.3281V37.3316ZM38.5247 37.3316C39.1751 37.9627 38.1583 38.9651 37.5215 38.3103C36.8847 37.6556 37.8879 36.6835 38.511 37.3281L38.5247 37.3316ZM32.5847 35.3809C33.2694 36.0019 32.2217 37.0177 31.5883 36.3629C30.955 35.7082 31.9547 34.7328 32.5847 35.3775V35.3809ZM36.5322 35.3809C37.2374 36.0559 36.111 37.0076 35.4708 36.3629C34.745 35.7048 35.8885 34.743 36.5322 35.3775V35.3809ZM34.5669 33.5247C35.2277 34.1558 34.2246 35.1547 33.5673 34.5134C32.9099 33.8722 33.9267 32.8732 34.5669 33.5212V33.5247ZM36.4534 31.5773C37.1039 32.2084 36.111 33.204 35.4571 32.5628C34.8032 31.9215 35.8166 30.9258 36.4568 31.5738L36.4534 31.5773ZM32.5847 31.5773C33.2694 32.2084 32.2422 33.204 31.5883 32.5628C30.9344 31.9215 31.9444 30.9258 32.5847 31.5738V31.5773ZM38.5247 29.6332C39.182 30.2576 38.1617 31.2634 37.5283 30.6154C36.895 29.9674 37.8879 28.9684 38.511 29.6299L38.5247 29.6332ZM30.5955 29.6332C31.3213 30.2913 30.1642 31.2533 29.5308 30.6154C28.8187 29.9573 29.9519 28.9785 30.5955 29.6299V29.6332ZM40.4864 27.6791C41.1916 28.3541 40.0687 29.3024 39.4182 28.6645C38.7129 27.9929 39.8393 27.0312 40.4864 27.6758V27.6791ZM28.6373 27.6791C29.2912 28.3169 28.2743 29.3125 27.6341 28.6645C26.9939 28.0165 27.9971 27.0312 28.6373 27.6758V27.6791ZM42.3831 25.7284C43.037 26.3561 42.0167 27.3652 41.3799 26.7104C40.7431 26.0557 41.7463 25.0803 42.3831 25.7249V25.7284ZM26.6619 25.7284C27.3124 26.3561 26.2955 27.3652 25.6587 26.7104C25.0219 26.0557 26.0251 25.0803 26.6619 25.7249V25.7284ZM44.4647 23.781C45.1152 24.4155 44.1222 25.4077 43.4615 24.7665C42.8007 24.1252 43.8141 23.1329 44.4543 23.7776L44.4647 23.781ZM24.6796 23.781C25.3848 24.456 24.2619 25.3976 23.6114 24.7665C22.8958 24.0881 24.0222 23.1431 24.6692 23.7776L24.6796 23.781ZM34.0054 15.4447C37.9556 15.446 41.7896 16.7626 44.8858 19.1809L40.6337 23.3557C38.6589 22.0952 36.3564 21.4246 34.0037 21.4246C31.6511 21.4246 29.3488 22.0952 27.374 23.3557L23.1321 19.1875C26.2196 16.7644 30.0488 15.444 33.9952 15.4414L34.0054 15.4447ZM46.4229 21.8302C47.1453 22.5052 46.0018 23.4502 45.3582 22.8191C44.6461 22.1441 45.7622 21.1924 46.4127 21.8269L46.4229 21.8302ZM22.7179 21.8302C23.3649 22.4613 22.3754 23.4604 21.7215 22.8191C21.0676 22.1779 22.0775 21.1823 22.7075 21.8269L22.7179 21.8302ZM49.2816 16.0591C53.0716 16.0017 53.0716 21.9619 49.2816 21.9045C45.4848 21.9686 45.4883 15.9982 49.2714 16.0556L49.2816 16.0591ZM18.8115 16.0591C22.6596 16.0051 22.6596 21.8674 18.8115 21.8134C14.9667 21.864 14.9668 16.0016 18.815 16.0556L18.8115 16.0591Z" fill="white"/>
</svg>
