<svg width="68" height="68" viewBox="0 0 68 68" fill="none" xmlns="http://www.w3.org/2000/svg">
<path d="M33.75 67.5C52.3896 67.5 67.5 52.3896 67.5 33.75C67.5 15.1104 52.3896 0 33.75 0C15.1104 0 0 15.1104 0 33.75C0 52.3896 15.1104 67.5 33.75 67.5Z" fill="#FF0074"/>
<path d="M50.074 34.3972C50.074 35.2196 48.1739 36.17 44.3734 37.2484C44.7187 41.7427 44.8913 45.566 44.8913 48.7184C44.8913 54.1647 44.1996 56.8879 42.8163 56.8879C42.4216 56.8638 42.0434 56.7209 41.7314 56.478C41.4194 56.2351 41.1882 55.9035 41.068 55.5268C40.4923 54.0094 40.1427 52.4158 40.0304 50.7967C39.7287 46.6499 39.4052 42.5891 39.0599 38.6143C37.1155 39.1328 35.3444 39.5974 33.7464 40.008C32.1484 40.4187 29.7291 41.0772 26.4886 41.9835C22.687 51.9198 20.441 56.8874 19.7504 56.8863C19.3121 56.8358 18.8885 56.6979 18.5045 56.4806C18.1206 56.2634 17.7841 55.9713 17.5151 55.6217C16.7766 54.9191 16.3461 53.9528 16.3175 52.9339C17.3618 49.7954 18.5949 46.723 20.0102 43.7334H19.5575C18.7132 43.741 17.895 43.4414 17.2553 42.8903C16.9378 42.6397 16.6822 42.3194 16.5082 41.9542C16.3342 41.589 16.2467 41.1887 16.2522 40.7842C16.2522 39.9422 18.3904 38.83 22.6669 37.4477C23.3564 35.8923 23.9179 34.4882 24.3514 33.2355C25.3448 30.7727 26.7272 27.403 28.4983 23.1265C30.2695 18.85 31.3924 16.1182 31.8674 14.9309C32.3824 13.693 33.2501 12.6338 34.3624 11.8852C35.3566 11.1111 36.5688 10.6687 37.8279 10.6206C39.1666 10.6206 40.3648 12.7588 41.4225 17.0353C42.6373 22.2629 43.4928 27.5676 43.9829 32.912C45.0369 32.7911 46.0966 32.7262 47.1575 32.7176C49.1084 32.7143 50.0805 33.2742 50.074 34.3972ZM28.8872 35.7582C31.9545 34.938 35.194 34.2464 38.6056 33.6832C37.8279 26.2979 37.0719 20.747 36.3378 17.0304C34.4 21.4822 31.9192 27.7248 28.8953 35.7582H28.8872Z" fill="white"/>
</svg>
