<svg width="68" height="68" viewBox="0 0 68 68" fill="none" xmlns="http://www.w3.org/2000/svg">
<path d="M34 67.75C52.6396 67.75 67.75 52.6396 67.75 34C67.75 15.3604 52.6396 0.25 34 0.25C15.3604 0.25 0.25 15.3604 0.25 34C0.25 52.6396 15.3604 67.75 34 67.75Z" fill="#EDF0F4"/>
<path d="M43.5328 26.8927C43.1533 26.6897 42.7297 26.5835 42.2993 26.5835C41.8689 26.5835 41.4451 26.6897 41.0656 26.8927L35.3079 30.3082L31.3996 32.4817L25.7465 35.8972C25.3674 36.1016 24.9436 36.2085 24.513 36.2085C24.0823 36.2085 23.6585 36.1016 23.2795 35.8972L18.8582 33.1972C18.4818 32.9729 18.17 32.6545 17.9535 32.2736C17.737 31.8926 17.6231 31.462 17.6229 31.0238V25.8499C17.6253 25.4121 17.7402 24.9823 17.9565 24.6017C18.1728 24.2211 18.4834 23.9025 18.8582 23.6764L23.2795 21.0876C23.659 20.8846 24.0826 20.7785 24.513 20.7785C24.9433 20.7785 25.367 20.8846 25.7465 21.0876L30.1678 23.7876C30.5437 24.0113 30.855 24.3291 31.071 24.7096C31.287 25.0901 31.4002 25.5203 31.3996 25.9578V29.3733L35.3079 27.0985V23.5785C35.3048 23.1408 35.1898 22.7113 34.9735 22.3308C34.7573 21.9503 34.4472 21.6316 34.0727 21.405L25.8478 16.5416C25.4683 16.3386 25.0445 16.2324 24.6142 16.2324C24.1838 16.2324 23.7602 16.3386 23.3807 16.5416L14.9432 21.5095C14.5654 21.7052 14.2497 22.0026 14.032 22.3682C13.8143 22.7338 13.7033 23.1531 13.7113 23.5785V33.3052C13.714 33.742 13.8286 34.1709 14.0442 34.5509C14.2599 34.9308 14.5694 35.2491 14.9432 35.4754L23.2727 40.3421C23.6522 40.545 24.0759 40.6512 24.5062 40.6512C24.9366 40.6512 25.3602 40.545 25.7397 40.3421L31.3828 37.0177L35.2911 34.7428L40.9442 31.4321C41.3232 31.2277 41.747 31.1207 42.1777 31.1207C42.6083 31.1207 43.0323 31.2277 43.4113 31.4321L47.8326 34.0173C48.209 34.2416 48.5207 34.5599 48.7372 34.9409C48.9537 35.3219 49.0676 35.7525 49.0678 36.1907V41.3646C49.0657 41.8025 48.9509 42.2325 48.7345 42.6131C48.5182 42.9938 48.2077 43.3122 47.8326 43.5381L43.5328 46.1302C43.1533 46.3331 42.7297 46.4393 42.2993 46.4393C41.8689 46.4393 41.4451 46.3331 41.0656 46.1302L36.6444 43.5416C36.2679 43.3172 35.9563 42.9989 35.7398 42.6179C35.5233 42.2369 35.4094 41.8063 35.4092 41.3681V38.0572L31.5042 40.3353V43.7677C31.5063 44.2051 31.6208 44.6348 31.8365 45.0153C32.0522 45.3959 32.3619 45.7146 32.7361 45.9411L41.0656 50.8079C41.4451 51.0108 41.8689 51.117 42.2993 51.117C42.7297 51.117 43.1533 51.0108 43.5328 50.8079L51.8589 45.9411C52.2358 45.7173 52.5478 45.3992 52.7644 45.0181C52.981 44.637 53.0947 44.206 53.0942 43.7677V33.9363C53.0915 33.4991 52.9765 33.0698 52.7602 32.6898C52.5438 32.3098 52.2335 31.9917 51.8589 31.7662L43.5328 26.8927Z" fill="#8247E5"/>
</svg>
