<svg width="68" height="68" viewBox="0 0 68 68" fill="none" xmlns="http://www.w3.org/2000/svg">
<g clip-path="url(#clip0_2048_1166)">
<path d="M58.16 57.0207C45.3097 70.5294 23.9437 71.0392 10.4306 58.1931C-3.03157 45.3471 -3.5415 23.988 9.35971 10.4793C22.2099 -3.0294 43.576 -3.53916 57.0891 9.30686C70.5512 22.2039 71.0102 43.5629 58.16 57.0207Z" fill="white"/>
<path fill-rule="evenodd" clip-rule="evenodd" d="M38.486 44.2465C39.0564 44.9739 39.7694 45.58 40.5825 46.0286C41.3956 46.4771 42.2919 46.7589 43.2178 46.8569C44.1437 46.955 45.0801 46.8673 45.9709 46.5991C46.8617 46.331 47.6885 45.8879 48.4019 45.2964C49.1152 44.7049 49.7004 43.9772 50.1223 43.1569C50.5442 42.3366 50.7942 41.4406 50.8573 40.5225C50.9204 39.6044 50.7952 38.6832 50.4894 37.8141C50.1836 36.945 49.7033 36.1458 49.0774 35.4644L38.9974 23.5934C37.8231 22.1553 36.1191 21.2368 34.2598 21.0398C32.4004 20.8427 30.538 21.3832 29.0818 22.5424C27.6733 23.7581 26.8109 25.4767 26.6842 27.3204C26.5575 29.1642 27.1768 30.9822 28.406 32.3748L38.486 44.2465ZM45.8818 42.3288C45.22 42.8558 44.3734 43.1015 43.5283 43.012C42.6832 42.9225 41.9086 42.505 41.3748 41.8513L31.2948 29.9828C30.7362 29.3498 30.4547 28.5235 30.5122 27.6854C30.5697 26.8474 30.9616 26.0663 31.6017 25.5136C32.2636 24.9866 33.1102 24.7408 33.9555 24.8303C34.8007 24.9199 35.5754 25.3373 36.1093 25.991L46.1893 37.8571C46.4663 38.1706 46.6782 38.5349 46.8128 38.9294C46.9473 39.3238 47.0019 39.7405 46.9734 40.1558C46.9449 40.571 46.8339 40.9767 46.6467 41.3495C46.4595 41.7224 46.1998 42.0551 45.8824 42.3288H45.8818Z" fill="url(#paint0_linear_2048_1166)"/>
<path fill-rule="evenodd" clip-rule="evenodd" d="M28.33 44.2465C27.1557 45.6847 25.4515 46.6034 23.5921 46.8004C21.7326 46.9975 19.87 46.4569 18.4138 45.2975C17.0052 44.0817 16.1428 42.3629 16.0162 40.5191C15.8896 38.6752 16.5091 36.8571 17.7387 35.4644L27.8187 23.5934C28.993 22.1553 30.697 21.2368 32.5563 21.0398C34.4156 20.8427 36.2781 21.3832 37.7343 22.5424C39.1428 23.7581 40.0052 25.4767 40.1319 27.3204C40.2586 29.1642 39.6393 30.9822 38.41 32.3748L28.33 44.2465ZM20.9343 42.3288C21.5961 42.8558 22.4426 43.1015 23.2878 43.012C24.1329 42.9225 24.9075 42.505 25.4412 41.8513L35.52 29.9828C36.0787 29.3498 36.3602 28.5235 36.3026 27.6854C36.2451 26.8474 35.8532 26.0663 35.2132 25.5136C34.5513 24.9868 33.7048 24.7411 32.8597 24.8306C32.0146 24.9202 31.2401 25.3375 30.7062 25.991L20.6268 37.8571C20.3498 38.1706 20.1379 38.535 20.0034 38.9294C19.869 39.3239 19.8144 39.7406 19.843 40.1559C19.8715 40.5712 19.9826 40.9768 20.1698 41.3496C20.3571 41.7224 20.6168 42.0552 20.9343 42.3288Z" fill="url(#paint1_linear_2048_1166)"/>
</g>
<defs>
<linearGradient id="paint0_linear_2048_1166" x1="38.7706" y1="19.8347" x2="38.7706" y2="46.9217" gradientUnits="userSpaceOnUse">
<stop stop-color="#0085FF"/>
<stop offset="1" stop-color="#29C8FA"/>
</linearGradient>
<linearGradient id="paint1_linear_2048_1166" x1="28.0741" y1="19.8372" x2="28.0741" y2="46.866" gradientUnits="userSpaceOnUse">
<stop stop-color="#0085FF"/>
<stop offset="1" stop-color="#29C8FA"/>
</linearGradient>
<clipPath id="clip0_2048_1166">
<rect width="67.5" height="67.5" fill="white"/>
</clipPath>
</defs>
</svg>
