<svg width="117" height="27" viewBox="0 0 117 27" fill="none" xmlns="http://www.w3.org/2000/svg">
<g opacity="0.7">
<path d="M33.025 21V18.27H26.599V14.826H32.416V12.243H26.599V8.841H33.025V6.111H23.701V21H33.025ZM39.1577 7.581H36.6377V9.03C36.6377 9.954 36.1337 10.668 35.0417 10.668H34.5167V13.146H36.3857V17.955C36.3857 19.95 37.6457 21.147 39.6617 21.147C40.4807 21.147 40.9847 21 41.2367 20.895V18.585C41.0897 18.627 40.7117 18.669 40.3757 18.669C39.5777 18.669 39.1577 18.375 39.1577 17.472V13.146H41.2367V10.668H39.1577V7.581ZM45.8895 14.931C45.9525 13.797 46.6455 12.915 47.8215 12.915C49.1655 12.915 49.7325 13.818 49.7325 14.973V21H52.5255V14.49C52.5255 12.222 51.3075 10.395 48.6825 10.395C47.6955 10.395 46.5615 10.731 45.8895 11.529V5.796H43.0965V21H45.8895V14.931ZM57.3971 14.658C57.4601 13.713 58.2581 12.621 59.7071 12.621C61.3031 12.621 61.9751 13.629 62.0171 14.658H57.3971ZM62.2901 17.346C61.9541 18.27 61.2401 18.921 59.9381 18.921C58.5521 18.921 57.3971 17.934 57.3341 16.569H64.7261C64.7261 16.527 64.7681 16.107 64.7681 15.708C64.7681 12.39 62.8571 10.353 59.6651 10.353C57.0191 10.353 54.5831 12.495 54.5831 15.792C54.5831 19.278 57.0821 21.315 59.9171 21.315C62.4581 21.315 64.0961 19.824 64.6211 18.039L62.2901 17.346ZM73.2676 10.626C73.0576 10.605 72.8476 10.584 72.6166 10.584C71.7346 10.584 70.3066 10.836 69.6766 12.201V10.668H66.9676V21H69.7606V16.275C69.7606 14.049 70.9996 13.356 72.4276 13.356C72.6796 13.356 72.9526 13.377 73.2676 13.44V10.626ZM77.1667 14.658C77.2297 13.713 78.0277 12.621 79.4767 12.621C81.0727 12.621 81.7447 13.629 81.7867 14.658H77.1667ZM82.0597 17.346C81.7237 18.27 81.0097 18.921 79.7077 18.921C78.3217 18.921 77.1667 17.934 77.1037 16.569H84.4957C84.4957 16.527 84.5377 16.107 84.5377 15.708C84.5377 12.39 82.6267 10.353 79.4347 10.353C76.7887 10.353 74.3527 12.495 74.3527 15.792C74.3527 19.278 76.8517 21.315 79.6867 21.315C82.2277 21.315 83.8657 19.824 84.3907 18.039L82.0597 17.346ZM93.376 21H96.043C96.001 20.643 95.938 19.929 95.938 19.131V10.668H93.145V16.674C93.145 17.871 92.431 18.711 91.192 18.711C89.89 18.711 89.302 17.787 89.302 16.632V10.668H86.509V17.199C86.509 19.446 87.937 21.273 90.436 21.273C91.528 21.273 92.725 20.853 93.292 19.887C93.292 20.307 93.334 20.79 93.376 21ZM101.712 21V14.952C101.712 13.818 102.426 12.915 103.644 12.915C104.904 12.915 105.471 13.755 105.471 14.868V21H108.243V14.952C108.243 13.839 108.957 12.915 110.154 12.915C111.435 12.915 111.981 13.755 111.981 14.868V21H114.69V14.301C114.69 11.529 112.863 10.374 110.952 10.374C109.587 10.374 108.495 10.836 107.676 12.096C107.151 10.983 106.017 10.374 104.61 10.374C103.476 10.374 102.153 10.92 101.586 11.928V10.668H98.9187V21H101.712Z" fill="white"/>
<path d="M7.07047 1L6.91602 1.52498L6.91602 16.7587L7.07047 16.9129L14.1418 12.7331L7.07047 1Z" fill="white"/>
<path d="M7.07134 1L0 12.7331L7.07134 16.913L7.07134 9.51896L7.07134 1Z" fill="#EAECF3"/>
<path d="M7.07141 19.213L6.98438 19.3191V24.7457L7.07141 24.9999L14.147 15.0353L7.07141 19.213Z" fill="white"/>
<path d="M7.07133 25V19.213L0 15.0353L7.07133 25Z" fill="#DBDBDB"/>
<path d="M7.06836 16.913L14.1396 12.7332L7.06836 9.5191L7.06836 16.913Z" fill="white"/>
<path d="M0 12.7332L7.07122 16.9131L7.07122 9.5191L0 12.7332Z" fill="#DBDBDB"/>
</g>
</svg>
