<svg width="225" height="45" viewBox="0 0 225 45" fill="none" xmlns="http://www.w3.org/2000/svg">
<path d="M70.235 24.3324C70.235 26.6868 69.4753 28.6486 67.9616 30.2167C66.4418 31.7842 64.5257 32.5698 62.2188 32.5698C59.9066 32.5698 57.991 31.7842 56.4756 30.2167C54.9597 28.648 54.2026 26.6861 54.2026 24.3324V13.9955H56.6225V24.6367C56.6225 26.1669 57.1775 27.4797 58.3012 28.5745C59.4187 29.6668 60.7246 30.2173 62.2188 30.2173C63.7126 30.2173 65.0172 29.6674 66.1365 28.5745C67.2557 27.4797 67.8151 26.1669 67.8151 24.6367V13.9955H70.235V24.3324Z" fill="white"/>
<path d="M91.4768 32.1246H89.0618V21.533C89.0618 20.0047 88.5024 18.6913 87.3827 17.5898C86.2634 16.4882 84.9593 15.9341 83.4629 15.9341C81.9492 15.9341 80.634 16.4876 79.513 17.5898C78.3937 18.6919 77.8339 20.0047 77.8339 21.533V32.1246H75.4185V21.7871C75.4185 19.434 76.1808 17.4777 77.7068 15.92C79.2333 14.3617 81.1529 13.5816 83.4629 13.5816C85.753 13.5816 87.6629 14.3617 89.1911 15.92C90.7149 17.4777 91.4768 19.434 91.4768 21.7871V32.1246Z" fill="white"/>
<path d="M122.651 32.1246H120.137V20.9941C120.137 19.5932 119.733 18.3955 118.926 17.3993C118.123 16.4031 117.063 15.9028 115.746 15.9028C114.411 15.9028 113.261 16.3376 112.296 17.2077C111.328 18.0771 110.85 19.1603 110.85 20.4529V32.1252H108.307V20.4529C108.307 19.1609 107.819 18.0771 106.857 17.2077C105.891 16.3376 104.741 15.9028 103.407 15.9028C102.089 15.9028 101.043 16.3969 100.257 17.3828C99.4718 18.368 99.0796 19.5736 99.0796 20.9941V32.1246H96.5693V21.2801C96.5693 19.0103 97.2152 17.1881 98.5065 15.8073C99.7167 14.5135 101.305 13.7836 103.277 13.6116C105.908 13.4028 108.005 14.5264 109.577 16.9848C111.147 14.5264 113.243 13.4028 115.875 13.6116C117.846 13.7836 119.445 14.5135 120.68 15.8073C121.992 17.1887 122.651 19.0103 122.651 21.2801V32.1246Z" fill="white"/>
<path d="M146.408 23.0288V32.124H143.99V29.2915C142.025 31.5448 139.618 32.6231 136.768 32.5373C134.276 32.451 132.153 31.4866 130.401 29.6448C128.645 27.7987 127.77 25.6042 127.77 23.0601C127.77 20.41 128.714 18.1365 130.6 16.2365C132.487 14.339 134.745 13.4426 137.375 13.5479C139.921 13.6343 142.081 14.6048 143.863 16.4594C145.645 18.3147 146.494 20.5049 146.408 23.0288ZM143.99 22.8537C143.95 20.9409 143.269 19.3017 141.952 17.943C140.632 16.5837 139.05 15.9022 137.201 15.9022C135.268 15.9022 133.618 16.5837 132.262 17.943C130.901 19.3017 130.209 20.9507 130.188 22.8819C130.147 24.7972 130.777 26.4694 132.084 27.9053C133.393 29.3393 134.969 30.1004 136.819 30.1867C138.814 30.2687 140.518 29.5732 141.935 28.0988C143.348 26.62 144.033 24.8719 143.99 22.8537Z" fill="white"/>
<path d="M158.621 16.0627C157.498 16.1049 156.589 16.4129 155.888 16.9841C155.186 17.5585 154.712 18.0575 154.458 18.477C154.051 19.1786 153.853 20.1118 153.853 21.2776V32.124H151.308V13.9955H153.566V16.5733C154.076 15.5955 154.825 14.8423 155.824 14.3133C156.736 13.824 157.667 13.6018 158.622 13.6459V16.0627H158.621Z" fill="white"/>
<path d="M173.156 26.7198C173.285 28.351 172.713 29.7685 171.439 30.9637C170.169 32.1639 168.704 32.7107 167.051 32.6029C165.523 32.4963 164.246 31.8816 163.217 30.7555C162.186 29.6319 161.678 28.2977 161.678 26.7504H164.186V27.3585C164.186 27.9812 164.529 28.6229 165.205 29.2842C165.886 29.951 166.605 30.2694 167.37 30.2492C168.385 30.2308 169.191 29.9192 169.787 29.3246C170.314 28.7711 170.595 28.0486 170.612 27.1528C170.633 25.5987 169.751 24.5376 167.969 23.9626L165.842 23.2866C163.615 22.5874 162.449 21.0695 162.343 18.736C162.279 17.3357 162.752 16.1386 163.764 15.1393C164.771 14.1449 165.992 13.6116 167.417 13.5492C168.649 13.4873 169.803 13.8835 170.879 14.7413C171.952 15.5998 172.529 16.6658 172.615 17.9394V18.4776H170.071V18.0606C170.071 17.4183 169.803 16.8966 169.264 16.4998C168.721 16.1019 168.102 15.9022 167.4 15.9022C166.72 15.9249 166.135 16.1686 165.635 16.6376C165.136 17.1066 164.878 17.6932 164.856 18.3974C164.771 19.6986 165.544 20.6244 167.178 21.1772L169.277 21.8808C171.692 22.7105 172.986 24.322 173.156 26.7198Z" fill="white"/>
<path d="M194.025 32.1246H191.606V21.5642C191.606 20.0383 191.037 18.7176 189.909 17.6044C188.772 16.4937 187.446 15.9555 185.931 15.9983C184.389 16.0216 183.089 16.5323 182.03 17.5401C180.972 18.5492 180.441 19.8258 180.441 21.3731V32.1252H178.021V7.6012H180.441V16.5708C181.823 14.7707 183.597 13.8155 185.767 13.7089C188.018 13.6012 189.955 14.3451 191.582 15.9334C193.21 17.526 194.024 19.4872 194.024 21.8201V32.1246H194.025Z" fill="white"/>
<path d="M217.497 23.0288V32.124H215.077V29.2915C213.118 31.5448 210.707 32.6231 207.857 32.5373C205.365 32.451 203.242 31.4866 201.491 29.6448C199.734 27.7987 198.859 25.6042 198.859 23.0601C198.859 20.41 199.802 18.1365 201.688 16.2365C203.578 14.339 205.833 13.4426 208.465 13.5479C211.008 13.6343 213.169 14.6048 214.952 16.4594C216.734 18.3147 217.578 20.5049 217.497 23.0288ZM215.077 22.8537C215.034 20.9409 214.357 19.3017 213.04 17.943C211.719 16.5837 210.138 15.9022 208.286 15.9022C206.354 15.9022 204.704 16.5837 203.344 17.943C201.989 19.3017 201.295 20.9507 201.274 22.8819C201.232 24.7972 201.863 26.4694 203.172 27.9053C204.482 29.3393 206.057 30.1004 207.908 30.1867C209.906 30.2687 211.611 29.5732 213.022 28.0988C214.439 26.62 215.12 24.8719 215.077 22.8537Z" fill="white"/>
<path d="M225 7.6012H222.585V32.1246H225V7.6012Z" fill="white"/>
<path d="M38.916 20.5937C38.8903 19.5809 38.8622 18.6245 38.8622 17.6723V0H2.28917L9.38396 3.84221H35.0218V17.6717C35.0218 18.6778 35.0499 19.7052 35.0775 20.6971C35.1791 24.464 35.2838 28.3589 33.8805 31.6176C31.452 37.2539 25.9199 40.8977 19.7937 40.8977C12.331 40.8977 6.09896 36.1021 4.2859 28.9645C3.74584 26.8331 3.81687 24.6324 3.89402 22.2989C3.91974 21.476 3.94546 20.6261 3.94546 19.7726V10.6076L0.105081 8.57594V19.7738C0.105081 20.5649 0.0769151 21.3841 0.0536475 22.1753C-0.027789 24.6704 -0.109838 27.2519 0.5637 29.9111C2.81331 38.7797 10.5455 44.7397 19.7932 44.7397C27.4567 44.7397 34.3709 40.1856 37.4061 33.138C39.1481 29.1035 39.03 24.7769 38.916 20.5937Z" fill="#34D399"/>
<path d="M8.12891 25.9618C8.12891 26.0353 8.13319 26.1069 8.14179 26.1804C8.5508 29.8083 11.4715 36.6771 19.5998 36.6771C27.8488 36.6771 30.2123 29.7023 30.3115 26.0138C30.3115 25.9966 30.3139 25.9801 30.3139 25.9618V9.10991C30.3139 8.04813 29.453 7.18665 28.3913 7.18665H15.5599L22.6528 11.0301H26.4717V25.9293C26.4368 26.7118 25.9849 32.8343 19.6005 32.8343C13.2502 32.8343 12.1223 26.9127 11.9693 25.8381V14.8545L8.16566 12.8401C8.14421 12.9564 8.12891 13.0752 8.12891 13.1989V25.9618Z" fill="#34D399"/>
<path d="M8.17166 12.8027C8.16553 12.8149 8.16981 12.829 8.16553 12.84L11.9692 14.8545L8.17166 12.8027Z" fill="#34D399"/>
</svg>
