<svg width="48" height="48" viewBox="0 0 48 48" fill="none" xmlns="http://www.w3.org/2000/svg">
<rect width="48" height="48" rx="50%" fill="black"/>
<path d="M18.5178 37C16.0214 37 13.834 36.4494 11.9558 35.3481C10.1013 34.2468 8.63909 32.7265 7.56919 30.7873C6.52306 28.8241 6 26.5617 6 24C6 21.4383 6.52306 19.1878 7.56919 17.2486C8.63909 15.2855 10.1013 13.7532 11.9558 12.6519C13.834 11.5506 16.0214 11 18.5178 11C20.9905 11 23.166 11.5506 25.0442 12.6519C26.9225 13.7532 28.3847 15.2855 29.4308 17.2486C30.4769 19.1878 31 21.4383 31 24C31 26.5617 30.4769 28.8241 29.4308 30.7873C28.3847 32.7265 26.9225 34.2468 25.0442 35.3481C23.166 36.4494 20.9905 37 18.5178 37ZM18.5178 32.8702C20.8954 32.8702 22.7855 32.0801 24.1883 30.5C25.6148 28.9199 26.3281 26.7532 26.3281 24C26.3281 21.2468 25.6148 19.0801 24.1883 17.5C22.7855 15.9199 20.8954 15.1298 18.5178 15.1298C16.1403 15.1298 14.2382 15.9199 12.8117 17.5C11.3852 19.0801 10.6719 21.2468 10.6719 24C10.6719 26.7532 11.3852 28.9199 12.8117 30.5C14.2382 32.0801 16.1403 32.8702 18.5178 32.8702Z" fill="white"/>
<path fill-rule="evenodd" clip-rule="evenodd" d="M41.7118 12.7186L35.803 11.6768L33.6621 29.5769L37.6013 30.2715L41.7118 12.7186ZM34.2425 37.8027C35.6023 38.0425 36.8989 37.1345 37.1387 35.7748C37.3784 34.4151 36.4705 33.1184 35.1108 32.8787C33.7511 32.6389 32.4544 33.5468 32.2147 34.9066C31.9749 36.2663 32.8828 37.5629 34.2425 37.8027Z" fill="url(#paint0_linear_5927_6350)"/>
<defs>
<linearGradient id="paint0_linear_5927_6350" x1="34.2192" y1="37.1182" x2="36.0474" y2="12.0653" gradientUnits="userSpaceOnUse">
<stop stop-color="#FAFF00"/>
<stop offset="0.639539" stop-color="#00FFC2"/>
<stop offset="1" stop-color="#00A3FF"/>
</linearGradient>
</defs>
</svg>
