<svg width="112" height="27" viewBox="0 0 112 27" fill="none" xmlns="http://www.w3.org/2000/svg">
<g opacity="0.7">
<path d="M37.62 12.894V8.631H39.909C41.358 8.631 42.24 9.45 42.24 10.773C42.24 12.054 41.358 12.894 39.909 12.894H37.62ZM40.266 15.393C43.206 15.393 45.159 13.461 45.159 10.752C45.159 8.064 43.206 6.111 40.266 6.111H34.701V21H37.599V15.393H40.266ZM51.2111 18.774C49.8461 18.774 48.5861 17.766 48.5861 15.834C48.5861 13.881 49.8461 12.894 51.2111 12.894C52.5761 12.894 53.8361 13.881 53.8361 15.834C53.8361 17.787 52.5761 18.774 51.2111 18.774ZM51.2111 10.353C48.1241 10.353 45.7931 12.642 45.7931 15.834C45.7931 19.005 48.1241 21.315 51.2111 21.315C54.2981 21.315 56.6291 19.005 56.6291 15.834C56.6291 12.642 54.2981 10.353 51.2111 10.353ZM61.6268 21V5.796H58.8338V21H61.6268ZM68.187 25.074L74.676 10.668H71.694L69.153 16.716L66.402 10.668H63.273L67.662 19.698L65.226 25.074H68.187ZM75.1408 21.567C75.4348 23.541 77.3248 25.305 80.1598 25.305C84.0448 25.305 85.5778 22.722 85.5778 19.887V10.668H82.8898V11.886C82.5328 11.193 81.5878 10.479 79.9498 10.479C77.1148 10.479 75.1408 12.789 75.1408 15.519C75.1408 18.417 77.1988 20.538 79.9498 20.538C81.4408 20.538 82.4068 19.887 82.8268 19.215V19.971C82.8268 21.966 81.8398 22.848 80.0758 22.848C78.7528 22.848 77.8498 22.029 77.6608 20.895L75.1408 21.567ZM80.4328 18.144C78.9838 18.144 77.9548 17.136 77.9548 15.519C77.9548 13.923 79.0468 12.915 80.4328 12.915C81.7768 12.915 82.8688 13.923 82.8688 15.519C82.8688 17.115 81.8608 18.144 80.4328 18.144ZM93.047 18.774C91.682 18.774 90.422 17.766 90.422 15.834C90.422 13.881 91.682 12.894 93.047 12.894C94.412 12.894 95.672 13.881 95.672 15.834C95.672 17.787 94.412 18.774 93.047 18.774ZM93.047 10.353C89.96 10.353 87.629 12.642 87.629 15.834C87.629 19.005 89.96 21.315 93.047 21.315C96.134 21.315 98.465 19.005 98.465 15.834C98.465 12.642 96.134 10.353 93.047 10.353ZM103.463 15.057C103.463 13.86 104.177 12.915 105.395 12.915C106.739 12.915 107.306 13.818 107.306 14.973V21H110.099V14.49C110.099 12.222 108.923 10.395 106.361 10.395C105.248 10.395 104.009 10.878 103.379 11.949V10.668H100.67V21H103.463V15.057Z" fill="white"/>
<path d="M20.5169 9.33407C20.2558 9.19443 19.9644 9.12137 19.6683 9.12137C19.3722 9.12137 19.0806 9.19443 18.8196 9.33407L14.8583 11.6839L12.1695 13.1792L8.28024 15.529C8.01947 15.6697 7.7279 15.7432 7.43162 15.7432C7.13535 15.7432 6.84377 15.6697 6.583 15.529L3.54124 13.6715C3.28226 13.5171 3.06777 13.2981 2.9188 13.036C2.76984 12.7739 2.69147 12.4777 2.69137 12.1762V8.61662C2.69305 8.31545 2.77203 8.01976 2.92084 7.75791C3.06966 7.49607 3.28334 7.27687 3.54124 7.12131L6.583 5.34028C6.84409 5.20065 7.13554 5.12759 7.43162 5.12759C7.7277 5.12759 8.01916 5.20065 8.28024 5.34028L11.322 7.19784C11.5807 7.35176 11.7948 7.5704 11.9434 7.83218C12.092 8.09395 12.1699 8.38988 12.1695 8.69089V11.0407L14.8583 9.47567V7.05396C14.8562 6.75288 14.777 6.45736 14.6283 6.19559C14.4795 5.93382 14.2662 5.71454 14.0086 5.55865L8.34997 2.21269C8.08888 2.07306 7.79731 2 7.50124 2C7.20516 2 6.9137 2.07306 6.65262 2.21269L0.847764 5.63053C0.587826 5.76515 0.37067 5.96981 0.220908 6.22133C0.0711458 6.47285 -0.00523209 6.76128 0.000278441 7.05396V13.7458C0.00210799 14.0463 0.0809215 14.3414 0.229298 14.6028C0.377675 14.8642 0.590634 15.0832 0.847764 15.2388L6.57835 18.587C6.83944 18.7267 7.1309 18.7997 7.42697 18.7997C7.72305 18.7997 8.01451 18.7267 8.27559 18.587L12.1579 16.2999L14.8468 14.7348L18.736 12.4571C18.9968 12.3165 19.2884 12.2428 19.5846 12.2428C19.8809 12.2428 20.1726 12.3165 20.4334 12.4571L23.4751 14.2357C23.7341 14.39 23.9485 14.609 24.0974 14.8711C24.2464 15.1332 24.3248 15.4295 24.3249 15.731V19.2905C24.3234 19.5917 24.2445 19.8876 24.0956 20.1495C23.9468 20.4113 23.7332 20.6304 23.4751 20.7858L20.5169 22.5691C20.2558 22.7088 19.9644 22.7818 19.6683 22.7818C19.3722 22.7818 19.0806 22.7088 18.8196 22.5691L15.7778 20.7882C15.5188 20.6339 15.3044 20.4149 15.1555 20.1527C15.0065 19.8906 14.9281 19.5944 14.928 19.2929V17.0151L12.2415 18.5824V20.9438C12.2429 21.2447 12.3217 21.5403 12.4701 21.8021C12.6184 22.064 12.8315 22.2832 13.089 22.4391L18.8196 25.7873C19.0806 25.9269 19.3722 26 19.6683 26C19.9644 26 20.2558 25.9269 20.5169 25.7873L26.2451 22.4391C26.5044 22.2851 26.7191 22.0663 26.8681 21.8041C27.0171 21.5419 27.0954 21.2453 27.095 20.9438V14.18C27.0931 13.8792 27.014 13.5839 26.8652 13.3224C26.7164 13.061 26.5028 12.8421 26.2451 12.6869L20.5169 9.33407Z" fill="white"/>
</g>
</svg>
