<svg width="122" height="27" viewBox="0 0 122 27" fill="none" xmlns="http://www.w3.org/2000/svg">
<g opacity="0.7">
<path d="M43.382 9.492C43.046 7.875 41.702 5.796 38.342 5.796C35.591 5.796 33.428 7.896 33.428 10.227C33.428 12.453 34.94 13.839 37.061 14.301L39.182 14.763C40.673 15.078 41.408 16.002 41.408 17.073C41.408 18.375 40.4 19.446 38.342 19.446C36.095 19.446 34.919 17.913 34.772 16.254L32.798 16.884C33.071 19.005 34.772 21.315 38.363 21.315C41.534 21.315 43.508 19.215 43.508 16.905C43.508 14.826 42.122 13.272 39.644 12.726L37.418 12.243C36.158 11.97 35.507 11.151 35.507 10.08C35.507 8.694 36.704 7.602 38.384 7.602C40.463 7.602 41.366 9.072 41.534 10.143L43.382 9.492ZM48.0207 13.545C48.0207 9.66 50.6247 7.686 53.3967 7.686C56.1687 7.686 58.7727 9.66 58.7727 13.545C58.7727 17.43 56.1687 19.425 53.3967 19.425C50.6247 19.425 48.0207 17.43 48.0207 13.545ZM45.9207 13.545C45.9207 18.522 49.6587 21.315 53.3967 21.315C57.1347 21.315 60.8727 18.522 60.8727 13.545C60.8727 8.568 57.1347 5.796 53.3967 5.796C49.6587 5.796 45.9207 8.568 45.9207 13.545ZM73.4256 21V19.068H66.3906V6.111H64.3326V21H73.4256ZM87.1887 21H89.4147L83.4927 6.111H81.1197L75.1977 21H77.4027L78.9777 16.842H85.5717L87.1887 21ZM82.2537 8.253L84.8367 14.931H79.7127L82.2537 8.253ZM104.393 21V6.111H102.335V17.535L94.9012 6.111H92.1502V21H94.2082V8.862L102.251 21H104.393ZM119.108 21H121.334L115.412 6.111H113.039L107.117 21H109.322L110.897 16.842H117.491L119.108 21ZM114.173 8.253L116.756 14.931H111.632L114.173 8.253Z" fill="white"/>
<path fill-rule="evenodd" clip-rule="evenodd" d="M0.89881 10.5618H20.1206C20.3551 10.5592 20.582 10.6442 20.7571 10.8002L23.7974 13.5583C24.3596 14.068 23.9592 14.9364 23.1631 14.9364H3.9392C3.70512 14.9383 3.47873 14.8524 3.30481 14.6958L0.264523 11.9376C-0.301981 11.4302 0.102643 10.5618 0.89881 10.5618ZM0.264523 6.99652L3.30481 4.2384C3.48038 4.08328 3.70706 3.99842 3.94134 4.00002H23.1609C23.9571 4.00002 24.3617 4.87494 23.7952 5.37582L20.7593 8.13832C20.5837 8.29371 20.3572 8.37933 20.1228 8.37894H0.89881C0.102643 8.37457 -0.301981 7.50615 0.264523 6.99652ZM23.7952 19.5931L20.7549 22.3512C20.5796 22.5069 20.3529 22.5926 20.1184 22.5918H0.89881C0.102643 22.5918 -0.301981 21.7169 0.264523 21.2138L3.30481 18.4557C3.48038 18.3005 3.70706 18.2157 3.94134 18.2173H23.1609C23.9571 18.2173 24.3617 19.0856 23.7952 19.5931Z" fill="white"/>
</g>
</svg>
