<svg width="74" height="27" viewBox="0 0 74 35" fill="none" xmlns="http://www.w3.org/2000/svg">
<path d="M34.1976 15.562C30.2911 -7.07197 0.736992 -2.69207 0.209493 15.562C1.91541 16.4471 2.98665 16.9849 2.98665 16.9849C2.98665 16.9849 2.08258 17.5262 0.197266 18.7308C3.60318 40.9203 32.6479 37.6978 34.192 18.7052C32.3453 17.5732 31.3384 16.9756 31.3384 16.9756C31.3384 16.9756 32.202 16.5642 34.1976 15.562ZM19.6563 23.4649L16.8841 18.6991L14.0622 23.4649L11.9337 23.3189L15.9431 16.5595L12.3297 10.7241L14.5078 10.5294L17.0818 14.8575L19.6563 10.7241L21.6858 10.7726L18.3197 16.5109L22.0322 23.4162L19.6563 23.4649Z" fill="#9FA0A2"/>
<path d="M32.8207 14.6742C27.5245 -5.43802 3.25214 0.00299683 1.58959 14.6742C4.95748 16.5691 5.7217 17.0146 5.7217 17.0146C5.7217 17.0146 4.42005 17.8466 1.57812 19.6517C5.19114 38.9869 31.3802 35.2709 32.8154 19.6282C30.1724 17.9716 28.6134 17.0062 28.6134 17.0062C28.6134 17.0062 32.1769 15.0143 32.8207 14.6742ZM19.6577 23.4781L16.8859 18.7135L14.0646 23.4781L11.9363 23.3322L15.9452 16.574L12.3323 10.74L14.51 10.5453L17.0837 14.8725L19.6577 10.74L21.6869 10.7885L18.3211 16.5255L22.0333 23.4292L19.6577 23.4781Z" fill="#B8B9BB"/>
<path d="M69.8436 24.2164C68.8354 24.2164 67.9479 24.0472 67.2058 23.7128C66.4609 23.3771 65.8358 22.8949 65.3477 22.2794C64.8625 21.6671 64.4976 20.922 64.2637 20.0653C64.0319 19.2167 63.9141 18.2635 63.9141 17.2332C63.9141 16.22 64.0491 15.2787 64.3154 14.4345C64.5832 13.5852 64.9838 12.8445 65.5056 12.2339C66.0293 11.6206 66.6872 11.1374 67.4605 10.7971C68.2322 10.458 69.128 10.2858 70.1239 10.2858C70.7842 10.2858 71.4233 10.3539 72.0241 10.4889C72.627 10.6244 73.1798 10.8244 73.6672 11.0833L73.738 11.3054L73.0323 12.7156L72.808 12.7896C72.4384 12.6025 72.03 12.4387 71.5942 12.3032C71.1658 12.1702 70.6711 12.1028 70.1239 12.1028C69.5062 12.1028 68.9397 12.2206 68.4392 12.4532C67.94 12.6856 67.508 13.0242 67.1549 13.4602C66.799 13.8997 66.5199 14.4434 66.3254 15.0763C66.1289 15.714 66.0296 16.4453 66.0296 17.2511C66.0296 18.082 66.1171 18.8294 66.291 19.4717C66.4621 20.1068 66.7213 20.6476 67.0614 21.0794C67.3986 21.5078 67.8247 21.838 68.3278 22.0608C68.8346 22.2851 69.4388 22.3989 70.1239 22.3989C70.646 22.3989 71.1486 22.3468 71.6171 22.2445C72.0936 22.1405 72.5707 22.0183 73.035 21.8813L73.2487 22.0414V23.5119L73.1422 23.6673C72.9044 23.7595 72.6627 23.8422 72.4239 23.913C72.1851 23.984 71.9306 24.0423 71.6665 24.0861C71.4041 24.1291 71.1223 24.1621 70.828 24.1835C70.5307 24.2056 70.1994 24.2164 69.8436 24.2164Z" fill="#B8B9BB"/>
<path d="M52.0769 24.0357L51.9102 23.8688V10.6429L52.0769 10.476H55.7588C56.6972 10.476 57.5599 10.6198 58.3229 10.9028C59.0909 11.1879 59.7541 11.6172 60.2938 12.1793C60.8324 12.7398 61.2544 13.444 61.5477 14.2715C61.8394 15.0948 61.9869 16.0575 61.9869 17.1334C61.9869 18.2618 61.8379 19.2671 61.5435 20.1214C61.2472 20.9816 60.8112 21.7112 60.2476 22.2898C59.6838 22.8689 58.9819 23.3098 58.1623 23.6007C57.3486 23.8889 56.4152 24.0355 55.388 24.0355H52.0769V24.0357ZM55.225 22.2635C56.7609 22.2635 57.9312 21.8371 58.7028 20.9956C59.4782 20.1502 59.8711 18.8692 59.8711 17.188C59.8711 16.3273 59.7733 15.5746 59.5797 14.9507C59.3894 14.3347 59.1093 13.8213 58.7476 13.4251C58.3876 13.0307 57.9383 12.7331 57.4113 12.5411C56.877 12.3466 56.26 12.248 55.5776 12.248H53.9261V22.2635H55.225V22.2635Z" fill="#B8B9BB"/>
<path d="M48.3667 24.0357L48.2209 23.9499L45.1616 18.4618L41.9886 23.9521L41.8441 24.0357H40.1434L40 23.7837L44.0471 16.9578L40.2811 10.729L40.4239 10.476H42.2151L42.3585 10.5576L45.2189 15.3739L48.097 10.5573L48.2401 10.476H49.959L50.1013 10.7292L46.3449 16.9039L50.4191 23.7837L50.2754 24.0357H48.3667Z" fill="#B8B9BB"/>
</svg>
