<svg width="86" height="27" viewBox="0 0 86 27" fill="none" xmlns="http://www.w3.org/2000/svg">
<g opacity="0.7">
<path d="M37.9032 21V18.606H29.4402L37.7982 8.505V6.111H26.5212V8.484H34.5432L26.2902 18.522V21H37.9032ZM42.7488 21V10.773H40.3338V21H42.7488ZM39.9558 7.182C39.9558 8.064 40.6698 8.757 41.5308 8.757C42.4128 8.757 43.1268 8.064 43.1268 7.182C43.1268 6.3 42.4128 5.586 41.5308 5.586C40.6698 5.586 39.9558 6.3 39.9558 7.182ZM48.3274 21V5.796H45.8914V21H48.3274ZM53.9055 21V5.796H51.4695V21H53.9055ZM59.4627 21V10.773H57.0477V21H59.4627ZM56.6697 7.182C56.6697 8.064 57.3837 8.757 58.2447 8.757C59.1267 8.757 59.8407 8.064 59.8407 7.182C59.8407 6.3 59.1267 5.586 58.2447 5.586C57.3837 5.586 56.6697 6.3 56.6697 7.182ZM72.1183 24.99V10.773H69.7873V12.138C69.4303 11.403 68.4433 10.521 66.6583 10.521C63.6763 10.521 61.8073 12.915 61.8073 15.855C61.8073 18.9 63.8023 21.252 66.7213 21.252C68.1493 21.252 69.2203 20.685 69.7243 19.782V24.99H72.1183ZM64.2643 15.855C64.2643 13.902 65.3773 12.684 66.9943 12.684C68.5903 12.684 69.7453 13.902 69.7453 15.855C69.7453 17.808 68.5903 19.11 66.9943 19.11C65.3983 19.11 64.2643 17.808 64.2643 15.855ZM74.485 18.228C74.485 19.845 75.808 21.315 77.95 21.315C79.609 21.315 80.617 20.475 81.1 19.698C81.1 20.517 81.184 20.937 81.205 21H83.473C83.452 20.895 83.347 20.286 83.347 19.362V14.28C83.347 12.243 82.15 10.458 79 10.458C76.48 10.458 74.884 12.033 74.695 13.797L76.921 14.301C77.026 13.272 77.74 12.453 79.021 12.453C80.365 12.453 80.953 13.146 80.953 14.007C80.953 14.364 80.785 14.658 80.197 14.742L77.572 15.141C75.829 15.393 74.485 16.401 74.485 18.228ZM78.412 19.404C77.446 19.404 76.921 18.774 76.921 18.081C76.921 17.241 77.53 16.821 78.286 16.695L80.953 16.296V16.758C80.953 18.753 79.777 19.404 78.412 19.404Z" fill="white"/>
<path fill-rule="evenodd" clip-rule="evenodd" d="M1.72647 1.71873C0.83182 2.11242 0.101606 2.47 0.103519 2.51324C0.105433 2.55649 3.09709 4.02802 6.75173 5.78339L13.3962 8.97495C13.3894 9.50555 13.3962 12.4721 13.3962 12.4721L16.8185 10.9019V7.44523L10.1225 4.17919C6.4786 2.42905 3.46475 0.99847 3.42507 1C3.3854 1.00153 2.62112 1.32492 1.72647 1.71873ZM15.1214 13.4833L13.3816 14.2744V25L16.8185 23.3305V12.7147L15.1214 13.4833Z" fill="#DFDFDF"/>
<path d="M0 18.5485L13.3776 24.9984L13.4139 21.5202L4.25176 17.0556L13.4139 12.494V8.94171L0.0956369 2.51874L0 6.09297L9.0729 10.5245L0 15.0348V18.5485Z" fill="white"/>
</g>
</svg>
