<svg width="590" height="394" viewBox="0 0 590 394" fill="none" xmlns="http://www.w3.org/2000/svg">
<g opacity="0.42">
<path d="M178.471 141.407C179.635 137.806 180.952 134.263 182.421 130.787L250.579 62.6289C254.055 61.1602 257.598 59.8423 261.199 58.6792L178.471 141.407Z" fill="url(#paint0_linear_40_2410)"/>
<path d="M174.085 159.134C174.58 156.299 175.167 153.487 175.844 150.704L270.496 56.0514C273.28 55.3747 276.091 54.7878 278.926 54.2924L174.085 159.134Z" fill="url(#paint1_linear_40_2410)"/>
<path d="M172.332 174.227C172.475 171.781 172.685 169.348 172.961 166.928L286.72 53.1686C289.14 52.8929 291.574 52.6831 294.019 52.5403L172.332 174.227Z" fill="url(#paint2_linear_40_2410)"/>
<path d="M172.223 187.676C172.177 186.585 172.145 185.492 172.125 184.399C172.106 183.304 172.1 182.212 172.108 181.121L300.913 52.3156C302.004 52.3082 303.097 52.314 304.191 52.3332C305.285 52.3524 306.377 52.3849 307.469 52.4306L172.223 187.676Z" fill="url(#paint3_linear_40_2410)"/>
<path d="M173.297 199.943C173.031 197.949 172.809 195.947 172.631 193.939L313.732 52.8388C315.739 53.0165 317.741 53.2388 319.735 53.5051L173.297 199.943Z" fill="url(#paint4_linear_40_2410)"/>
<path d="M175.301 211.28C174.894 209.434 174.525 207.579 174.195 205.716L325.508 54.4024C327.371 54.7329 329.226 55.1019 331.072 55.509L175.301 211.28Z" fill="url(#paint5_linear_40_2410)"/>
<path d="M178.075 221.846C177.549 220.124 177.057 218.393 176.599 216.651L336.444 56.8071C338.185 57.265 339.917 57.757 341.638 58.2827L178.075 221.846Z" fill="url(#paint6_linear_40_2410)"/>
<path d="M181.513 231.75C180.884 230.136 180.285 228.511 179.716 226.876L346.668 59.924C348.303 60.4923 349.928 61.0913 351.542 61.7207L181.513 231.75Z" fill="url(#paint7_linear_40_2410)"/>
<path d="M185.541 241.062C184.818 239.545 184.124 238.016 183.457 236.476L356.268 63.6645C357.809 64.3313 359.338 65.0261 360.854 65.7486L185.541 241.062Z" fill="url(#paint8_linear_40_2410)"/>
<path d="M190.107 249.836C189.298 248.408 188.516 246.967 187.759 245.514L365.306 67.9669C366.759 68.7236 368.201 69.5062 369.629 70.3146L190.107 249.836Z" fill="url(#paint9_linear_40_2410)"/>
<path d="M195.174 258.11C194.285 256.765 193.42 255.406 192.58 254.034L373.827 72.7875C375.199 73.6281 376.557 74.493 377.902 75.3819L195.174 258.11Z" fill="url(#paint10_linear_40_2410)"/>
<path d="M200.716 265.908C199.75 264.642 198.807 263.362 197.887 262.067L381.859 78.0946C383.154 79.0149 384.435 79.9581 385.7 80.9239L200.716 265.908Z" fill="url(#paint11_linear_40_2410)"/>
<path d="M206.717 273.249C205.676 272.06 204.657 270.855 203.66 269.635L389.427 83.8678C390.647 84.8651 391.852 85.884 393.041 86.9245L206.717 273.249Z" fill="url(#paint12_linear_40_2410)"/>
<path d="M213.165 280.141C212.051 279.028 210.958 277.897 209.885 276.751L396.543 90.0929C397.689 91.1654 398.82 92.2588 399.934 93.3726L213.165 280.141Z" fill="url(#paint13_linear_40_2410)"/>
<path d="M237.477 69.0601L188.852 117.685C194.517 107.629 201.547 98.3202 209.83 90.0374C218.112 81.7547 227.421 74.725 237.477 69.0601Z" fill="url(#paint14_linear_40_2410)"/>
<path d="M410.349 276.136C409.186 279.737 407.868 283.28 406.4 286.756L338.242 354.914C334.766 356.382 331.222 357.7 327.622 358.863L410.349 276.136Z" fill="url(#paint15_linear_40_2410)"/>
<path d="M414.736 258.409C414.241 261.244 413.654 264.055 412.977 266.838L318.324 361.491C315.541 362.168 312.73 362.755 309.895 363.25L414.736 258.409Z" fill="url(#paint16_linear_40_2410)"/>
<path d="M416.488 243.316C416.345 245.761 416.135 248.195 415.86 250.614L302.1 364.374C299.681 364.65 297.247 364.859 294.802 365.002L416.488 243.316Z" fill="url(#paint17_linear_40_2410)"/>
<path d="M416.598 229.866C416.643 230.957 416.676 232.05 416.695 233.144C416.714 234.238 416.72 235.331 416.713 236.422L287.907 365.227C286.817 365.234 285.724 365.229 284.63 365.209C283.536 365.19 282.443 365.158 281.352 365.112L416.598 229.866Z" fill="url(#paint18_linear_40_2410)"/>
<path d="M415.523 217.599C415.79 219.594 416.012 221.595 416.19 223.603L275.089 364.704C273.081 364.526 271.079 364.304 269.085 364.037L415.523 217.599Z" fill="url(#paint19_linear_40_2410)"/>
<path d="M413.519 206.263C413.926 208.109 414.295 209.964 414.626 211.826L263.312 363.14C261.449 362.81 259.594 362.441 257.748 362.034L413.519 206.263Z" fill="url(#paint20_linear_40_2410)"/>
<path d="M410.746 195.696C411.271 197.418 411.763 199.15 412.221 200.891L252.377 360.735C250.636 360.277 248.904 359.785 247.182 359.26L410.746 195.696Z" fill="url(#paint21_linear_40_2410)"/>
<path d="M407.308 185.793C407.937 187.407 408.536 189.031 409.104 190.667L242.152 357.619C240.517 357.05 238.892 356.451 237.279 355.822L407.308 185.793Z" fill="url(#paint22_linear_40_2410)"/>
<path d="M403.28 176.48C404.002 177.997 404.697 179.526 405.364 181.067L232.552 353.878C231.012 353.211 229.483 352.516 227.966 351.794L403.28 176.48Z" fill="url(#paint23_linear_40_2410)"/>
<path d="M398.714 167.706C399.522 169.134 400.305 170.575 401.061 172.029L223.515 349.576C222.061 348.819 220.62 348.036 219.192 347.228L398.714 167.706Z" fill="url(#paint24_linear_40_2410)"/>
<path d="M393.646 159.432C394.535 160.777 395.4 162.136 396.241 163.508L214.994 344.755C213.622 343.914 212.263 343.05 210.918 342.161L393.646 159.432Z" fill="url(#paint25_linear_40_2410)"/>
<path d="M388.105 151.634C389.07 152.9 390.013 154.181 390.934 155.475L206.961 339.448C205.667 338.528 204.386 337.584 203.12 336.619L388.105 151.634Z" fill="url(#paint26_linear_40_2410)"/>
<path d="M382.104 144.294C383.144 145.483 384.163 146.688 385.161 147.907L199.393 333.675C198.173 332.677 196.969 331.659 195.779 330.618L382.104 144.294Z" fill="url(#paint27_linear_40_2410)"/>
<path d="M192.278 327.45C191.131 326.377 190.001 325.284 188.887 324.17L375.656 137.401C376.77 138.515 377.863 139.645 378.935 140.792L192.278 327.45Z" fill="url(#paint28_linear_40_2410)"/>
<path d="M351.343 348.482L399.968 299.857C394.303 309.913 387.274 319.222 378.991 327.505C370.708 335.788 361.399 342.817 351.343 348.482Z" fill="url(#paint29_linear_40_2410)"/>
</g>
<defs>
<linearGradient id="paint0_linear_40_2410" x1="212.609" y1="104.127" x2="352.398" y2="211.28" gradientUnits="userSpaceOnUse">
<stop stop-color="white" stop-opacity="0.9"/>
<stop offset="1" stop-color="white" stop-opacity="0"/>
</linearGradient>
<linearGradient id="paint1_linear_40_2410" x1="212.609" y1="104.127" x2="352.398" y2="211.28" gradientUnits="userSpaceOnUse">
<stop stop-color="white" stop-opacity="0.9"/>
<stop offset="1" stop-color="white" stop-opacity="0"/>
</linearGradient>
<linearGradient id="paint2_linear_40_2410" x1="212.609" y1="104.127" x2="352.398" y2="211.28" gradientUnits="userSpaceOnUse">
<stop stop-color="white" stop-opacity="0.9"/>
<stop offset="1" stop-color="white" stop-opacity="0"/>
</linearGradient>
<linearGradient id="paint3_linear_40_2410" x1="212.609" y1="104.127" x2="352.398" y2="211.28" gradientUnits="userSpaceOnUse">
<stop stop-color="white" stop-opacity="0.9"/>
<stop offset="1" stop-color="white" stop-opacity="0"/>
</linearGradient>
<linearGradient id="paint4_linear_40_2410" x1="212.609" y1="104.127" x2="352.398" y2="211.28" gradientUnits="userSpaceOnUse">
<stop stop-color="white" stop-opacity="0.9"/>
<stop offset="1" stop-color="white" stop-opacity="0"/>
</linearGradient>
<linearGradient id="paint5_linear_40_2410" x1="212.609" y1="104.127" x2="352.398" y2="211.28" gradientUnits="userSpaceOnUse">
<stop stop-color="white" stop-opacity="0.9"/>
<stop offset="1" stop-color="white" stop-opacity="0"/>
</linearGradient>
<linearGradient id="paint6_linear_40_2410" x1="212.609" y1="104.127" x2="352.398" y2="211.28" gradientUnits="userSpaceOnUse">
<stop stop-color="white" stop-opacity="0.9"/>
<stop offset="1" stop-color="white" stop-opacity="0"/>
</linearGradient>
<linearGradient id="paint7_linear_40_2410" x1="212.609" y1="104.127" x2="352.398" y2="211.28" gradientUnits="userSpaceOnUse">
<stop stop-color="white" stop-opacity="0.9"/>
<stop offset="1" stop-color="white" stop-opacity="0"/>
</linearGradient>
<linearGradient id="paint8_linear_40_2410" x1="212.609" y1="104.127" x2="352.398" y2="211.28" gradientUnits="userSpaceOnUse">
<stop stop-color="white" stop-opacity="0.9"/>
<stop offset="1" stop-color="white" stop-opacity="0"/>
</linearGradient>
<linearGradient id="paint9_linear_40_2410" x1="212.609" y1="104.127" x2="352.398" y2="211.28" gradientUnits="userSpaceOnUse">
<stop stop-color="white" stop-opacity="0.9"/>
<stop offset="1" stop-color="white" stop-opacity="0"/>
</linearGradient>
<linearGradient id="paint10_linear_40_2410" x1="212.609" y1="104.127" x2="352.398" y2="211.28" gradientUnits="userSpaceOnUse">
<stop stop-color="white" stop-opacity="0.9"/>
<stop offset="1" stop-color="white" stop-opacity="0"/>
</linearGradient>
<linearGradient id="paint11_linear_40_2410" x1="212.609" y1="104.127" x2="352.398" y2="211.28" gradientUnits="userSpaceOnUse">
<stop stop-color="white" stop-opacity="0.9"/>
<stop offset="1" stop-color="white" stop-opacity="0"/>
</linearGradient>
<linearGradient id="paint12_linear_40_2410" x1="212.609" y1="104.127" x2="352.398" y2="211.28" gradientUnits="userSpaceOnUse">
<stop stop-color="white" stop-opacity="0.9"/>
<stop offset="1" stop-color="white" stop-opacity="0"/>
</linearGradient>
<linearGradient id="paint13_linear_40_2410" x1="212.609" y1="104.127" x2="352.398" y2="211.28" gradientUnits="userSpaceOnUse">
<stop stop-color="white" stop-opacity="0.9"/>
<stop offset="1" stop-color="white" stop-opacity="0"/>
</linearGradient>
<linearGradient id="paint14_linear_40_2410" x1="212.609" y1="104.127" x2="352.398" y2="211.28" gradientUnits="userSpaceOnUse">
<stop stop-color="white" stop-opacity="0.9"/>
<stop offset="1" stop-color="white" stop-opacity="0"/>
</linearGradient>
<linearGradient id="paint15_linear_40_2410" x1="378.991" y1="327.505" x2="273.615" y2="224.175" gradientUnits="userSpaceOnUse">
<stop stop-color="white" stop-opacity="0.9"/>
<stop offset="1" stop-color="white" stop-opacity="0"/>
</linearGradient>
<linearGradient id="paint16_linear_40_2410" x1="378.991" y1="327.505" x2="273.615" y2="224.175" gradientUnits="userSpaceOnUse">
<stop stop-color="white" stop-opacity="0.9"/>
<stop offset="1" stop-color="white" stop-opacity="0"/>
</linearGradient>
<linearGradient id="paint17_linear_40_2410" x1="378.991" y1="327.505" x2="273.615" y2="224.175" gradientUnits="userSpaceOnUse">
<stop stop-color="white" stop-opacity="0.9"/>
<stop offset="1" stop-color="white" stop-opacity="0"/>
</linearGradient>
<linearGradient id="paint18_linear_40_2410" x1="378.991" y1="327.505" x2="273.615" y2="224.175" gradientUnits="userSpaceOnUse">
<stop stop-color="white" stop-opacity="0.9"/>
<stop offset="1" stop-color="white" stop-opacity="0"/>
</linearGradient>
<linearGradient id="paint19_linear_40_2410" x1="378.991" y1="327.505" x2="273.615" y2="224.175" gradientUnits="userSpaceOnUse">
<stop stop-color="white" stop-opacity="0.9"/>
<stop offset="1" stop-color="white" stop-opacity="0"/>
</linearGradient>
<linearGradient id="paint20_linear_40_2410" x1="378.991" y1="327.505" x2="273.615" y2="224.175" gradientUnits="userSpaceOnUse">
<stop stop-color="white" stop-opacity="0.9"/>
<stop offset="1" stop-color="white" stop-opacity="0"/>
</linearGradient>
<linearGradient id="paint21_linear_40_2410" x1="378.991" y1="327.505" x2="273.615" y2="224.175" gradientUnits="userSpaceOnUse">
<stop stop-color="white" stop-opacity="0.9"/>
<stop offset="1" stop-color="white" stop-opacity="0"/>
</linearGradient>
<linearGradient id="paint22_linear_40_2410" x1="378.991" y1="327.505" x2="273.615" y2="224.175" gradientUnits="userSpaceOnUse">
<stop stop-color="white" stop-opacity="0.9"/>
<stop offset="1" stop-color="white" stop-opacity="0"/>
</linearGradient>
<linearGradient id="paint23_linear_40_2410" x1="378.991" y1="327.505" x2="273.615" y2="224.175" gradientUnits="userSpaceOnUse">
<stop stop-color="white" stop-opacity="0.9"/>
<stop offset="1" stop-color="white" stop-opacity="0"/>
</linearGradient>
<linearGradient id="paint24_linear_40_2410" x1="378.991" y1="327.505" x2="273.615" y2="224.175" gradientUnits="userSpaceOnUse">
<stop stop-color="white" stop-opacity="0.9"/>
<stop offset="1" stop-color="white" stop-opacity="0"/>
</linearGradient>
<linearGradient id="paint25_linear_40_2410" x1="378.991" y1="327.505" x2="273.615" y2="224.175" gradientUnits="userSpaceOnUse">
<stop stop-color="white" stop-opacity="0.9"/>
<stop offset="1" stop-color="white" stop-opacity="0"/>
</linearGradient>
<linearGradient id="paint26_linear_40_2410" x1="378.991" y1="327.505" x2="273.615" y2="224.175" gradientUnits="userSpaceOnUse">
<stop stop-color="white" stop-opacity="0.9"/>
<stop offset="1" stop-color="white" stop-opacity="0"/>
</linearGradient>
<linearGradient id="paint27_linear_40_2410" x1="378.991" y1="327.505" x2="273.615" y2="224.175" gradientUnits="userSpaceOnUse">
<stop stop-color="white" stop-opacity="0.9"/>
<stop offset="1" stop-color="white" stop-opacity="0"/>
</linearGradient>
<linearGradient id="paint28_linear_40_2410" x1="378.991" y1="327.505" x2="273.615" y2="224.175" gradientUnits="userSpaceOnUse">
<stop stop-color="white" stop-opacity="0.9"/>
<stop offset="1" stop-color="white" stop-opacity="0"/>
</linearGradient>
<linearGradient id="paint29_linear_40_2410" x1="378.991" y1="327.505" x2="273.615" y2="224.175" gradientUnits="userSpaceOnUse">
<stop stop-color="white" stop-opacity="0.9"/>
<stop offset="1" stop-color="white" stop-opacity="0"/>
</linearGradient>
</defs>
</svg>
