<svg width="100" height="32" viewBox="0 0 100 32" fill="none" xmlns="http://www.w3.org/2000/svg">
<g opacity="0.4" clip-path="url(#clip0_6_165)">
<path fill-rule="evenodd" clip-rule="evenodd" d="M7.51585 27.2C4.09963 24.6486 1.89422 20.5766 1.89422 15.9856C1.89422 8.25945 8.15729 1.99639 15.8834 1.99639C22.2618 1.99639 29.2167 5.809 30.9032 11.6396C29.0149 5.13152 23.0041 0.360352 15.8762 0.360352C7.24197 0.360352 0.243774 7.35855 0.243774 15.9928C0.243774 24.627 7.24197 31.6252 15.8762 31.6252C24.5104 31.6252 31.5086 24.627 31.5086 15.9928V15.1712H30.651C30.6222 15.1712 30.5861 15.1712 30.5357 15.1712C30.4348 15.1712 30.2906 15.164 30.1032 15.1567C29.7357 15.1423 29.224 15.1207 28.6474 15.0703C27.4726 14.9694 26.1393 14.7676 25.224 14.4072C23.7609 13.8234 22.9321 13.045 21.9879 12.1369L21.9303 12.0865C20.9861 11.1784 19.9195 10.1549 18.0744 9.29008C16.2582 8.43243 14.2474 8.56936 12.7699 8.87927C12.0204 9.03062 11.3789 9.23963 10.9249 9.4054C10.6942 9.48468 10.514 9.56396 10.3843 9.61441C9.64197 9.92432 8.92125 10.2991 8.19332 10.6378C8.19332 10.6378 9.62035 11.027 10.3339 11.2504C10.3627 11.2576 10.3987 11.2721 10.4492 11.2865C10.5573 11.3225 10.7086 11.373 10.8888 11.4522C11.2636 11.6036 11.7537 11.8342 12.2366 12.1441C13.0005 12.6342 13.6348 13.254 13.8942 14.0108C12.2726 14.227 10.7519 14.9333 9.62035 15.6036C8.92846 16.0072 8.35909 16.4108 7.95549 16.7135C7.75368 16.8649 7.59513 16.9946 7.48702 17.0811C7.39332 17.1604 5.93026 18.4432 5.93026 18.4432C5.93026 18.4432 7.81855 18.645 8.74828 18.8324C9.3681 18.9549 10.2041 19.1567 11.0762 19.4595C11.9483 19.7622 12.8348 20.1658 13.5699 20.6775C14.305 21.1892 14.8456 21.7874 15.1122 22.4649C15.8834 24.4396 15.1267 26.3712 13.5987 27.4522C12.0924 28.5189 9.80774 28.7712 7.51585 27.2ZM12.8492 29.6504C13.4618 29.4486 14.0384 29.1604 14.5573 28.7928C16.633 27.3153 17.7213 24.6198 16.6474 21.8667C16.2222 20.7856 15.4149 19.9567 14.514 19.3297C13.6131 18.7027 12.5825 18.2414 11.624 17.9099C10.9969 17.6937 10.3843 17.5207 9.85098 17.391C10.0384 17.2685 10.2402 17.1387 10.4564 17.0162C11.7249 16.2739 13.3176 15.5892 14.8456 15.5892C17.1519 15.5892 18.8672 16.2955 20.5104 17.0522C20.6618 17.1243 20.8059 17.1892 20.9573 17.2613C22.4204 17.9459 23.9627 18.6739 25.7501 18.6739C27.487 18.6739 28.8348 18.1838 29.7645 17.6793C28.9357 24.6126 23.033 29.9892 15.8762 29.9892C14.8384 29.9748 13.8222 29.8595 12.8492 29.6504ZM27.9843 16.6558C27.3717 16.8649 26.6222 17.0162 25.7501 17.0162C24.3447 17.0162 23.1411 16.454 21.6131 15.7405C21.4762 15.6757 21.3393 15.6108 21.2023 15.5459C19.6744 14.8396 17.9014 14.0829 15.5951 13.9459C15.2852 12.418 14.1249 11.373 13.1375 10.7387C13.0294 10.6667 12.914 10.6018 12.8059 10.5369C12.9068 10.5153 13.0077 10.4937 13.1086 10.4721C14.442 10.1982 16.0348 10.1261 17.3753 10.7604C18.9753 11.5099 19.8762 12.382 20.8131 13.2829L20.842 13.3117C21.8077 14.2414 22.8312 15.2072 24.6113 15.9207C25.6059 16.3243 26.8888 16.5405 27.9843 16.6558Z" fill="white"/>
<path d="M96.3663 23.1209L99.2997 19.4669C99.3213 19.4453 99.3213 19.4092 99.3069 19.3876C99.2925 19.3588 99.2636 19.3444 99.2348 19.3444H98.0528C98.0312 19.3444 98.0096 19.3516 97.9952 19.3732L94.2907 23.9354C94.269 23.9642 94.233 23.9714 94.2042 23.957C94.1754 23.9498 94.1537 23.9137 94.1537 23.8849V19.4092C94.1537 19.366 94.1177 19.33 94.0745 19.33H93.1303C93.0871 19.33 93.051 19.366 93.051 19.4092L93.0366 28.4903C93.0366 28.5119 93.0438 28.5336 93.0582 28.548C93.0727 28.5624 93.0943 28.5696 93.1159 28.5696H94.0745C94.1177 28.5696 94.1537 28.5336 94.1537 28.4903V25.9173C94.1537 25.9029 94.1609 25.8813 94.1681 25.8669L95.4006 24.2957C95.415 24.2741 95.4438 24.2669 95.4654 24.2669C95.4943 24.2669 95.5159 24.2813 95.5303 24.3029L98.0168 28.5336C98.0312 28.5552 98.0528 28.5696 98.0817 28.5696H99.4582C99.0763 27.7119 96.6402 23.6903 96.3519 23.2146C96.3447 23.1786 96.3519 23.1498 96.3663 23.1209ZM71.9123 19.3083H70.9393C70.9105 19.3083 70.8889 19.33 70.8817 19.3588L70.3772 26.9263C70.3772 26.9552 70.3555 26.9768 70.3267 26.9768C70.2979 26.9768 70.2691 26.9624 70.2691 26.9336L69.1447 21.7804C69.1375 21.7516 69.1159 21.7372 69.0871 21.7372H67.7754C67.7465 21.7372 67.7249 21.7588 67.7177 21.7804C67.6312 22.2056 66.9609 25.5498 66.6654 26.948C66.6582 26.9768 66.6366 26.9912 66.6078 26.9912C66.579 26.9912 66.5573 26.9696 66.5573 26.9408C66.4709 25.3263 66.06 19.9282 66.0096 19.3588C66.0096 19.33 65.9808 19.3083 65.9519 19.3083C65.7717 19.3083 65.1808 19.3083 64.9862 19.3083C64.9717 19.3083 64.9573 19.3155 64.9429 19.3227C64.9357 19.3372 64.9285 19.3516 64.9285 19.366L65.6276 28.584C65.6276 28.584 65.642 28.5552 65.6348 28.584C65.642 28.5984 65.6708 28.584 65.6708 28.584H67.2636C67.2636 28.584 68.2438 23.539 68.3447 23.1282C68.3519 23.1065 68.3663 23.0921 68.3808 23.0849C68.4024 23.0777 68.424 23.0849 68.4456 23.0993C68.6258 23.2723 69.5195 28.0146 69.6132 28.5336C69.6204 28.5624 69.642 28.584 69.6708 28.584H71.2132C71.242 28.584 71.2636 28.5624 71.2709 28.5336L71.9627 19.366C71.9627 19.3516 71.9555 19.3372 71.9483 19.3227C71.9411 19.3155 71.9267 19.3083 71.9123 19.3083ZM43.8042 3.51734C43.9411 3.51734 43.9699 3.55338 43.9699 3.68311C43.9699 3.73356 43.9699 3.78401 43.9699 3.84167V4.36059C43.9699 4.42545 43.9699 4.48311 43.9699 4.54797V5.16059C43.9699 5.23266 43.9699 5.30473 43.9699 5.3768V6.51554C43.9699 6.59482 43.9699 6.6741 43.9699 6.75338V7.96419C43.9699 8.04347 43.9699 8.12275 43.9699 8.20923V9.62185C43.9699 9.69392 43.9699 9.7732 43.9699 9.84527V10.4867C43.9699 10.5516 43.9699 10.6236 43.9699 10.6885V11.2507C43.9699 11.3083 43.9699 11.366 43.9699 11.4236V11.7408C43.9699 11.7912 43.9699 11.8345 43.9699 11.8849V12.1372C43.9699 12.3678 43.9699 12.5336 43.9699 12.6056C43.9699 12.6561 43.9916 12.7137 43.9483 12.757C43.624 12.7498 43.2997 12.7498 42.9754 12.757C42.9249 12.7065 42.9537 12.6345 42.9537 12.5768V5.41284C42.9537 5.36239 42.9537 5.31914 42.9537 5.26869C42.9465 5.21824 42.9177 5.21104 42.8745 5.22545L42.8672 5.24707C42.86 5.26149 42.86 5.2759 42.8456 5.29031C42.8312 5.31194 42.8384 5.33356 42.8168 5.35518C42.7663 5.39842 42.3988 6.29212 42.0168 7.2723L41.8654 7.66869C41.4546 8.72095 41.0582 9.74437 41.0294 9.80924C40.979 9.91014 40.9934 9.93896 40.9141 9.8741C40.7988 9.7732 39.3645 6.0759 39.0474 5.29752C39.033 5.25428 38.9826 5.20383 38.9537 5.23987C38.9465 5.25428 38.9393 5.26869 38.9393 5.29031V6.5732C38.9393 7.99302 38.9105 12.1011 38.9105 12.6921V12.7642H38.8024C38.7808 12.7642 38.7519 12.7642 38.7303 12.7642H38.5501C38.5141 12.7642 38.4853 12.7642 38.4492 12.7642H38.1609C38.0745 12.7642 38.0096 12.7642 37.9736 12.7642C37.9591 12.7642 37.9375 12.7642 37.9231 12.7498C37.9159 12.7354 37.9159 12.7282 37.9159 12.7137C37.9231 12.4471 37.9231 11.6759 37.9231 10.6741V8.2741C37.9231 8.18761 37.9231 8.10113 37.9231 8.01464V7.50293C37.9231 5.96779 37.9159 4.46869 37.9159 3.59662V3.58221C37.9159 3.56779 37.9231 3.56058 37.9303 3.55338C37.9375 3.54617 37.9519 3.54617 37.9663 3.54617C38.1033 3.54617 38.2474 3.55338 38.3916 3.55338L39.2348 3.54617C39.2997 3.54617 39.3645 3.53896 39.379 3.62545C39.4654 3.71914 40.633 6.78941 40.8925 7.45248C40.9717 7.65428 41.0366 7.54617 41.0871 7.40923C41.1663 7.19302 42.4925 3.75518 42.5717 3.66149L42.579 3.65428V3.64707C42.5862 3.61824 42.5862 3.59662 42.6078 3.575C42.6294 3.56059 42.8168 3.55338 43.0474 3.55338H43.2564C43.2925 3.55338 43.3285 3.55338 43.3645 3.55338H43.6672C43.7033 3.51734 43.7609 3.51734 43.8042 3.51734ZM56.3808 12.7426C56.7051 12.7282 57.0222 12.7354 57.3465 12.7426C57.397 12.6921 57.3681 12.62 57.3681 12.5624C57.3681 10.0903 57.3681 5.05248 57.3681 5.00203C57.3681 4.95158 57.397 4.93716 57.4474 4.95878V4.96599C57.4763 4.98761 59.9916 11.3444 60.4961 12.6056C60.5033 12.6489 60.5249 12.6921 60.5609 12.7137C60.597 12.7426 60.6402 12.7498 60.6835 12.7426C60.9141 12.7354 61.9808 12.8218 62.1033 12.7426C62.1898 12.6777 62.1321 4.6777 62.1321 3.66149C62.1321 3.55338 62.1033 3.51734 61.988 3.51734C61.7573 3.52455 61.5195 3.51734 61.2817 3.51734C61.1015 3.51734 61.1015 3.51734 61.1015 3.69752C61.1015 6.14076 61.1159 11.157 61.0871 11.2218C61.0582 11.2507 58.1465 3.82725 57.9591 3.59662C57.9519 3.59662 57.9519 3.58941 57.9519 3.58941C57.9519 3.58221 57.9519 3.58221 57.9519 3.575C57.9303 3.49572 57.8582 3.51734 57.8078 3.51734C57.3681 3.51734 56.9213 3.51734 56.4817 3.51734C56.3663 3.51734 56.3447 3.56058 56.3447 3.66149C56.3447 6.64527 56.3519 9.62905 56.3447 12.6128C56.3447 12.6561 56.3159 12.7137 56.3808 12.7426ZM42.8096 19.3372C42.8096 19.3444 42.7808 26.9912 42.7808 26.9912L39.6384 19.3155H38.0456C38.0456 19.3155 38.0456 28.1444 38.0456 28.5552L39.0474 28.548L39.069 20.7786C39.069 20.7786 41.1375 26.0327 42.233 28.548H43.8114C43.8114 28.548 43.8114 19.3588 43.8114 19.33C43.8186 19.2507 42.8889 19.2939 42.8096 19.3372ZM52.9285 27.5894C52.8925 27.5894 52.8564 27.5966 52.8204 27.5966H48.5898C48.5465 27.6038 48.5033 27.5966 48.4672 27.5822C48.4384 27.5318 48.4528 27.4813 48.4528 27.4236C48.4528 26.4723 48.4528 25.5137 48.4528 24.5624C48.4528 24.3822 48.4528 24.3822 48.633 24.3822C49.9808 24.3822 51.3285 24.3822 52.6763 24.3822C52.806 24.3822 52.842 24.3462 52.8348 24.2236C52.8276 24.0074 52.8348 23.7912 52.8348 23.575C52.8348 23.402 52.8348 23.402 52.6546 23.402H48.6402C48.4528 23.402 48.4528 23.402 48.4528 23.2146C48.4528 22.3065 48.4528 21.3912 48.4528 20.4831C48.4528 20.3462 48.4961 20.3173 48.6258 20.3173C50.024 20.3246 51.415 20.3246 52.8132 20.3173C52.8708 20.3173 52.9285 20.339 52.979 20.2957V19.3588C52.9429 19.3155 52.8853 19.3372 52.842 19.3372C51.0546 19.3372 49.2745 19.3372 47.4871 19.33C47.3501 19.33 47.3357 19.3804 47.3357 19.4957C47.3357 22.4723 47.3357 25.4417 47.3357 28.4182C47.3357 28.5552 47.379 28.584 47.5087 28.584C49.2817 28.5768 51.0546 28.5768 52.8276 28.5768C52.8781 28.5768 52.9357 28.5984 52.979 28.5552C52.979 28.2453 52.979 27.9282 52.979 27.6182C52.9645 27.5966 52.9501 27.5894 52.9285 27.5894ZM72.0132 3.70473C72.0132 3.50293 72.0348 3.51734 71.8186 3.51734C69.7934 3.51734 67.7681 3.51734 65.7429 3.51734C65.469 3.51734 65.188 3.52455 64.9141 3.51734C64.806 3.51734 64.7772 3.55338 64.7772 3.65428C64.7844 3.88491 64.7844 4.12275 64.7772 4.35338C64.7699 4.49031 64.8204 4.51194 64.9429 4.50473C65.8294 4.49752 66.7231 4.50473 67.6096 4.50473C67.8402 4.50473 67.8186 4.4759 67.8186 4.70653C67.8186 5.93896 67.8186 7.1714 67.8186 8.40383C67.8186 9.78761 67.8186 12.8795 67.8186 12.8795H68.9429C68.9429 12.8795 68.9429 7.30113 68.9429 4.66329C68.9429 4.61284 68.9501 4.5696 68.9501 4.51915C69.0078 4.49032 69.0654 4.50473 69.1231 4.50473C70.0312 4.50473 70.9465 4.50473 71.8546 4.50473C71.9772 4.50473 72.0132 4.4759 72.006 4.35338C72.006 4.13716 72.0132 3.92095 72.0132 3.70473ZM62.8528 19.366C62.8024 19.3083 62.7303 19.3372 62.6727 19.3372C60.3952 19.3372 58.1249 19.3372 55.8474 19.3372C55.8186 19.3372 55.7826 19.3372 55.7537 19.3372C55.6672 19.33 55.6456 19.366 55.6456 19.4453C55.6456 19.6759 55.6456 19.9137 55.6456 20.1444C55.6456 20.3173 55.6456 20.3173 55.8186 20.3173C56.7195 20.3173 57.6204 20.3173 58.5213 20.3173C58.651 20.3173 58.6943 20.3462 58.6943 20.4831C58.6871 21.2182 58.6943 21.9534 58.6943 22.6885C58.6943 24.584 58.6943 26.4795 58.6943 28.375C58.6943 28.6128 58.6654 28.584 58.9105 28.584C59.1411 28.584 59.379 28.584 59.6168 28.584C59.833 28.584 59.8186 28.6128 59.8186 28.3966C59.8186 25.7876 59.8186 23.1786 59.8186 20.5696C59.8186 20.3318 59.8186 20.3318 60.0636 20.3318C60.9429 20.3318 61.8222 20.3318 62.7015 20.3318C62.7591 20.3318 62.8168 20.3606 62.8672 20.3101C62.8384 19.9858 62.8384 19.6759 62.8528 19.366ZM87.3429 19.3372C88.1213 19.366 88.8492 19.5534 89.3537 20.1948C89.779 20.7354 89.7645 21.3408 89.7718 22.0903C89.779 22.6236 89.7357 23.2218 89.4258 23.6615C89.0438 24.202 88.3952 24.4975 87.7465 24.5768C87.7033 24.584 87.6817 24.5912 87.6889 24.6273L87.7033 24.6561L89.988 28.5624L88.6618 28.584L86.5141 24.6417L85.0799 24.6633V24.93C85.0799 24.966 85.0799 25.002 85.0799 25.0381V25.2975C85.0799 25.348 85.0799 25.3984 85.0799 25.4489V25.7732C85.0799 26.0615 85.0799 26.3786 85.0799 26.6885V27.0633C85.0799 27.366 85.0799 27.6615 85.0799 27.8993V28.2741V28.3245V28.5552C85.0727 28.5696 85.0654 28.584 85.0438 28.584C84.6907 28.5912 84.3375 28.5912 83.9916 28.584C83.9844 28.584 83.9772 28.5768 83.9699 28.5696C83.9555 28.5552 83.9483 27.7119 83.9483 26.5155V26.148V26.0543V23.8489V23.7408V23.1858C83.9483 23.1137 83.9483 23.0345 83.9483 22.9624V22.5155C83.9483 22.4435 83.9483 22.3714 83.9483 22.2921V21.8597V21.7516V21.2255V21.1245V20.4255V20.3318V19.5318L83.9411 19.4525C83.9411 19.4237 83.9483 19.402 83.9627 19.3804C84.0132 19.3444 84.0781 19.3588 84.1285 19.3588C85.2024 19.3372 86.2763 19.2939 87.3429 19.3372ZM87.2636 20.3173H85.1591C85.0871 20.3173 85.0727 20.3318 85.0727 20.4038V23.6038C85.0727 23.6975 85.0943 23.6975 85.2096 23.6975C85.8799 23.6975 86.5501 23.6975 87.2276 23.6975C87.4006 23.6975 87.5808 23.6831 87.7537 23.6471C88.3087 23.5173 88.6474 23.1426 88.7123 22.6453C88.7627 22.2417 88.7627 21.8309 88.7195 21.4273C88.6763 20.966 88.4312 20.6273 87.9916 20.4471C87.7537 20.3534 87.5087 20.3101 87.2636 20.3173ZM53.5988 12.6705C53.5195 12.5912 50.9537 3.72635 50.8672 3.63266L50.86 3.62545V3.61104C50.8528 3.58941 50.8528 3.56059 50.8312 3.53896C50.3555 3.50293 49.8871 3.53176 49.4114 3.52455C49.2817 3.52455 46.8672 11.7047 46.5573 12.7354C46.7375 12.7426 46.9177 12.7426 47.0979 12.7426C47.2492 12.7426 47.5591 12.8363 47.6889 12.7498C47.8186 12.6633 48.3447 10.3426 48.46 10.2128C48.4817 10.148 48.5249 10.1336 48.597 10.1336C49.5844 10.1336 50.579 10.1336 51.5663 10.1336C51.6312 10.1336 51.6817 10.148 51.7033 10.2128C51.8474 10.6237 52.4096 12.6128 52.4096 12.6128C52.4168 12.6417 52.424 12.6705 52.4312 12.6921C52.4384 12.6921 52.4384 12.6993 52.4384 12.6993C52.4384 12.7065 52.4384 12.7065 52.4384 12.7137C52.4456 12.7354 52.46 12.7498 52.4745 12.7498C52.8492 12.7354 53.224 12.7354 53.606 12.7498C53.642 12.7354 53.6348 12.7137 53.6204 12.6921C53.6132 12.6777 53.606 12.6705 53.5988 12.6705ZM48.7483 9.12455C48.842 8.80023 48.9285 8.48311 49.0222 8.1732L49.9736 4.86509C49.988 4.82185 49.9952 4.78581 50.0096 4.74257C50.0168 4.71374 50.0528 4.69212 50.0817 4.69212C50.1177 4.68491 50.1465 4.70653 50.1537 4.74257C50.1609 4.76419 50.1609 4.78581 50.1681 4.80743C50.579 6.22005 50.9898 7.63987 51.3934 9.05969C51.4006 9.08131 51.4006 9.10293 51.4078 9.13176L48.7483 9.12455ZM78.197 3.51734C78.0168 3.51734 77.0366 3.51734 76.8708 3.51734C76.8492 3.51734 76.8276 3.53176 76.8204 3.55338L74.0672 12.8795H75.2276L75.9555 10.1336C75.9627 10.1119 75.9844 10.0975 76.006 10.0975H79.0835C79.1051 10.0975 79.1267 10.1119 79.1339 10.1336C79.2132 10.4074 79.9555 12.8795 79.9555 12.8795C79.9555 12.8795 81.1159 12.8939 81.1231 12.8795C81.1303 12.8074 78.3988 4.06509 78.233 3.54617C78.2258 3.53176 78.2114 3.51734 78.197 3.51734ZM78.8384 9.13176C78.6006 9.13176 76.5033 9.10293 76.251 9.10293C76.2438 9.10293 76.2366 9.10293 76.2366 9.09572C76.2366 9.08851 76.2294 9.08851 76.2366 9.08131C76.3159 8.80743 77.0727 6.16239 77.4546 4.85067C77.469 4.79302 77.4979 4.69933 77.5555 4.69933C77.606 4.69933 77.6348 4.79302 77.6492 4.84347C78.0312 6.16239 78.7808 8.84347 78.86 9.11014C78.86 9.11734 78.86 9.11734 78.86 9.12455C78.8528 9.12455 78.8456 9.13176 78.8384 9.13176ZM80.7267 22.2345C80.7123 21.3984 80.3808 20.6056 79.7898 20.0146C79.1988 19.4236 78.3916 19.0849 77.5555 19.0921C75.8114 19.0921 74.4204 20.4759 74.3844 22.2345C74.3772 22.4002 74.3699 22.6381 74.3627 22.8903C74.3483 23.2507 74.3339 23.6255 74.3339 23.8705C74.3339 24.13 74.3483 24.5264 74.3555 24.9083C74.3627 25.139 74.37 25.3552 74.37 25.5137C74.3844 26.3498 74.7159 27.1426 75.3069 27.7336C75.8979 28.3245 76.7051 28.6633 77.5411 28.6561C79.2781 28.6561 80.6763 27.2723 80.7123 25.5137C80.7195 25.348 80.7267 25.1101 80.7339 24.8579C80.7483 24.4975 80.7627 24.1227 80.7627 23.8777C80.7627 23.6182 80.7483 23.2218 80.7411 22.8399C80.7411 22.6092 80.7339 22.393 80.7267 22.2345ZM79.7105 23.8705C79.7105 24.1011 79.6961 24.4615 79.6817 24.8146C79.6745 25.0741 79.66 25.3191 79.66 25.4921C79.6312 26.6813 78.7015 27.611 77.5411 27.611C76.3808 27.611 75.4438 26.6813 75.4222 25.4993C75.4222 25.3336 75.415 25.1173 75.4078 24.8795C75.3934 24.5264 75.3862 24.1227 75.3862 23.8777C75.3862 23.6471 75.4006 23.2867 75.415 22.9336C75.4222 22.6741 75.4366 22.4363 75.4366 22.2561C75.4654 21.0669 76.3952 20.1372 77.5555 20.1372C78.7159 20.1372 79.6528 21.0669 79.6745 22.2489C79.6745 22.4146 79.6817 22.6309 79.6889 22.8687C79.7033 23.2291 79.7177 23.6327 79.7105 23.8705Z" fill="white"/>
</g>
<defs>
<clipPath id="clip0_6_165">
<rect width="99.2432" height="32" fill="white" transform="translate(0.222168)"/>
</clipPath>
</defs>
</svg>
