<svg width="122" height="32" viewBox="0 0 122 32" fill="none" xmlns="http://www.w3.org/2000/svg">
<g opacity="0.4" clip-path="url(#clip0_6_134)">
<path d="M18.3275 5.46161L19.1468 0.189597C18.3372 0.0637369 17.5086 0 16.6836 0H16.6711V10.7562H16.6836C17.1371 10.7562 17.5857 10.8143 18.0173 10.9288L19.4082 5.68751C19.0524 5.59311 18.6918 5.51848 18.3275 5.46161Z" fill="white"/>
<path d="M14.0903 11.4504L11.4138 6.83881L11.4134 6.83841C11.0979 7.02194 10.7901 7.22083 10.4956 7.43542L7.29871 3.05533C7.97117 2.5644 8.6868 2.12389 9.42665 1.7447L11.8595 6.49348C12.3533 6.24098 12.866 6.02756 13.3924 5.85573L11.7373 0.783C12.528 0.525229 13.3461 0.327965 14.1694 0.197266L15.0205 5.55317C14.6603 5.61007 14.3021 5.6883 13.9495 5.78311L15.3348 10.9325C14.8995 11.0495 14.4812 11.2237 14.0903 11.4504Z" fill="white"/>
<path d="M7.30848 11.1742L2.47619 8.71387C2.09821 9.45654 1.7763 10.2351 1.52014 11.0282L6.68 12.6966C6.84863 12.175 7.05999 11.6631 7.30888 11.1746L7.30848 11.1742Z" fill="white"/>
<path d="M40.993 10.9082H45.217L49.6583 20.9609H47.2767L43.7977 13.0866H43.1712V20.9609H40.993V10.9082Z" fill="white"/>
<path d="M85.4157 20.9609H83.2373V10.9082H85.4157V20.9609Z" fill="white"/>
<path d="M83.2374 20.9609L78.7961 10.9082H73.7656V20.9609H75.9441V13.0865H77.377L80.8558 20.9609H83.2374Z" fill="white"/>
<path d="M54.0994 10.9082L49.6582 20.9608L52.0398 20.9609L55.5185 13.0865H56.145V20.9609H58.3234V10.9082H54.0994Z" fill="white"/>
<path fill-rule="evenodd" clip-rule="evenodd" d="M64.0799 10.9082H68.0652L72.5065 20.9609H70.1249L68.6779 17.6853H63.4673L62.0202 20.9609H59.6387L64.0799 10.9082ZM65.499 13.0865L64.4297 15.5069H67.7154L66.6459 13.0865H65.499Z" fill="white"/>
<path d="M86.6255 13.0865V10.9082H98.9696V13.0865H93.8868V20.9609H91.7083V13.0865H86.6255Z" fill="white"/>
<path d="M102.358 10.9082H100.18V20.9609H109.66V18.7825H102.358V10.9082Z" fill="white"/>
<path d="M121.157 10.9082V13.0865H113.048V14.7001H120.077V16.8785H113.048V18.7825H121.157V20.9609H110.87V10.9082H121.157Z" fill="white"/>
<path d="M25.7758 10.6591L21.1658 13.338C21.3929 13.7285 21.5672 14.1473 21.6846 14.5817L26.8335 13.194C26.9283 13.5466 27.0066 13.9044 27.0639 14.2642L32.4189 13.4114C32.2879 12.5885 32.0902 11.77 31.8315 10.979L26.7597 12.6373C26.5874 12.1109 26.374 11.5986 26.1211 11.1048L30.8683 8.66872C30.4892 7.92968 30.0477 7.21405 29.5568 6.54199L25.178 9.74093C25.393 10.0354 25.5919 10.3428 25.7754 10.6587L25.7758 10.6591Z" fill="white"/>
<path d="M23.8964 1.72242C23.153 1.34487 22.3743 1.02331 21.5821 0.767578L19.9165 5.92825C20.4377 6.09647 20.95 6.30783 21.4393 6.55632L23.8964 1.72242Z" fill="white"/>
<path d="M21.9709 6.74368L19.2637 11.4421C19.6558 11.668 20.0172 11.9447 20.3387 12.265L27.9316 4.64641C27.3425 4.05948 26.7027 3.51448 26.0299 3.02637L22.8983 7.34515C22.5998 7.12893 22.2908 6.92763 21.9713 6.74328L21.9709 6.74368Z" fill="white"/>
<path d="M12.1945 13.3517L7.49735 10.6417C7.6817 10.3222 7.88341 10.0132 8.09962 9.71508L3.78247 6.58149C4.27058 5.90903 4.81596 5.26963 5.4033 4.68066L13.0186 12.2762C12.6979 12.5982 12.4204 12.96 12.1945 13.3517Z" fill="white"/>
<path d="M6.43846 13.2041L11.679 14.5987H11.6794C11.5645 15.0307 11.506 15.4805 11.506 15.9347H0.749756C0.749756 15.1073 0.813896 14.2755 0.940563 13.4631L6.21175 14.2848C6.26864 13.9205 6.34368 13.5599 6.43846 13.2041Z" fill="white"/>
<path d="M26.0591 20.6943L30.8913 23.1546C31.2694 22.412 31.5913 21.6334 31.8475 20.8403L26.6876 19.1719C26.519 19.6935 26.3076 20.2054 26.0587 20.6939L26.0591 20.6943Z" fill="white"/>
<path d="M19.2778 20.418L21.9544 25.0296C22.2698 24.8461 22.5776 24.6472 22.8721 24.4326L26.069 28.8126C25.3965 29.3037 24.6809 29.7441 23.9411 30.1232L21.5082 25.3745C21.0144 25.627 20.5021 25.8404 19.9753 26.0123L21.6304 31.0851C20.8398 31.3427 20.0217 31.5402 19.1983 31.6706L18.3476 26.3152C18.7078 26.2583 19.0656 26.1801 19.4186 26.0853L18.0333 20.9359C18.4686 20.8189 18.8869 20.6447 19.2778 20.418Z" fill="white"/>
<path d="M7.59189 21.2097L12.2023 18.5308C11.9752 18.1403 11.8009 17.7216 11.6836 17.2871L6.53456 18.6748C6.43978 18.3222 6.36152 17.9644 6.30424 17.6046L0.94873 18.4574C1.07984 19.2803 1.2775 20.0988 1.53608 20.8898L6.608 19.2315C6.78026 19.7579 6.99365 20.2702 7.24656 20.764L2.49939 23.2001C2.87859 23.9391 3.3199 24.6548 3.81085 25.3268L8.18972 22.1279C7.9747 21.8334 7.77584 21.526 7.59227 21.2101L7.59189 21.2097Z" fill="white"/>
<path d="M9.47168 30.1454C10.2151 30.5229 10.9937 30.8445 11.786 31.1003L13.4516 25.9396C12.9304 25.7714 12.4181 25.56 11.9288 25.3115L9.47168 30.1454Z" fill="white"/>
<path d="M11.3969 25.1248L14.1041 20.4264C13.712 20.2005 13.3505 19.9238 13.029 19.6035L5.43628 27.2221C6.02524 27.809 6.66503 28.3541 7.33789 28.8422L10.4695 24.5234C10.768 24.7396 11.077 24.9408 11.3965 25.1252L11.3969 25.1248Z" fill="white"/>
<path d="M21.1739 18.5166L25.871 21.2266L25.8706 21.227C25.6863 21.5465 25.4846 21.8555 25.2683 22.1536L29.5856 25.2872C29.0974 25.9597 28.5521 26.5991 27.9647 27.188L20.3497 19.592C20.6704 19.2701 20.948 18.9083 21.1739 18.5166Z" fill="white"/>
<path d="M15.3501 20.9395L13.9592 26.1808C14.315 26.2752 14.6757 26.3498 15.0399 26.4067L14.221 31.6786C15.0307 31.8044 15.8592 31.8682 16.6842 31.8682H16.6967V21.1121H16.6842C16.2308 21.1121 15.7822 21.054 15.3506 20.9395H15.3501Z" fill="white"/>
<path d="M21.6887 17.2702C21.8037 16.8379 21.8621 16.3887 21.8622 15.9346H32.6185C32.6185 16.7619 32.5542 17.5937 32.4275 18.4062L27.156 17.5841C27.0991 17.9483 27.0241 18.309 26.9293 18.6648L21.6887 17.2702Z" fill="white"/>
</g>
<defs>
<clipPath id="clip0_6_134">
<rect width="120.407" height="32" fill="white" transform="translate(0.749756)"/>
</clipPath>
</defs>
</svg>
