<svg width="80" height="80" viewBox="0 0 80 80" fill="none" xmlns="http://www.w3.org/2000/svg">
<path d="M40.0003 80C62.0917 80 80.0003 62.0914 80.0003 40C80.0003 17.9086 62.0917 0 40.0003 0C17.9089 0 0.000244141 17.9086 0.000244141 40C0.000244141 62.0914 17.9089 80 40.0003 80Z" fill="white"/>
<g clip-path="url(#clip0_0_636)">
<path d="M42.104 25.9489L43.1964 18.9195C42.1169 18.7517 41.0121 18.6667 39.9122 18.6667H39.8955V33.0084H39.9122C40.5167 33.0084 41.1149 33.0858 41.6904 33.2385L43.5449 26.2501C43.0705 26.1242 42.5897 26.0247 42.104 25.9489Z" fill="#0D0E10"/>
<path d="M36.4543 33.9344L32.8856 27.7856L32.885 27.785C32.4645 28.0297 32.0541 28.2949 31.6614 28.5811L27.3988 22.7409C28.2954 22.0864 29.2496 21.499 30.2361 20.9934L33.4799 27.3251C34.1383 26.9885 34.8219 26.7039 35.5238 26.4748L33.317 19.7112C34.3712 19.3675 35.462 19.1044 36.5597 18.9302L37.6946 26.0714C37.2143 26.1472 36.7367 26.2516 36.2666 26.378L38.1136 33.2438C37.5333 33.3998 36.9755 33.6321 36.4543 33.9344Z" fill="#0D0E10"/>
<path d="M27.4119 33.5663L20.9689 30.2859C20.4649 31.2761 20.0357 32.3142 19.6942 33.3716L26.574 35.5962C26.7988 34.9008 27.0806 34.2182 27.4125 33.5669L27.4119 33.5663Z" fill="#0D0E10"/>
<path d="M52.0352 32.879L45.8885 36.4509C46.1913 36.9716 46.4237 37.5299 46.5802 38.1092L53.4455 36.2589C53.5719 36.729 53.6762 37.2061 53.7526 37.6859L60.8927 36.5488C60.7181 35.4516 60.4545 34.3602 60.1095 33.3055L53.3471 35.5167C53.1174 34.8148 52.8329 34.1317 52.4956 33.4733L58.8252 30.2252C58.3197 29.2398 57.731 28.2856 57.0766 27.3895L51.2381 31.6548C51.5248 32.0474 51.7899 32.4573 52.0347 32.8785L52.0352 32.879Z" fill="#0D0E10"/>
<path d="M49.5293 20.9633C48.5381 20.4599 47.4998 20.0312 46.4436 19.6902L44.2227 26.5711C44.9176 26.7954 45.6007 27.0772 46.2531 27.4085L49.5293 20.9633Z" fill="#0D0E10"/>
<path d="M46.9617 27.6583L43.3521 33.9228C43.8749 34.224 44.3568 34.593 44.7855 35.0201L54.9093 24.862C54.1239 24.0794 53.2708 23.3527 52.3737 22.7019L48.1983 28.4603C47.8003 28.172 47.3882 27.9036 46.9623 27.6578L46.9617 27.6583Z" fill="#0D0E10"/>
<path d="M33.9268 36.4684L27.6639 32.855C27.9097 32.429 28.1786 32.017 28.4669 31.6195L22.7107 27.4414C23.3615 26.5448 24.0887 25.6923 24.8718 24.907L35.0256 35.0344C34.598 35.4637 34.228 35.9461 33.9268 36.4684Z" fill="#0D0E10"/>
<path d="M26.2519 36.2722L33.2393 38.1316H33.2399C33.0866 38.7077 33.0086 39.3074 33.0086 39.913H18.667C18.667 38.8099 18.7525 37.7008 18.9214 36.6175L25.9497 37.7132C26.0255 37.2275 26.1256 36.7466 26.2519 36.2722Z" fill="#0D0E10"/>
<path d="M52.4129 46.2592L58.8558 49.5396C59.3599 48.5494 59.7891 47.5113 60.1308 46.4539L53.2509 44.2292C53.026 44.9247 52.7442 45.6073 52.4123 46.2586L52.4129 46.2592Z" fill="#0D0E10"/>
<path d="M43.3711 45.8894L46.9399 52.0382C47.3605 51.7935 47.7709 51.5283 48.1635 51.2422L52.426 57.0822C51.5294 57.737 50.5753 58.3242 49.5888 58.8297L46.345 52.4981C45.6866 52.8348 45.0035 53.1193 44.3011 53.3485L46.508 60.1123C45.4537 60.4558 44.3629 60.719 43.2652 60.8929L42.1308 53.7524C42.6111 53.6766 43.0882 53.5722 43.5588 53.4458L41.7118 46.58C42.2922 46.424 42.8499 46.1917 43.3711 45.8894Z" fill="#0D0E10"/>
<path d="M27.7899 46.9456L33.9371 43.3737C33.6343 42.853 33.4019 42.2947 33.2454 41.7155L26.3801 43.5657C26.2537 43.0956 26.1494 42.6185 26.073 42.1388L18.9323 43.2758C19.1071 44.373 19.3707 45.4644 19.7155 46.5191L26.478 44.308C26.7077 45.0099 26.9922 45.6929 27.3295 46.3513L20.9999 49.5995C21.5055 50.5848 22.0939 51.539 22.7485 52.4351L28.587 48.1698C28.3003 47.7772 28.0352 47.3673 27.7904 46.9462L27.7899 46.9456Z" fill="#0D0E10"/>
<path d="M30.2962 58.8619C31.2874 59.3653 32.3256 59.7941 33.3819 60.1351L35.6027 53.2542C34.9078 53.0299 34.2247 52.7481 33.5723 52.4167L30.2962 58.8619Z" fill="#0D0E10"/>
<path d="M32.8631 52.1652L36.4727 45.9007C35.9499 45.5995 35.4679 45.2305 35.0393 44.8035L24.9156 54.9616C25.7009 55.7441 26.5539 56.4708 27.4511 57.1217L31.6265 51.3633C32.0245 51.6515 32.4365 51.9199 32.8625 52.1657L32.8631 52.1652Z" fill="#0D0E10"/>
<path d="M45.8992 43.3562L52.1621 46.9696L52.1615 46.9701C51.9157 47.3961 51.6468 47.8081 51.3585 48.2056L57.1148 52.3837C56.4639 53.2803 55.7368 54.1328 54.9536 54.9181L44.8003 44.7901C45.2279 44.3609 45.598 43.8785 45.8992 43.3562Z" fill="#0D0E10"/>
<path d="M38.1341 46.5847L36.2795 53.5732C36.7539 53.699 37.2348 53.7985 37.7205 53.8744L36.6286 60.9036C37.7081 61.0714 38.8129 61.1563 39.9128 61.1563H39.9295V46.8149H39.9128C39.3082 46.8149 38.7101 46.7374 38.1346 46.5847H38.1341Z" fill="#0D0E10"/>
<path d="M46.5857 41.6937C46.7389 41.1173 46.8169 40.5183 46.817 39.9128H61.1586C61.1586 41.016 61.073 42.1251 60.9041 43.2083L53.8753 42.1122C53.7995 42.5979 53.6995 43.0787 53.5731 43.5531L46.5857 41.6937Z" fill="#0D0E10"/>
</g>
<defs>
<clipPath id="clip0_0_636">
<rect width="42.6667" height="42.6667" fill="white" transform="translate(18.667 18.6667)"/>
</clipPath>
</defs>
</svg>
