<svg width="80" height="80" viewBox="0 0 80 80" fill="none" xmlns="http://www.w3.org/2000/svg">
<path d="M40 0C93.3374 0.9 93.3293 79.112 40 80C-13.3374 79.104 -13.3293 0.892 40 0Z" fill="#0D0E10"/>
<path fill-rule="evenodd" clip-rule="evenodd" d="M47.8823 52.6288L52.8893 57.5727C45.3908 63.4407 34.5854 63.5167 27.1072 57.5727L32.1063 52.6368C34.4299 54.2041 37.18 55.0419 39.9955 55.0405C42.811 55.0391 45.5603 54.1984 47.8823 52.6288ZM22.0595 54.1526C26.5472 54.0846 26.5472 61.1487 22.0595 61.0807C17.5718 61.1487 17.5718 54.0847 22.0595 54.1407V54.1526ZM58.0465 54.1526C62.6073 54.0886 62.6073 61.1487 58.0465 61.0807C53.4857 61.1487 53.4857 54.0847 58.0465 54.1407V54.1526ZM26.6081 53.1846C27.4196 53.9286 26.2025 55.1126 25.4275 54.3526C24.6525 53.5926 25.8696 52.4166 26.6081 53.1846ZM54.7194 53.1846C55.5553 53.9846 54.2285 55.1046 53.4575 54.3526C52.6054 53.5726 53.9566 52.4286 54.7194 53.1846ZM22.092 27.2727L27.0909 32.2167C25.5449 34.5088 24.7204 37.2 24.7204 39.9526C24.7204 42.7052 25.5449 45.3966 27.0909 47.6887L22.092 52.6288C19.2271 49.0061 17.6712 44.5441 17.6712 39.9507C17.6712 35.3572 19.2271 30.8954 22.092 27.2727ZM57.8274 27.2727C60.7364 30.8762 62.3203 35.3454 62.3203 39.9507C62.3203 44.5559 60.7364 49.0253 57.8274 52.6288L52.796 47.6887C54.3457 45.3987 55.1729 42.7076 55.1729 39.9548C55.1729 37.2019 54.3457 34.5108 52.796 32.2208L57.8274 27.2727ZM28.9412 50.8727C29.7812 51.6727 28.4545 52.7966 27.6835 52.0446C26.8274 51.2646 28.1703 50.1406 28.9412 50.8686V50.8727ZM52.3821 50.8727C53.1733 51.6247 51.9765 52.8086 51.2015 52.0446C50.4265 51.2806 51.6152 50.1086 52.3821 50.8686V50.8727ZM31.3029 48.5606C32.0698 49.3166 30.8971 50.5048 30.1221 49.7368C29.3471 48.9688 30.5401 47.7967 31.3029 48.5407V48.5606ZM49.9273 48.5606C50.7186 49.3126 49.5215 50.5048 48.7465 49.7368C47.9715 48.9688 49.1604 47.8007 49.9273 48.5407V48.5606ZM33.6441 46.2567C34.4191 47.0087 33.218 48.1967 32.4552 47.4247C31.6924 46.6527 32.8854 45.4846 33.6441 46.2526V46.2567ZM47.7037 46.2567C48.4788 47.0087 47.2776 48.1967 46.5148 47.4247C45.752 46.6527 46.9693 45.4846 47.7037 46.2526V46.2567ZM35.9731 43.9487C36.809 44.7487 35.4619 45.8727 34.7031 45.1087C33.8673 44.3167 35.2022 43.1926 35.9731 43.9446V43.9487ZM45.3625 43.9487C46.1334 44.6967 44.9283 45.8847 44.1735 45.1087C43.4188 44.3327 44.6078 43.1806 45.3462 43.9446L45.3625 43.9487ZM38.3225 41.6368C39.134 42.3728 37.8923 43.5767 37.1417 42.8007C36.391 42.0247 37.5759 40.8687 38.3225 41.6327V41.6368ZM43.001 41.6368C43.8369 42.4368 42.5019 43.5647 41.7431 42.8007C40.8829 42.0207 42.2382 40.8807 43.001 41.6327V41.6368ZM40.6719 39.4368C41.455 40.1848 40.2661 41.3687 39.4871 40.6087C38.708 39.8487 39.9131 38.6647 40.6719 39.4327V39.4368ZM42.9077 37.1288C43.6787 37.8768 42.5019 39.0567 41.7269 38.2967C40.9519 37.5367 42.1529 36.3567 42.9117 37.1247L42.9077 37.1288ZM38.3225 37.1288C39.134 37.8768 37.9167 39.0567 37.1417 38.2967C36.3667 37.5367 37.5637 36.3567 38.3225 37.1247V37.1288ZM45.3625 34.8247C46.1416 35.5647 44.9323 36.7567 44.1817 35.9887C43.431 35.2207 44.6078 34.0368 45.3462 34.8208L45.3625 34.8247ZM35.965 34.8247C36.8252 35.6047 35.4538 36.7447 34.7031 35.9887C33.8591 35.2087 35.2022 34.0488 35.965 34.8208V34.8247ZM47.6875 32.5087C48.5234 33.3087 47.1924 34.4326 46.4215 33.6766C45.5856 32.8806 46.9206 31.7408 47.6875 32.5048V32.5087ZM33.6441 32.5087C34.4191 33.2647 33.214 34.4446 32.4552 33.6766C31.6964 32.9086 32.8854 31.7408 33.6441 32.5048V32.5087ZM49.9354 30.1968C50.7104 30.9408 49.5012 32.1366 48.7465 31.3606C47.9918 30.5846 49.1807 29.4286 49.9354 30.1926V30.1968ZM31.3029 30.1968C32.0738 30.9408 30.8687 32.1366 30.1139 31.3606C29.3592 30.5846 30.5482 29.4286 31.3029 30.1926V30.1968ZM52.4025 27.8887C53.1734 28.6407 51.9967 29.8167 51.2135 29.0567C50.4304 28.2967 51.6314 27.1206 52.3902 27.8846L52.4025 27.8887ZM28.9535 27.8887C29.7894 28.6887 28.4584 29.8047 27.6875 29.0567C26.8394 28.2527 28.1743 27.1326 28.9412 27.8846L28.9535 27.8887ZM40.0064 18.0087C44.6881 18.0102 49.2321 19.5706 52.9016 22.4368L47.8621 27.3846C45.5215 25.8907 42.7927 25.096 40.0044 25.096C37.2161 25.096 34.4874 25.8907 32.1469 27.3846L27.1195 22.4446C30.7787 19.5728 35.317 18.0079 39.9943 18.0048L40.0064 18.0087ZM54.7233 25.5766C55.5795 26.3766 54.2243 27.4967 53.4615 26.7487C52.6175 25.9487 53.9403 24.8207 54.7113 25.5727L54.7233 25.5766ZM26.6285 25.5766C27.3954 26.3246 26.2227 27.5087 25.4477 26.7487C24.6727 25.9887 25.8696 24.8087 26.6162 25.5727L26.6285 25.5766ZM58.1115 18.7368C62.6033 18.6688 62.6033 25.7327 58.1115 25.6647C53.6116 25.7407 53.6157 18.6647 58.0994 18.7327L58.1115 18.7368ZM21.9987 18.7368C26.5595 18.6728 26.5595 25.6207 21.9987 25.5567C17.442 25.6167 17.4421 18.6687 22.0029 18.7327L21.9987 18.7368Z" fill="white"/>
</svg>
