<svg width="80" height="80" viewBox="0 0 80 80" fill="none" xmlns="http://www.w3.org/2000/svg">
<circle cx="40" cy="40" r="40" fill="#FF5050"/>
<path d="M64.3056 26.7444L40.6944 13.1855C40.2652 12.9382 39.7348 12.9382 39.3056 13.1855L15.6944 26.7444C15.2652 26.9916 15 27.4478 15 27.9423V55.0601C15 55.5546 15.2652 56.0108 15.6944 56.258L39.3056 69.8145C39.7348 70.0618 40.2652 70.0618 40.6944 69.8145L64.3056 56.258C64.7348 56.0108 65 55.5546 65 55.0601V27.9471C65 27.4526 64.7372 26.994 64.3056 26.7444ZM40 15.9822L61.8292 28.5184C58.4124 30.4558 55.3429 32.9429 52.7435 35.8789C47.8053 30.0837 40.9476 24.3629 31.6329 20.7883L40 15.9822ZM57.6746 45.3687C57.0525 45.3687 56.4882 45.0014 56.2375 44.4324C55.9144 43.6426 56.2929 42.7399 57.0886 42.4159C57.8819 42.0942 58.7886 42.4711 59.1141 43.2633C59.1913 43.4481 59.2298 43.6474 59.2298 43.8466C59.2298 44.0459 59.1913 44.2452 59.1141 44.43C58.8657 44.999 58.3015 45.3663 57.677 45.3687H57.6746ZM57.6746 40.7258C57.3008 40.7258 56.9319 40.7978 56.5823 40.9322C55.6925 39.6239 54.728 38.2915 53.6405 36.9496C55.9674 34.2992 58.6873 32.0186 61.7086 30.1917C60.1365 33.6054 58.8248 37.1296 57.7831 40.7378C57.7445 40.7378 57.7107 40.7258 57.6722 40.7258H57.6746ZM51.8273 36.9352C49.3195 39.9408 47.3085 43.2273 45.6954 46.5162C44.9166 35.2619 36.2264 26.4443 31.5606 22.2383C40.5015 25.7625 47.0843 31.3248 51.8273 36.9352ZM44.7237 51.4111C44.1016 51.4111 43.5373 51.0438 43.2866 50.4773C43.2094 50.2924 43.1708 50.0932 43.1708 49.8915C43.1539 49.0345 43.8363 48.3239 44.6971 48.3071C45.558 48.2903 46.2717 48.9696 46.2886 49.8267C46.3055 50.6837 45.6231 51.3943 44.7623 51.4111H44.7237ZM44.2969 46.8115C44.0292 46.8451 43.7664 46.9099 43.5156 47.0083C40.2459 42.5551 36.318 38.6204 31.8668 35.3363C32.1465 34.8658 32.2936 34.3304 32.2984 33.7831C32.2984 32.3235 31.2785 31.0583 29.8486 30.7415V22.5672C34.1382 26.3483 43.5976 35.3363 44.2969 46.8115ZM30.5937 34.3665C30.2464 35.1563 29.3229 35.5164 28.5296 35.1707C28.1679 35.0122 27.8786 34.7265 27.7218 34.3665C27.6447 34.1816 27.6061 33.9847 27.6061 33.7855C27.6326 32.9309 28.3488 32.2587 29.2048 32.2851C30.027 32.3091 30.6877 32.9669 30.7118 33.7855C30.7118 33.9847 30.6708 34.184 30.5937 34.3665ZM28.4573 22.6128V30.7439C27.7218 30.9119 27.0732 31.3392 26.6295 31.9466C24.0639 30.4942 21.3754 29.2651 18.5952 28.2784L28.4573 22.6152V22.6128ZM17.7826 30.7295C19.8587 33.7903 23.9361 40.3225 26.4053 47.6253C26.3788 47.6421 26.3474 47.6565 26.3209 47.6757C23.683 45.3999 20.8232 43.3953 17.7802 41.6933V30.7295H17.7826ZM29.646 50.254C29.646 50.4533 29.605 50.6525 29.5303 50.835C29.1831 51.6248 28.2571 51.9849 27.4638 51.6392C27.1021 51.4807 26.8152 51.1951 26.6561 50.835C26.3329 50.0427 26.7163 49.1425 27.5121 48.8208C28.3078 48.4991 29.212 48.8808 29.5351 49.673C29.6099 49.8579 29.6484 50.0547 29.6484 50.254H29.646ZM28.3825 60.3488L17.7826 54.2655V43.2945C20.476 44.8669 23.0175 46.689 25.3684 48.7344C24.51 50.2108 25.0188 52.1001 26.5017 52.9547C26.9285 53.1996 27.4084 53.3412 27.9003 53.3652C28.3367 55.7083 28.5537 58.0657 28.3849 60.3488H28.3825ZM29.7135 61.1146C29.9908 58.5003 29.7931 55.8067 29.306 53.1348C29.4531 53.07 29.5954 52.9931 29.7304 52.9067C33.4848 56.9878 36.6483 61.5707 39.1271 66.5257L29.7111 61.1146H29.7135ZM39.8794 64.9412C37.4127 60.2311 34.3335 55.8643 30.719 51.9561C31.6667 50.5181 31.264 48.5855 29.8196 47.6421C29.306 47.306 28.7056 47.1283 28.0908 47.1307C27.9726 47.1355 27.8569 47.1475 27.7411 47.1644C25.1972 39.5999 20.9968 32.9357 18.8797 29.8532C21.3633 30.7799 23.7698 31.9034 26.0725 33.2141C26.0364 33.4014 26.0171 33.591 26.0147 33.7807C26.0147 35.5068 27.4228 36.9039 29.1565 36.9039C29.7883 36.9039 30.408 36.7119 30.9288 36.3566C35.3125 39.5735 39.1778 43.4385 42.3896 47.8149C41.237 49.0753 41.3286 51.0294 42.5945 52.1769C42.7633 52.3306 42.949 52.465 43.1491 52.5778C41.6975 56.5965 40.6052 60.7329 39.8819 64.9412H39.8794ZM41.0465 66.42C41.7433 61.842 42.8863 57.3431 44.4608 52.9859C44.5476 52.9859 44.632 53.0124 44.7237 53.0124C45.0637 53.0076 45.4012 52.9499 45.7219 52.8371C47.3375 55.557 48.736 58.3994 49.9007 61.3378L41.0489 66.42H41.0465ZM51.1135 60.6392C49.9344 57.6984 48.5262 54.8537 46.9059 52.1289C48.1428 50.9454 48.1838 48.9864 46.9951 47.7525C46.9179 47.6733 46.8359 47.5965 46.7515 47.5268C48.3189 44.2668 50.2648 41.0019 52.7242 38.0203C53.7153 39.2518 54.6026 40.4761 55.4249 41.6765C54.2216 42.9056 54.2458 44.8717 55.4803 46.0672C55.7287 46.3073 56.0156 46.5066 56.3291 46.653C55.5406 50.5037 55.1259 54.4215 55.0897 58.3514L51.1159 60.6368L51.1135 60.6392ZM56.4882 57.5544C56.575 53.999 56.9777 50.4557 57.6915 46.9723C57.9929 46.9675 58.2943 46.9171 58.5812 46.8259C59.9195 49.2505 61.0793 51.7688 62.0534 54.3591L56.4882 57.5544ZM62.2174 51.0558C61.6001 49.6442 60.7851 47.9638 59.7844 46.1417C61.06 44.999 61.1637 43.0424 60.0135 41.7725C59.7603 41.4916 59.4565 41.2587 59.1165 41.0859C59.9725 38.1451 61.0094 35.2595 62.2222 32.4459L62.2174 51.0534V51.0558Z" fill="white"/>
</svg>
