<svg width="80" height="80" viewBox="0 0 80 80" fill="none" xmlns="http://www.w3.org/2000/svg">
<path d="M40 80C62.0914 80 80 62.0914 80 40C80 17.9086 62.0914 0 40 0C17.9086 0 0 17.9086 0 40C0 62.0914 17.9086 80 40 80Z" fill="#024C93"/>
<path d="M24.3458 49.9899C24.8982 49.4442 25.5994 49.0742 26.3616 48.9262C27.1238 48.7782 27.9128 48.8589 28.6292 49.1582C29.3456 49.4575 29.9576 49.962 30.388 50.6082C30.8184 51.2544 31.048 52.0134 31.048 52.7898C31.048 53.5663 30.8184 54.3254 30.388 54.9717C29.9576 55.6179 29.3456 56.1224 28.6292 56.4217C27.9128 56.721 27.1238 56.8017 26.3616 56.6537C25.5994 56.5057 24.8982 56.1355 24.3458 55.5898C23.9753 55.2238 23.681 54.7879 23.4802 54.3072C23.2794 53.8266 23.1759 53.3107 23.1759 52.7898C23.1759 52.2689 23.2794 51.7533 23.4802 51.2727C23.681 50.792 23.9753 50.3559 24.3458 49.9899Z" fill="white"/>
<path d="M51.2958 24.4006C51.8468 23.8496 52.5488 23.4743 53.3131 23.3223C54.0774 23.1703 54.8696 23.2483 55.5895 23.5465C56.3094 23.8447 56.9247 24.3497 57.3577 24.9977C57.7906 25.6456 58.0217 26.4073 58.0217 27.1865C58.0217 27.9658 57.7906 28.7277 57.3577 29.3756C56.9247 30.0235 56.3094 30.5284 55.5895 30.8266C54.8696 31.1248 54.0774 31.2028 53.3131 31.0508C52.5488 30.8988 51.8468 30.5235 51.2958 29.9725C50.5593 29.2339 50.1458 28.2336 50.1458 27.1906C50.1458 26.1477 50.5593 25.1472 51.2958 24.4086" fill="white"/>
<path d="M29.3958 46.9562L33.5557 51.1161L37.3637 47.3081C36.4238 46.9303 35.57 46.3662 34.8538 45.6499C34.1375 44.9336 33.5736 44.08 33.1957 43.1401L29.3958 46.9562Z" fill="white"/>
<path d="M48.0975 36.7875L51.9055 32.9795L47.7494 28.8196L43.9375 32.6276C44.8777 33.0069 45.7319 33.5714 46.4494 34.2875C47.1651 34.9984 47.7263 35.8496 48.0975 36.7875Z" fill="white"/>
<path d="M51.1728 55.3662C50.6223 54.8149 50.2476 54.1129 50.096 53.3488C49.9445 52.5846 50.0229 51.7928 50.3212 51.0732C50.6196 50.3536 51.1246 49.7385 51.7724 49.3058C52.4202 48.8731 53.1819 48.6423 53.9609 48.6423C54.7399 48.6423 55.5014 48.8731 56.1492 49.3058C56.797 49.7385 57.302 50.3536 57.6003 51.0732C57.8987 51.7928 57.9771 52.5846 57.8255 53.3488C57.674 54.1129 57.2992 54.8149 56.7488 55.3662C56.01 56.1038 55.0088 56.5183 53.9648 56.5183C52.9208 56.5183 51.9195 56.1038 51.1808 55.3662" fill="white"/>
<path d="M24.7396 29.6251C24.1886 29.0741 23.8133 28.372 23.6613 27.6078C23.5093 26.8435 23.5873 26.0513 23.8855 25.3314C24.1837 24.6115 24.6887 23.996 25.3367 23.563C25.9846 23.1301 26.7463 22.8992 27.5255 22.8992C28.3048 22.8992 29.0667 23.1301 29.7146 23.563C30.3625 23.996 30.8676 24.6115 31.1658 25.3314C31.464 26.0513 31.542 26.8435 31.39 27.6078C31.238 28.372 30.8627 29.0741 30.3117 29.6251C29.5729 30.3628 28.5717 30.7771 27.5277 30.7771C26.4837 30.7771 25.4824 30.3628 24.7437 29.6251" fill="white"/>
<path d="M47.4316 50.9455L51.5916 46.7895L47.7797 42.9814C47.4027 43.9212 46.8394 44.7749 46.1238 45.4912C45.4082 46.2075 44.555 46.7715 43.6156 47.1494" fill="white"/>
<path d="M37.6832 32.4076L33.8713 28.5996L29.7152 32.7596L33.5232 36.5676C33.8965 35.6283 34.4573 34.7749 35.1713 34.0596C35.8814 33.3429 36.7327 32.7817 37.6713 32.4115" fill="white"/>
<path d="M44.6494 21.2755C44.6487 22.0554 44.4167 22.8177 43.9828 23.4657C43.549 24.1138 42.9327 24.6186 42.2119 24.9165C41.4912 25.2144 40.6984 25.292 39.9336 25.1394C39.1688 24.9867 38.4664 24.6106 37.9153 24.0589C37.3641 23.5072 36.9888 22.8045 36.8369 22.0396C36.6851 21.2746 36.7635 20.4819 37.0621 19.7614C37.3608 19.041 37.8662 18.4251 38.5147 17.9919C39.1632 17.5587 39.9256 17.3276 40.7055 17.3276C41.2241 17.3266 41.7378 17.428 42.217 17.6261C42.6963 17.8242 43.1316 18.1149 43.4981 18.4817C43.8646 18.8486 44.155 19.2843 44.3526 19.7638C44.5502 20.2432 44.651 20.7569 44.6494 21.2755Z" fill="white"/>
<path d="M44.6494 58.9534C44.6494 59.7335 44.4181 60.4958 43.9847 61.1444C43.5513 61.793 42.9353 62.2987 42.2146 62.5972C41.4939 62.8957 40.701 62.9738 39.9359 62.8216C39.1708 62.6694 38.4681 62.2937 37.9166 61.7421C37.365 61.1905 36.9894 60.4878 36.8373 59.7228C36.6851 58.9577 36.7632 58.1647 37.0617 57.444C37.3602 56.7234 37.8656 56.1073 38.5142 55.6739C39.1628 55.2406 39.9254 55.0093 40.7054 55.0093C41.7514 55.0093 42.7546 55.4249 43.4943 56.1646C44.2339 56.9042 44.6494 57.9074 44.6494 58.9534Z" fill="white"/>
<path d="M42.1367 27.2883H39.6527V32.1723C40.4748 32.0324 41.3146 32.0324 42.1367 32.1723" fill="white"/>
<path d="M42.1367 48.2791C41.3149 48.423 40.4745 48.423 39.6527 48.2791V53.1669H42.1367" fill="white"/>
<path d="M58.1568 42.9831C57.3768 42.9831 56.6142 42.7518 55.9656 42.3184C55.317 41.885 54.8116 41.269 54.5131 40.5483C54.2146 39.8276 54.1365 39.0346 54.2887 38.2696C54.4409 37.5045 54.8164 36.8018 55.368 36.2503C55.9196 35.6987 56.6224 35.3229 57.3875 35.1708C58.1526 35.0186 58.9455 35.0967 59.6662 35.3952C60.3869 35.6937 61.0028 36.1993 61.4361 36.8479C61.8695 37.4965 62.1008 38.2591 62.1008 39.0391C62.1008 40.0851 61.6854 41.0881 60.9457 41.8278C60.2061 42.5674 59.2029 42.9831 58.1568 42.9831Z" fill="white"/>
<path d="M21.9439 43.66C21.0309 43.6579 20.1466 43.3396 19.442 42.759C18.7373 42.1784 18.2557 41.3716 18.0791 40.4758C17.9025 39.58 18.0419 38.6505 18.4734 37.8459C18.905 37.0413 19.6019 36.4111 20.4459 36.0627C21.2898 35.7143 22.2284 35.6691 23.1019 35.935C23.9754 36.2008 24.7297 36.7612 25.2365 37.5207C25.7433 38.2802 25.9713 39.1918 25.8814 40.1004C25.7916 41.009 25.3896 41.8584 24.7439 42.5039C24.3764 42.8716 23.9399 43.1631 23.4593 43.3615C22.9788 43.5599 22.4638 43.6613 21.9439 43.66Z" fill="white"/>
<path d="M48.1226 40.9512H53.0106V38.4631H48.1226C48.2666 39.2835 48.2666 40.1228 48.1226 40.9432V40.9512Z" fill="white"/>
<path d="M32.9488 40.9442C32.8048 40.1238 32.8048 39.2845 32.9488 38.4641H28.0648V40.9442" fill="white"/>
<path d="M46.1768 39.997C46.1768 41.1045 45.8484 42.1872 45.233 43.1081C44.6177 44.029 43.7432 44.7468 42.7199 45.1706C41.6967 45.5945 40.5707 45.7054 39.4844 45.4894C38.3981 45.2733 37.4002 44.7399 36.617 43.9567C35.8338 43.1736 35.3005 42.1756 35.0844 41.0894C34.8683 40.0031 34.9793 38.8773 35.4031 37.854C35.827 36.8307 36.5447 35.9561 37.4656 35.3407C38.3866 34.7254 39.4692 34.397 40.5768 34.397C42.062 34.397 43.4865 34.987 44.5367 36.0372C45.5869 37.0874 46.1768 38.5118 46.1768 39.997Z" fill="white"/>
</svg>
