<svg width="460" height="589" viewBox="0 0 460 589" fill="none" xmlns="http://www.w3.org/2000/svg">
<g opacity="0.13">
<g opacity="0.4">
<path d="M52.1698 379.336L-30.1155 297.051H-139.26" stroke="white" strokeWidth="1.5" stroke-linecap="round" stroke-linejoin="round"/>
<path d="M65.4127 584.415L148.142 501.685H254.453L283.277 472.861V349.127L314.323 318.113H335.837" stroke="white" strokeWidth="1.5" stroke-linecap="round" stroke-linejoin="round"/>
<path d="M377.672 240.208L354.773 217.31V117.956L340.925 104.075H265.306L245.403 84.172V33.3516" stroke="white" strokeWidth="1.5" stroke-linecap="round" stroke-linejoin="round"/>
<path d="M163.73 81.4355V187.489L134.294 216.925H85.5025L62.2178 240.209V312.833L90.3977 341.013V359.821" stroke="white" strokeWidth="1.5" stroke-linecap="round" stroke-linejoin="round"/>
<path d="M64.8652 584.042L37.5807 556.757V506.13L-5.83241 462.749H-143.705L-195.04 411.381V372.928" stroke="white" strokeWidth="1.5" stroke-linecap="round" stroke-linejoin="round"/>
<path d="M-155.685 352.187L-139.26 368.612H-37.2651L-19.6809 351.027H21.9931" stroke="white" strokeWidth="1.5" stroke-linecap="round" stroke-linejoin="round"/>
<path d="M131.331 381.366L160.606 352.059V290.901L201.282 250.225H262.086L295.708 216.635V121.564L313.164 104.076" stroke="white" strokeWidth="1.5" stroke-linecap="round" stroke-linejoin="round"/>
<path d="M283.277 441.783L253.938 412.443V307.195" stroke="white" strokeWidth="1.5" stroke-linecap="round" stroke-linejoin="round"/>
<path d="M62.2179 269.966L33.2651 240.981V147.52L-8.08688 106.168H-32.0479" stroke="white" strokeWidth="1.5" stroke-linecap="round" stroke-linejoin="round"/>
<path d="M184.792 501.685L218.93 467.547V425.615" stroke="white" strokeWidth="1.5" stroke-linecap="round" stroke-linejoin="round"/>
<path d="M354.774 191.062L392.647 153.188V65.4603L416.125 41.9824" stroke="white" strokeWidth="1.5" stroke-linecap="round" stroke-linejoin="round"/>
<path d="M421.085 41.9831C421.085 39.2457 418.863 37.0234 416.125 37.0234C413.388 37.0234 411.166 39.2457 411.166 41.9831C411.166 44.7206 413.388 46.9428 416.125 46.9428C418.863 46.9428 421.085 44.7206 421.085 41.9831Z" fill="white"/>
<path d="M454.514 74.4467C457.253 74.4467 459.474 72.2262 459.474 69.487C459.474 66.7479 457.253 64.5273 454.514 64.5273C451.775 64.5273 449.555 66.7479 449.555 69.487C449.555 72.2262 451.775 74.4467 454.514 74.4467Z" fill="white"/>
<path d="M382.631 240.208C382.631 237.47 380.409 235.248 377.672 235.248C374.934 235.248 372.712 237.47 372.712 240.208C372.712 242.945 374.934 245.167 377.672 245.167C380.409 245.167 382.631 242.945 382.631 240.208Z" fill="white"/>
<path d="M223.89 425.616C223.89 422.878 221.668 420.656 218.93 420.656C216.193 420.656 213.971 422.878 213.971 425.616C213.971 428.353 216.193 430.576 218.93 430.576C221.668 430.576 223.89 428.353 223.89 425.616Z" fill="white"/>
<path d="M258.897 307.196C258.897 304.459 256.675 302.236 253.938 302.236C251.2 302.236 248.978 304.459 248.978 307.196C248.978 309.933 251.2 312.156 253.938 312.156C256.675 312.156 258.897 309.933 258.897 307.196Z" fill="white"/>
<path d="M421.085 41.9831C421.085 39.2457 418.863 37.0234 416.125 37.0234C413.388 37.0234 411.166 39.2457 411.166 41.9831C411.166 44.7206 413.388 46.9428 416.125 46.9428C418.863 46.9428 421.085 44.7206 421.085 41.9831Z" fill="white"/>
<path d="M69.8249 584.042C69.8249 581.304 67.6026 579.082 64.8652 579.082C62.1277 579.082 59.9056 581.304 59.9056 584.042C59.9056 586.779 62.1277 589.001 64.8652 589.001C67.6026 589.001 69.8249 586.779 69.8249 584.042Z" fill="white"/>
<path d="M258.897 307.196C258.897 304.459 256.675 302.236 253.938 302.236C251.2 302.236 248.978 304.459 248.978 307.196C248.978 309.933 251.2 312.156 253.938 312.156C256.675 312.156 258.897 309.933 258.897 307.196Z" fill="white"/>
</g>
</g>
</svg>
